<svg width="84" height="48" viewBox="0 0 84 48" fill="none" xmlns="http://www.w3.org/2000/svg">
<path d="M23.8575 0.802734H83.676V24.2472C83.676 37.1874 73.1718 47.6916 60.2316 47.6916H23.8575C10.9173 47.6916 0.413086 37.1874 0.413086 24.2472C0.413086 11.3069 10.9173 0.802734 23.8575 0.802734Z" fill="#8071FC"/>
<path d="M36.7865 39.1668C44.9486 39.1668 51.5653 32.5502 51.5653 24.3881C51.5653 16.226 44.9486 9.60938 36.7865 9.60938C28.6245 9.60938 22.0078 16.226 22.0078 24.3881C22.0078 32.5502 28.6245 39.1668 36.7865 39.1668Z" fill="white"/>
<path d="M58.3862 39.1668C66.5482 39.1668 73.1649 32.5502 73.1649 24.3881C73.1649 16.226 66.5482 9.60938 58.3862 9.60938C50.2241 9.60938 43.6074 16.226 43.6074 24.3881C43.6074 32.5502 50.2241 39.1668 58.3862 39.1668Z" fill="white"/>
<path d="M31.1053 32.9119C35.8132 32.9119 39.6296 29.0954 39.6296 24.3876C39.6296 19.6797 35.8132 15.8633 31.1053 15.8633C26.3975 15.8633 22.5811 19.6797 22.5811 24.3876C22.5811 29.0954 26.3975 32.9119 31.1053 32.9119Z" fill="black"/>
<path d="M54.4081 32.9119C59.1159 32.9119 62.9324 29.0954 62.9324 24.3876C62.9324 19.6797 59.1159 15.8633 54.4081 15.8633C49.7002 15.8633 45.8838 19.6797 45.8838 24.3876C45.8838 29.0954 49.7002 32.9119 54.4081 32.9119Z" fill="black"/>
</svg>
