<svg width="144" height="57" viewBox="0 0 144 57" fill="none" xmlns="http://www.w3.org/2000/svg">
<path d="M90.2644 43.6083C91.5428 43.3331 92.8254 43.0537 93.8625 42.8336C94.2816 44.8274 94.7219 46.9059 95.1494 48.9886C95.2552 49.505 95.3526 50.0257 95.4034 50.5463C95.8055 54.5678 94.3663 56.278 90.3744 56.4304C88.6727 56.4981 86.9668 56.5024 85.2693 56.405C83.3813 56.2992 82.704 55.3763 83.3347 53.5942C83.8173 52.2311 84.6428 50.9951 85.2989 49.6913C86.0947 48.1081 85.8238 46.1862 84.592 45.3989C84.211 45.1533 83.5845 45.2973 83.0723 45.2592C83.3305 45.6698 83.4956 46.2751 83.8639 46.4529C85.1762 47.0794 85.3285 48.053 84.8587 49.2298C84.029 51.3125 82.196 53.0143 82.4754 55.5457C82.4966 55.7192 81.7473 56.1552 81.3494 56.1679C79.309 56.2272 77.2475 56.3542 75.2283 56.1298C73.5054 55.9394 72.7435 54.6186 72.7181 52.2481C72.6715 48.0234 72.6969 43.7945 72.7011 39.5656C72.7011 37.5718 72.6588 35.5696 72.7562 33.58C72.8747 31.0697 73.8356 30.0961 76.3501 29.9649C79.2583 29.8125 82.2045 29.5035 84.7655 30.6718C84.4269 33.3048 84.2068 35.7897 83.7284 38.2237C83.5972 38.8926 82.6828 39.3963 82.1537 39.9974C81.9082 40.2726 81.7135 40.5943 81.4976 40.8991C81.8955 41.043 82.5686 41.3943 82.6405 41.297C83.2924 40.4165 84.0713 39.5233 84.3592 38.5073C84.719 37.2332 84.5666 35.8235 84.7825 34.4986C85.2735 31.4804 86.9964 29.9945 90.0443 29.8337C95.1325 29.5627 95.4245 29.8337 95.488 34.9304C95.4965 35.5188 95.4881 36.1029 95.4669 36.6913C95.3484 40.8779 94.2943 42.1986 90.2644 43.6083Z" fill="#8071FC"/>
<path d="M108.709 29.9141C111.274 29.9141 113.788 29.7744 116.282 29.9564C118.339 30.1088 119.55 31.2094 119.524 33.2201C119.461 38.8375 119.346 44.4718 118.809 50.0553C118.525 52.993 116.345 54.9191 113.424 55.7107C110.254 56.5658 107.036 56.6166 103.832 55.9266C100.124 55.1265 97.8379 52.7814 97.5162 48.6753C97.1267 43.714 97.1013 38.7147 97.1225 33.7323C97.131 31.3449 98.3162 30.2104 100.704 29.9648C102.317 29.7998 103.993 29.7617 105.589 30.0072C108.908 30.5152 110.554 33.3006 109.441 36.5177C108.869 38.1644 107.942 39.6883 107.155 41.2588C106.211 43.1426 105.61 45.0771 106.232 47.1894C106.668 48.671 107.485 49.8775 109.047 50.2965C109.437 50.4024 109.957 50.0299 110.415 49.8775C110.089 49.5684 109.792 49.0351 109.428 48.9885C106.77 48.6372 106.152 46.1015 106.77 44.1416C107.345 42.3171 108.298 40.6069 109.145 38.8756C110.038 37.0511 110.77 35.1843 110.173 33.1355C109.877 32.1153 109.288 31.1755 108.696 29.9141H108.709Z" fill="#8071FC"/>
<path d="M70.953 43.113C71.3001 46.3513 71.5668 49.196 70.6694 51.9899C70.0768 53.8313 68.7899 55.1351 66.9442 55.7065C62.9609 56.9341 58.9521 56.9172 55.0195 55.5076C52.2553 54.5128 50.4605 52.4724 49.5122 49.7124C48.2592 46.0635 48.1111 42.3341 49.0508 38.6132C50.3631 33.4191 54.211 30.1215 59.5744 29.7236C61.6528 29.567 63.8202 29.6644 65.8606 30.075C68.5274 30.6083 70.318 32.3566 70.8811 35.1251C71.0673 36.0394 71.1858 36.9792 71.2282 37.9105C71.4525 43.185 68.1211 45.9026 62.9947 44.6539C59.5151 43.8072 58.351 40.8864 60.2559 37.8597C60.4379 37.5676 60.2982 37.0723 60.3067 36.6744C59.8538 36.8014 59.2569 36.7887 58.9648 37.0808C57.4663 38.5624 57.8854 41.8431 59.7352 43.6252C62.11 45.9153 66.8977 46.2074 69.5434 44.2178C69.9074 43.9427 70.263 43.6548 70.9572 43.113H70.953Z" fill="#8071FC"/>
<path d="M63.3719 5.84049C62.2671 4.96423 61.6618 5.46797 61.2088 6.36116C60.4765 7.80466 61.1115 10.0609 62.9402 10.8059C64.8239 11.5764 66.9701 12.0124 69.002 12.0251C70.6402 12.0335 70.8857 12.6304 70.8984 13.9173C70.9111 15.1999 70.4328 15.6698 69.0782 15.4878C66.7542 15.1703 64.498 15.4624 62.5549 16.9482C61.0649 18.0869 60.4807 19.9876 61.2342 21.2829C61.7126 22.1041 62.3306 22.6756 63.2661 21.7443C61.3189 19.2934 61.8607 17.4435 64.8747 16.4064C66.932 15.6994 69.0401 15.6148 70.9958 16.7577C74.2934 18.6838 74.577 23.336 71.4064 25.4356C70.1449 26.2695 68.511 26.8537 67.004 26.9468C63.554 27.1627 60.0828 27.0823 56.6243 26.9722C53.5765 26.8749 52.0822 25.588 51.9933 22.574C51.8197 16.7704 51.807 10.9541 51.9594 5.15049C52.0399 2.06454 53.5807 0.69724 56.6497 0.587179C59.9897 0.468651 63.3465 0.392456 66.6822 0.591413C68.1935 0.684542 69.7851 1.27295 71.1186 2.02644C73.142 3.16939 73.8828 5.48067 73.3071 7.67766C72.7314 9.87042 70.9577 11.479 68.621 11.5171C67.1352 11.5425 65.5308 11.3859 64.1762 10.8313C61.6575 9.78999 61.3866 7.88932 63.3635 5.83625L63.3719 5.84049Z" fill="#8071FC"/>
<path d="M87.2001 5.84049C86.0952 4.96423 85.4899 5.46797 85.0369 6.36116C84.3046 7.80466 84.9396 10.0609 86.7683 10.8059C88.652 11.5764 90.7982 12.0124 92.8301 12.0251C94.4683 12.0335 94.7139 12.6304 94.7266 13.9173C94.7393 15.1999 94.2609 15.6698 92.9063 15.4878C90.5823 15.1703 88.3261 15.4624 86.3831 16.9482C84.893 18.0869 84.3088 19.9876 85.0623 21.2829C85.5407 22.1041 86.1587 22.6756 87.0942 21.7443C85.147 19.2934 85.6888 17.4435 88.7028 16.4064C90.7601 15.6994 92.8682 15.6148 94.8239 16.7577C98.1215 18.6838 98.4051 23.336 95.2345 25.4356C93.9731 26.2695 92.3391 26.8537 90.8321 26.9468C87.3821 27.1627 83.9109 27.0823 80.4525 26.9722C77.4046 26.8749 75.9103 25.588 75.8214 22.574C75.6479 16.7704 75.6352 10.9541 75.7876 5.15049C75.868 2.06454 77.4089 0.69724 80.4779 0.587179C83.8178 0.468651 87.1747 0.392456 90.5104 0.591413C92.0216 0.684542 93.6132 1.27295 94.9467 2.02644C96.9701 3.16939 97.7109 5.48067 97.1352 7.67766C96.5595 9.87042 94.7858 11.479 92.4491 11.5171C90.9633 11.5425 89.359 11.3859 88.0044 10.8313C85.4857 9.78999 85.2147 7.88932 87.1916 5.83625L87.2001 5.84049Z" fill="#8071FC"/>
<path d="M106.736 27.0569C105.737 27.0569 104.738 27.0865 103.743 27.0527C100.593 26.9384 99.3784 25.7277 99.3615 22.5952C99.3319 17.5451 99.3488 12.495 99.3573 7.44061C99.3573 6.3273 99.3022 5.20129 99.425 4.09644C99.5943 2.55558 100.2 1.04013 101.889 0.845402C106.079 0.362825 110.33 -0.0985858 114.334 1.84019C119.651 4.40969 122.449 10.6282 121.162 16.8974C119.901 23.0524 115.485 26.8114 109.204 27.0696C108.382 27.1035 107.561 27.0738 106.74 27.0738C106.74 27.0696 106.74 27.0654 106.74 27.0569H106.736ZM110.418 14.1713C110.207 11.1531 110.126 8.83331 108.395 7.04693C108.158 6.80141 107.62 6.8522 107.218 6.76754C107.311 7.15276 107.324 7.57607 107.506 7.91049C108.158 9.1 109.326 10.2048 109.466 11.4367C109.783 14.2686 110.401 17.4096 107.036 19.1918C106.837 19.2976 106.829 19.7548 106.731 20.0511C107.1 20.1231 107.603 20.3813 107.811 20.2331C108.361 19.831 109.009 19.3315 109.212 18.7346C109.779 17.0286 110.147 15.255 110.423 14.1713H110.418Z" fill="#8071FC"/>
<path d="M0.488791 43.1554C0.488791 40.1584 0.467626 37.1613 0.493025 34.1643C0.522657 31.0487 1.61904 29.9396 4.73885 29.8888C7.08823 29.8507 9.46301 29.6772 11.7828 29.9523C13.7173 30.1851 15.7407 30.6804 17.4382 31.5948C20.3972 33.1907 21.3623 37.2841 19.8342 40.2515C19.3982 41.0981 18.941 41.623 17.7853 41.2421C14.8729 40.2854 12.3627 41.0897 10.2504 43.2782C9.76357 43.7819 9.26829 44.3619 8.65872 44.6413C8.17615 44.8614 7.50731 44.6751 6.91891 44.6667C7.0332 44.1418 6.98664 43.4687 7.29989 43.1173C8.07032 42.2411 9.05664 41.5596 9.8567 40.7045C10.6483 39.8578 11.4991 38.9816 11.9606 37.9572C12.2145 37.3899 11.9775 36.1454 11.5203 35.8152C10.8599 35.3369 9.8059 35.3623 8.90847 35.2945C8.76031 35.2818 8.56136 35.8914 8.3878 36.2131C8.68412 36.3147 8.97197 36.4629 9.27252 36.501C9.99215 36.5899 10.7203 36.628 11.4399 36.683C11.1647 37.5381 11.1012 38.571 10.5679 39.2144C9.60694 40.3785 8.33277 41.2802 7.24909 42.3512C6.46173 43.13 5.42885 44.0571 6.51253 45.1831C7.49461 46.2033 8.58252 45.5133 9.48841 44.7852C10.0811 44.3069 10.606 43.7481 11.1859 43.2486C13.6792 41.0939 17.2139 40.9415 19.7622 42.8634C22.2428 44.7344 23.0429 48.1251 21.6163 51.1179C19.9781 54.5552 16.9599 56.0368 13.3871 56.2993C10.2927 56.5279 7.16443 56.4348 4.05308 56.3501C1.63597 56.2866 0.556522 55.1352 0.509958 52.6715C0.446461 49.5009 0.493025 46.3261 0.493025 43.1554H0.488791Z" fill="#8071FC"/>
<path d="M134.975 51.4225C135.424 54.9741 134.433 56.2102 131.195 56.3033C129.201 56.3626 127.194 56.388 125.209 56.2483C122.898 56.0875 121.67 55.0038 121.624 52.7009C121.492 46.3047 121.463 39.9042 121.581 33.5122C121.628 31.0147 122.733 29.8844 125.226 29.8929C128.778 29.9013 132.477 29.7786 135.843 30.7099C142.578 32.5724 145.541 39.9254 142.285 45.7544C140.046 49.7674 136.236 51.0924 131.91 51.2744C130.767 51.321 130.039 50.7452 129.976 49.4795C129.954 49.0562 129.722 48.6371 129.531 48.2477C129.51 48.2011 128.934 48.3324 128.934 48.3832C128.934 48.87 128.883 49.4033 129.061 49.8394C129.794 51.63 131.334 51.8713 133.011 51.7485C133.637 51.7019 134.251 51.5538 134.983 51.431L134.975 51.4225ZM131.584 37.0215C133.222 39.3624 133.324 41.4239 131.063 43.4389C132.824 43.1976 133.074 42.9182 133.282 41.5213C133.646 39.0534 133.277 37.7792 131.584 37.0215Z" fill="#8071FC"/>
<path d="M33.4397 56.3751C31.1411 56.3751 29.2023 56.5614 27.3143 56.3286C24.8337 56.0238 23.3564 53.8776 24.0252 51.2446C25.528 45.3394 27.217 39.4765 29.0118 33.656C29.3378 32.5977 30.3664 31.5479 31.3443 30.9383C35.7764 28.191 41.4741 30.2356 42.9938 35.1587C44.5008 40.031 45.847 44.9542 47.1 49.8985C48.1286 53.958 46.3592 56.2397 42.1472 56.4767C40.2169 56.5868 38.2739 56.5402 36.3436 56.4683C34.79 56.409 33.41 55.8291 32.8513 54.2586C32.3052 52.7262 32.6819 51.3927 34.1085 50.4064C34.3667 50.2286 34.3498 49.6614 34.4599 49.2719C34.045 49.3312 33.5286 49.2508 33.2322 49.4751C31.4586 50.8086 31.4205 53.6659 33.4354 56.3794L33.4397 56.3751ZM31.7676 44.8949C31.7549 45.1023 31.7464 45.3097 31.7337 45.5172C32.3602 45.4325 33.2788 45.5764 33.5497 45.2208C34.172 44.4081 34.7477 43.3752 34.8197 42.3931C34.8832 41.5592 34.1678 40.6829 33.8799 39.7982C33.5243 38.7145 33.681 37.9102 35.116 37.9991C35.353 38.0118 35.6028 37.8806 36.0938 37.7494C35.7086 37.415 35.4673 37.0763 35.3319 37.1144C34.6927 37.288 33.7191 37.4107 33.5455 37.834C33.2492 38.5452 33.2407 39.5485 33.5074 40.2893C34.663 43.4895 34.7138 43.4683 31.8607 44.7467C31.8184 44.7679 31.7972 44.8399 31.7676 44.8907V44.8949Z" fill="#8071FC"/>
<path d="M39.1795 4.98127C37.0037 6.66182 36.7878 8.41857 38.2059 10.1795C39.6198 11.9363 41.5628 12.3765 43.7259 12.3427C44.4498 12.33 45.7874 12.6221 45.8001 12.8379C45.8636 13.9555 45.7451 15.1577 45.3387 16.1906C45.2287 16.4742 43.8444 16.47 43.1417 16.2625C41.2834 15.7207 40.5765 16.1355 40.805 18.0574C40.9913 19.6236 41.4569 21.1518 41.7787 22.7011C42.2782 25.0801 41.622 26.5194 39.2388 26.8284C36.4788 27.1882 33.6299 27.1205 30.8403 26.9216C29.147 26.803 28.4867 25.2495 28.3385 23.7128C28.1522 21.791 28.0887 19.848 28.093 17.9135C28.1099 13.6295 28.0845 9.33715 28.3046 5.0617C28.4528 2.17894 29.8159 0.875139 32.652 0.756612C36.229 0.608453 39.8187 0.587285 43.3957 0.748144C45.8213 0.858205 47.976 1.81489 49.1739 4.16851C50.8291 7.41955 48.7845 11.386 45.1525 11.6315C43.5227 11.7416 41.7279 11.4706 40.2209 10.8484C38.1382 9.98905 37.8715 8.45243 38.9467 6.43746C39.0991 6.15384 39.061 5.77286 39.1795 4.97704V4.98127Z" fill="#8071FC"/>
</svg>
