<svg width="688" height="652" viewBox="0 0 688 652" fill="none" xmlns="http://www.w3.org/2000/svg">
<mask id="mask0_931_674" style="mask-type:alpha" maskUnits="userSpaceOnUse" x="0" y="0" width="688" height="652">
<path d="M0.65625 30.0781C0.65625 13.5096 14.0877 0.078125 30.6562 0.078125H687.656V651.078H30.6563C14.0877 651.078 0.65625 637.647 0.65625 621.078V30.0781Z" fill="#D9D9D9"/>
</mask>
<g mask="url(#mask0_931_674)">
<path d="M0.65625 30.0781C0.65625 13.5096 14.0877 0.078125 30.6562 0.078125H687.656V651.078H30.6563C14.0877 651.078 0.65625 637.647 0.65625 621.078V30.0781Z" fill="#F6F6F9"/>
<mask id="mask1_931_674" style="mask-type:alpha" maskUnits="userSpaceOnUse" x="0" y="0" width="688" height="652">
<path d="M0.65625 30.0781C0.65625 13.5096 14.0877 0.078125 30.6562 0.078125H687.656V651.078H30.6563C14.0877 651.078 0.65625 637.647 0.65625 621.078V30.0781Z" fill="#F6F6F9"/>
</mask>
<g mask="url(#mask1_931_674)">
<g filter="url(#filter0_f_931_674)">
<path d="M279.656 594.926C279.656 610.059 274.508 624.937 264.706 638.129C254.904 651.32 240.78 662.379 223.692 670.243C206.604 678.106 187.129 682.509 167.141 683.027C147.153 683.544 127.326 680.16 109.568 673.198C91.8094 666.237 76.7186 655.934 65.7479 643.281C54.7773 630.628 48.2963 616.051 46.9289 600.953C45.5615 585.855 49.3538 570.745 57.9406 557.078" stroke="url(#paint0_linear_931_674)" stroke-opacity="0.4" stroke-width="200" stroke-linecap="round" stroke-linejoin="round"/>
</g>
</g>
<rect x="111.574" y="76.7305" width="695" height="234" rx="20" fill="white"/>
<g filter="url(#filter1_d_931_674)">
<rect x="81.5742" y="97.7305" width="725" height="444" rx="20" fill="#F1F5F9"/>
</g>
<path d="M375.585 153.457H426.119V173.263C426.119 184.194 417.245 193.068 406.313 193.068H375.585C364.653 193.068 355.779 184.194 355.779 173.263C355.779 162.331 364.653 153.457 375.585 153.457Z" fill="#8071FC"/>
<path d="M386.507 185.866C393.402 185.866 398.992 180.277 398.992 173.381C398.992 166.486 393.402 160.896 386.507 160.896C379.612 160.896 374.022 166.486 374.022 173.381C374.022 180.277 379.612 185.866 386.507 185.866Z" fill="white"/>
<path d="M404.754 185.866C411.65 185.866 417.239 180.277 417.239 173.381C417.239 166.486 411.65 160.896 404.754 160.896C397.859 160.896 392.27 166.486 392.27 173.381C392.27 180.277 397.859 185.866 404.754 185.866Z" fill="white"/>
<path d="M381.707 180.584C385.684 180.584 388.908 177.36 388.908 173.383C388.908 169.406 385.684 166.182 381.707 166.182C377.73 166.182 374.506 169.406 374.506 173.383C374.506 177.36 377.73 180.584 381.707 180.584Z" fill="black"/>
<path d="M401.394 180.584C405.371 180.584 408.595 177.36 408.595 173.383C408.595 169.406 405.371 166.182 401.394 166.182C397.416 166.182 394.192 169.406 394.192 173.383C394.192 177.36 397.416 180.584 401.394 180.584Z" fill="black"/>
<path d="M508.152 184.416C509.096 184.213 510.044 184.007 510.81 183.844C511.12 185.317 511.445 186.853 511.761 188.392C511.84 188.773 511.912 189.158 511.949 189.543C512.246 192.515 511.183 193.778 508.233 193.891C506.976 193.941 505.715 193.944 504.461 193.872C503.066 193.794 502.565 193.112 503.031 191.795C503.388 190.788 503.998 189.875 504.483 188.911C505.071 187.741 504.871 186.321 503.96 185.739C503.679 185.558 503.216 185.664 502.837 185.636C503.028 185.94 503.15 186.387 503.422 186.518C504.392 186.981 504.505 187.701 504.157 188.57C503.544 190.109 502.19 191.367 502.396 193.237C502.412 193.365 501.858 193.687 501.564 193.697C500.057 193.741 498.533 193.834 497.041 193.669C495.768 193.528 495.205 192.552 495.186 190.8C495.152 187.679 495.171 184.554 495.174 181.429C495.174 179.956 495.143 178.476 495.215 177.006C495.302 175.151 496.012 174.432 497.87 174.335C500.019 174.222 502.196 173.994 504.089 174.857C503.838 176.803 503.676 178.639 503.322 180.438C503.225 180.932 502.55 181.304 502.159 181.748C501.977 181.951 501.833 182.189 501.674 182.414C501.968 182.521 502.465 182.78 502.518 182.708C503 182.058 503.576 181.398 503.788 180.647C504.054 179.706 503.942 178.664 504.101 177.685C504.464 175.455 505.737 174.357 507.989 174.238C511.749 174.038 511.965 174.238 512.012 178.004C512.018 178.439 512.012 178.87 511.996 179.305C511.908 182.399 511.13 183.375 508.152 184.416Z" fill="#8071FC"/>
<path d="M521.779 174.297C523.674 174.297 525.532 174.194 527.375 174.328C528.895 174.441 529.79 175.254 529.771 176.74C529.724 180.891 529.639 185.054 529.242 189.18C529.033 191.35 527.422 192.774 525.263 193.359C522.921 193.99 520.543 194.028 518.176 193.518C515.435 192.927 513.746 191.194 513.509 188.16C513.221 184.494 513.202 180.8 513.218 177.118C513.224 175.354 514.1 174.516 515.864 174.334C517.056 174.212 518.294 174.184 519.474 174.366C521.926 174.741 523.143 176.799 522.32 179.177C521.898 180.393 521.213 181.519 520.631 182.68C519.933 184.072 519.489 185.501 519.949 187.062C520.271 188.157 520.875 189.048 522.029 189.358C522.317 189.436 522.702 189.161 523.04 189.048C522.799 188.82 522.58 188.426 522.311 188.391C520.346 188.132 519.89 186.258 520.346 184.81C520.772 183.462 521.476 182.198 522.101 180.919C522.761 179.571 523.302 178.191 522.861 176.677C522.642 175.923 522.207 175.229 521.77 174.297H521.779Z" fill="#8071FC"/>
<path d="M493.881 184.051C494.137 186.444 494.334 188.546 493.671 190.611C493.233 191.971 492.282 192.935 490.919 193.357C487.975 194.264 485.013 194.252 482.107 193.21C480.065 192.475 478.739 190.967 478.038 188.928C477.112 186.232 477.003 183.476 477.697 180.726C478.667 176.888 481.51 174.452 485.473 174.158C487.009 174.042 488.61 174.114 490.118 174.417C492.089 174.812 493.412 176.103 493.828 178.149C493.965 178.825 494.053 179.519 494.084 180.207C494.25 184.105 491.788 186.113 488 185.19C485.429 184.564 484.569 182.406 485.977 180.17C486.111 179.954 486.008 179.588 486.014 179.294C485.679 179.388 485.238 179.378 485.023 179.594C483.915 180.689 484.225 183.113 485.592 184.43C487.347 186.122 490.884 186.338 492.839 184.868C493.108 184.665 493.371 184.452 493.884 184.051H493.881Z" fill="#8071FC"/>
<path d="M467.873 156.51C467.056 155.863 466.609 156.235 466.274 156.895C465.733 157.962 466.202 159.629 467.553 160.179C468.945 160.749 470.531 161.071 472.033 161.08C473.243 161.086 473.425 161.527 473.434 162.478C473.443 163.426 473.09 163.773 472.089 163.639C470.372 163.404 468.705 163.62 467.269 164.718C466.168 165.559 465.736 166.964 466.293 167.921C466.646 168.528 467.103 168.95 467.794 168.262C466.355 166.451 466.756 165.084 468.983 164.318C470.503 163.795 472.061 163.733 473.506 164.577C475.943 166 476.152 169.438 473.809 170.989C472.877 171.606 471.67 172.037 470.556 172.106C468.007 172.266 465.442 172.206 462.887 172.125C460.634 172.053 459.53 171.102 459.465 168.875C459.336 164.587 459.327 160.289 459.44 156C459.499 153.72 460.638 152.71 462.905 152.629C465.373 152.541 467.854 152.485 470.319 152.632C471.435 152.7 472.611 153.135 473.597 153.692C475.092 154.537 475.639 156.244 475.214 157.868C474.788 159.488 473.478 160.677 471.751 160.705C470.653 160.724 469.468 160.608 468.467 160.198C466.606 159.429 466.406 158.024 467.866 156.507L467.873 156.51Z" fill="#8071FC"/>
<path d="M485.481 156.51C484.665 155.863 484.217 156.235 483.883 156.895C483.341 157.962 483.811 159.629 485.162 160.179C486.554 160.749 488.14 161.071 489.641 161.08C490.852 161.086 491.033 161.527 491.042 162.478C491.052 163.426 490.698 163.773 489.697 163.639C487.98 163.404 486.313 163.62 484.877 164.718C483.776 165.559 483.345 166.964 483.901 167.921C484.255 168.528 484.711 168.95 485.403 168.262C483.964 166.451 484.364 165.084 486.591 164.318C488.111 163.795 489.669 163.733 491.114 164.577C493.551 166 493.761 169.438 491.418 170.989C490.486 171.606 489.278 172.037 488.165 172.106C485.615 172.266 483.051 172.206 480.495 172.125C478.243 172.053 477.139 171.102 477.073 168.875C476.945 164.587 476.935 160.289 477.048 156C477.107 153.72 478.246 152.71 480.514 152.629C482.982 152.541 485.462 152.485 487.927 152.632C489.044 152.7 490.22 153.135 491.205 153.692C492.7 154.537 493.248 156.244 492.822 157.868C492.397 159.488 491.086 160.677 489.36 160.705C488.262 160.724 487.076 160.608 486.075 160.198C484.214 159.429 484.014 158.024 485.475 156.507L485.481 156.51Z" fill="#8071FC"/>
<path d="M499.916 172.186C499.178 172.186 498.44 172.208 497.705 172.183C495.378 172.098 494.48 171.204 494.467 168.889C494.446 165.157 494.458 161.426 494.464 157.691C494.464 156.868 494.424 156.036 494.514 155.22C494.64 154.081 495.087 152.962 496.335 152.818C499.432 152.461 502.572 152.12 505.531 153.553C509.46 155.451 511.527 160.046 510.576 164.679C509.644 169.227 506.382 172.004 501.74 172.195C501.133 172.22 500.526 172.198 499.919 172.198C499.919 172.195 499.919 172.192 499.919 172.186H499.916ZM502.638 162.664C502.481 160.434 502.422 158.72 501.142 157.4C500.967 157.219 500.57 157.256 500.273 157.194C500.342 157.478 500.351 157.791 500.486 158.038C500.967 158.917 501.831 159.734 501.934 160.644C502.168 162.736 502.625 165.057 500.138 166.374C499.991 166.452 499.985 166.79 499.913 167.009C500.185 167.062 500.558 167.253 500.711 167.144C501.117 166.847 501.596 166.477 501.746 166.036C502.165 164.776 502.437 163.465 502.641 162.664H502.638Z" fill="#8071FC"/>
<path d="M441.814 184.082C441.814 181.867 441.798 179.652 441.817 177.438C441.839 175.136 442.649 174.316 444.954 174.279C446.69 174.251 448.445 174.122 450.159 174.326C451.589 174.498 453.084 174.864 454.338 175.539C456.524 176.718 457.238 179.743 456.108 181.936C455.786 182.561 455.448 182.949 454.594 182.668C452.442 181.961 450.588 182.555 449.027 184.172C448.667 184.545 448.301 184.973 447.851 185.18C447.494 185.342 447 185.205 446.565 185.198C446.65 184.81 446.615 184.313 446.847 184.053C447.416 183.406 448.145 182.902 448.736 182.271C449.321 181.645 449.949 180.997 450.29 180.241C450.478 179.821 450.303 178.902 449.965 178.658C449.477 178.304 448.698 178.323 448.035 178.273C447.926 178.264 447.779 178.714 447.65 178.952C447.869 179.027 448.082 179.136 448.304 179.165C448.836 179.23 449.374 179.258 449.906 179.299C449.702 179.931 449.655 180.694 449.261 181.17C448.551 182.03 447.61 182.696 446.809 183.487C446.227 184.063 445.464 184.748 446.265 185.58C446.99 186.334 447.794 185.824 448.464 185.286C448.902 184.932 449.289 184.52 449.718 184.15C451.56 182.558 454.172 182.446 456.055 183.866C457.888 185.248 458.479 187.754 457.425 189.965C456.215 192.505 453.985 193.6 451.345 193.794C449.058 193.963 446.746 193.894 444.447 193.831C442.661 193.784 441.864 192.934 441.829 191.113C441.782 188.77 441.817 186.424 441.817 184.082H441.814Z" fill="#8071FC"/>
<path d="M541.188 190.189C541.52 192.813 540.788 193.727 538.395 193.795C536.922 193.839 535.439 193.858 533.972 193.755C532.264 193.636 531.357 192.835 531.323 191.134C531.226 186.407 531.204 181.678 531.291 176.955C531.326 175.109 532.142 174.274 533.984 174.28C536.609 174.286 539.343 174.196 541.829 174.884C546.806 176.26 548.995 181.693 546.59 186.001C544.935 188.966 542.12 189.945 538.923 190.079C538.079 190.114 537.541 189.688 537.494 188.753C537.478 188.44 537.306 188.131 537.166 187.843C537.15 187.809 536.725 187.906 536.725 187.943C536.725 188.303 536.687 188.697 536.818 189.019C537.36 190.342 538.498 190.52 539.737 190.43C540.2 190.395 540.653 190.286 541.194 190.195L541.188 190.189ZM538.683 179.548C539.893 181.277 539.968 182.801 538.298 184.29C539.599 184.111 539.784 183.905 539.937 182.873C540.206 181.049 539.934 180.108 538.683 179.548Z" fill="#8071FC"/>
<path d="M466.162 193.85C464.464 193.85 463.031 193.987 461.636 193.815C459.803 193.59 458.712 192.004 459.206 190.059C460.316 185.695 461.564 181.363 462.891 177.062C463.131 176.28 463.891 175.504 464.614 175.054C467.889 173.024 472.099 174.535 473.222 178.173C474.336 181.773 475.33 185.411 476.256 189.064C477.016 192.064 475.709 193.75 472.597 193.925C471.17 194.006 469.734 193.972 468.308 193.919C467.16 193.875 466.14 193.446 465.728 192.286C465.324 191.153 465.602 190.168 466.657 189.439C466.847 189.308 466.835 188.889 466.916 188.601C466.61 188.645 466.228 188.585 466.009 188.751C464.698 189.736 464.67 191.848 466.159 193.853L466.162 193.85ZM464.927 185.367C464.917 185.52 464.911 185.673 464.902 185.827C465.365 185.764 466.044 185.87 466.244 185.608C466.703 185.007 467.129 184.244 467.182 183.518C467.229 182.902 466.7 182.254 466.488 181.601C466.225 180.8 466.341 180.206 467.401 180.271C467.576 180.281 467.761 180.184 468.124 180.087C467.839 179.84 467.661 179.589 467.561 179.618C467.088 179.746 466.369 179.837 466.241 180.149C466.022 180.675 466.015 181.416 466.212 181.964C467.066 184.328 467.104 184.313 464.996 185.257C464.964 185.273 464.949 185.326 464.927 185.364V185.367Z" fill="#8071FC"/>
<path d="M449.997 155.875C448.389 157.116 448.23 158.415 449.277 159.716C450.322 161.014 451.758 161.339 453.356 161.314C453.891 161.305 454.88 161.521 454.889 161.68C454.936 162.506 454.848 163.394 454.548 164.157C454.467 164.367 453.444 164.364 452.925 164.211C451.551 163.81 451.029 164.117 451.198 165.537C451.336 166.694 451.68 167.823 451.917 168.968C452.287 170.726 451.802 171.79 450.041 172.018C448.001 172.284 445.896 172.234 443.835 172.087C442.584 171.999 442.096 170.851 441.986 169.716C441.849 168.296 441.802 166.86 441.805 165.431C441.817 162.265 441.799 159.093 441.961 155.934C442.071 153.804 443.078 152.841 445.174 152.753C447.817 152.644 450.469 152.628 453.112 152.747C454.905 152.828 456.497 153.535 457.382 155.274C458.605 157.676 457.094 160.607 454.41 160.789C453.206 160.87 451.88 160.67 450.766 160.21C449.227 159.575 449.03 158.44 449.825 156.951C449.937 156.741 449.909 156.46 449.997 155.872V155.875Z" fill="#8071FC"/>
<path d="M321.889 297.404H320.827L320.921 294.982L318.858 296.279L318.327 295.357L320.483 294.232L318.327 293.092L318.858 292.17L320.921 293.467L320.827 291.045H321.889L321.796 293.467L323.858 292.17L324.389 293.092L322.249 294.232L324.389 295.357L323.858 296.279L321.796 294.982L321.889 297.404ZM333.53 290.576C334.702 290.568 335.702 291.006 336.342 291.748H339.983V289.732H341.217V297.967H339.983V295.982H336.358C335.702 296.725 334.702 297.162 333.53 297.154C331.452 297.17 329.921 295.811 329.921 293.873C329.921 291.92 331.452 290.561 333.53 290.576ZM333.53 291.639C332.108 291.623 331.092 292.561 331.092 293.873C331.092 295.17 332.108 296.107 333.53 296.107C334.905 296.107 335.936 295.17 335.936 293.873C335.936 292.561 334.905 291.623 333.53 291.639ZM336.608 298.295C339.483 298.295 341.264 299.264 341.264 300.936C341.264 302.623 339.483 303.592 336.608 303.592C333.717 303.592 331.952 302.623 331.952 300.936C331.952 299.264 333.717 298.295 336.608 298.295ZM336.608 299.248C334.483 299.248 333.155 299.889 333.155 300.936C333.155 301.982 334.483 302.607 336.608 302.607C338.749 302.607 340.061 301.982 340.061 300.936C340.061 299.889 338.749 299.248 336.608 299.248ZM336.936 292.748C337.053 293.092 337.124 293.467 337.124 293.873C337.124 294.264 337.053 294.631 336.936 294.967H339.983V292.748H336.936ZM356.233 296.842V297.857H350.577V300.701H349.358V297.857H343.514V296.842H356.233ZM354.577 290.42V295.248H345.171V290.42H354.577ZM346.374 291.389V294.264H353.358V291.389H346.374ZM354.811 302.295V303.326H345.139V299.326H346.374V302.295H354.811ZM359.639 301.311L358.421 305.561H357.264L358.124 301.311H359.639ZM378.171 296.076V297.092H372.374V298.654H371.171V297.092H365.467V296.076H378.171ZM372.389 299.732C372.389 301.264 374.639 302.373 377.155 302.623L376.764 303.561C374.569 303.326 372.592 302.482 371.764 301.139C370.936 302.467 368.975 303.326 366.796 303.561L366.389 302.623C368.874 302.373 371.139 301.248 371.139 299.732V299.279H372.389V299.732ZM372.436 290.561C372.436 292.279 374.967 293.779 377.421 294.076L376.967 295.029C374.811 294.732 372.694 293.662 371.811 292.123C370.921 293.678 368.788 294.732 366.639 295.029L366.186 294.076C368.655 293.779 371.171 292.311 371.171 290.561V289.904H372.436V290.561ZM383.999 293.998C383.983 296.232 385.592 298.686 387.608 299.639L386.905 300.607C385.342 299.85 384.022 298.193 383.405 296.311C382.764 298.357 381.366 300.154 379.811 300.951L379.061 299.982C381.061 299.014 382.78 296.373 382.796 293.998V292.186H379.561V291.17H387.124V292.186H383.999V293.998ZM390.046 289.732V295.357H392.374V296.404H390.046V303.623H388.827V289.732H390.046ZM321.202 318.045V316.889L326.296 309.045H328.03V316.811H329.608V318.045H328.03V320.357H326.686V318.045H321.202ZM322.717 316.811H326.686V310.826H326.546L322.717 316.717V316.811ZM335.671 311.998C335.655 314.232 337.264 316.686 339.28 317.639L338.577 318.607C337.014 317.85 335.694 316.193 335.077 314.311C334.436 316.357 333.038 318.154 331.483 318.951L330.733 317.982C332.733 317.014 334.452 314.373 334.467 311.998V310.186H331.233V309.17H338.796V310.186H335.671V311.998ZM341.717 307.732V313.357H344.046V314.404H341.717V321.623H340.499V307.732H341.717ZM356.264 307.732V321.654H355.046V307.732H356.264ZM352.046 309.029V313.967H346.858V317.248C349.163 317.248 351.217 317.146 353.702 316.748L353.827 317.779C351.264 318.186 349.155 318.279 346.764 318.279H345.608V312.967H350.811V310.045H345.577V309.029H352.046ZM374.092 307.732V321.654H372.858V307.732H374.092ZM366.702 308.811C368.764 308.826 370.249 310.701 370.249 313.654C370.249 316.607 368.764 318.482 366.702 318.482C364.624 318.482 363.155 316.607 363.155 313.654C363.155 310.701 364.624 308.826 366.702 308.811ZM366.702 309.904C365.311 309.92 364.342 311.389 364.342 313.654C364.342 315.92 365.311 317.389 366.702 317.389C368.092 317.389 369.061 315.92 369.061 313.654C369.061 311.389 368.092 309.92 366.702 309.904ZM381.108 309.982C381.108 311.873 382.546 313.607 384.561 314.295L383.889 315.264C382.35 314.701 381.139 313.553 380.53 312.107C379.936 313.74 378.702 315.029 377.077 315.654L376.421 314.67C378.499 313.889 379.889 312.029 379.905 309.889V308.451H381.108V309.982ZM387.327 307.732V311.357H389.421V312.389H387.327V316.186H386.108V307.732H387.327ZM382.874 316.545C385.733 316.545 387.452 317.467 387.452 319.061C387.452 320.686 385.733 321.592 382.874 321.592C380.014 321.592 378.264 320.686 378.264 319.061C378.264 317.467 380.014 316.545 382.874 316.545ZM382.874 317.529C380.78 317.529 379.483 318.107 379.499 319.061C379.483 320.045 380.78 320.607 382.874 320.623C384.983 320.607 386.264 320.045 386.264 319.061C386.264 318.107 384.983 317.529 382.874 317.529Z" fill="#94A3B8"/>
<path d="M409.328 297.404H408.266L408.359 294.982L406.297 296.279L405.766 295.357L407.922 294.232L405.766 293.092L406.297 292.17L408.359 293.467L408.266 291.045H409.328L409.234 293.467L411.297 292.17L411.828 293.092L409.688 294.232L411.828 295.357L411.297 296.279L409.234 294.982L409.328 297.404ZM421.797 293.467C421.797 295.92 423.422 298.436 425.391 299.404L424.641 300.389C423.109 299.584 421.828 297.943 421.219 296.014C420.594 298.068 419.281 299.818 417.719 300.654L416.938 299.67C418.969 298.67 420.578 295.998 420.594 293.467V290.936H421.797V293.467ZM427.891 289.732V295.373H430.219V296.436H427.891V303.623H426.672V289.732H427.891ZM443.625 296.607V297.623H430.969V296.607H434.109V294.654C433 294.225 432.375 293.514 432.375 292.576C432.375 290.936 434.25 289.998 437.297 289.998C440.313 289.998 442.203 290.936 442.203 292.576C442.203 293.506 441.586 294.217 440.484 294.639V296.607H443.625ZM437.297 298.686C440.281 298.686 442.063 299.545 442.078 301.139C442.063 302.717 440.281 303.592 437.297 303.592C434.281 303.592 432.5 302.717 432.5 301.139C432.5 299.545 434.281 298.686 437.297 298.686ZM437.297 299.623C435.063 299.639 433.734 300.186 433.75 301.139C433.734 302.076 435.063 302.639 437.297 302.639C439.5 302.639 440.844 302.076 440.844 301.139C440.844 300.186 439.5 299.639 437.297 299.623ZM437.297 290.967C435.031 290.967 433.625 291.576 433.641 292.576C433.625 293.592 435.031 294.186 437.297 294.186C439.547 294.186 440.953 293.592 440.953 292.576C440.953 291.576 439.547 290.967 437.297 290.967ZM435.328 296.607H439.266V294.982C438.68 295.084 438.023 295.139 437.297 295.139C436.57 295.139 435.914 295.084 435.328 294.982V296.607ZM455.547 289.732V295.389H457.797V296.42H455.547V303.623H454.328V289.732H455.547ZM451.953 291.232C451.953 295.17 450.109 298.748 445.578 300.982L444.891 300.014C448.484 298.225 450.438 295.553 450.719 292.264H445.531V291.232H451.953ZM469.844 293.623V294.639H460.359V290.014H461.578V293.623H469.844ZM471.297 296.264V297.279H458.625V296.264H471.297ZM464.953 298.529C467.938 298.529 469.719 299.436 469.734 301.045C469.719 302.654 467.938 303.561 464.953 303.561C461.953 303.561 460.156 302.654 460.156 301.045C460.156 299.436 461.953 298.529 464.953 298.529ZM464.953 299.498C462.719 299.514 461.391 300.061 461.406 301.045C461.391 302.014 462.719 302.607 464.953 302.607C467.156 302.607 468.5 302.014 468.5 301.045C468.5 300.061 467.156 299.514 464.953 299.498ZM483.312 289.748V294.326H485.406V295.357H483.312V300.154H482.094V289.748H483.312ZM480.766 291.451V292.451H472.484V291.451H476.016V289.748H477.234V291.451H480.766ZM476.625 293.217C478.609 293.217 479.953 294.232 479.969 295.811C479.953 297.373 478.609 298.373 476.625 298.373C474.625 298.373 473.266 297.373 473.281 295.811C473.266 294.232 474.625 293.217 476.625 293.217ZM476.625 294.186C475.312 294.186 474.438 294.826 474.453 295.811C474.438 296.795 475.312 297.42 476.625 297.404C477.922 297.42 478.797 296.795 478.812 295.811C478.797 294.826 477.922 294.186 476.625 294.186ZM483.953 302.295V303.326H474.625V299.326H475.828V302.295H483.953ZM406.141 308.811C408.188 308.826 409.641 310.701 409.656 313.654C409.641 316.607 408.188 318.482 406.141 318.482C404.078 318.482 402.641 316.607 402.641 313.654C402.641 310.701 404.078 308.826 406.141 308.811ZM406.141 309.904C404.766 309.92 403.797 311.389 403.797 313.654C403.797 315.92 404.766 317.389 406.141 317.389C407.531 317.389 408.469 315.92 408.469 313.654C408.469 311.389 407.531 309.92 406.141 309.904ZM413.172 307.732V313.279H415.5V314.342H413.172V321.623H411.953V307.732H413.172ZM427.703 307.732V321.654H426.469V307.732H427.703ZM420.313 308.811C422.375 308.826 423.859 310.701 423.859 313.654C423.859 316.607 422.375 318.482 420.313 318.482C418.234 318.482 416.766 316.607 416.766 313.654C416.766 310.701 418.234 308.826 420.313 308.811ZM420.313 309.904C418.922 309.92 417.953 311.389 417.953 313.654C417.953 315.92 418.922 317.389 420.313 317.389C421.703 317.389 422.672 315.92 422.672 313.654C422.672 311.389 421.703 309.92 420.313 309.904ZM441.531 307.732V321.654H440.297V307.732H441.531ZM437.594 309.061V310.092H432.219V317.139C434.922 317.139 436.703 317.053 438.781 316.686L438.906 317.717C436.75 318.107 434.922 318.186 432.109 318.201H430.984V309.061H437.594ZM455.375 307.732V315.186H454.156V307.732H455.375ZM447.594 315.889V317.576H454.156V315.889H455.375V321.436H446.375V315.889H447.594ZM447.594 320.436H454.156V318.561H447.594V320.436ZM447.875 308.42C449.984 308.404 451.516 309.701 451.516 311.607C451.516 313.498 449.984 314.795 447.875 314.795C445.766 314.795 444.234 313.498 444.234 311.607C444.234 309.701 445.766 308.404 447.875 308.42ZM447.875 309.451C446.453 309.436 445.422 310.342 445.438 311.607C445.422 312.873 446.453 313.779 447.875 313.779C449.281 313.779 450.313 312.873 450.313 311.607C450.313 310.342 449.281 309.436 447.875 309.451ZM469.188 307.732V321.623H467.969V307.732H469.188ZM459.844 309.107V316.982C461.961 316.975 464.156 316.803 466.484 316.311L466.656 317.357C464.188 317.873 461.984 318.045 459.766 318.045H458.641V309.107H459.844ZM482.312 307.732V313.232H484.641V314.264H482.312V321.654H481.094V307.732H482.312ZM478.656 309.092V310.107H473.391V317.139C475.906 317.139 477.688 317.021 479.75 316.639L479.906 317.701C477.734 318.092 475.906 318.17 473.266 318.17H472.172V309.092H478.656ZM486.859 320.451C486.312 320.451 485.844 319.998 485.859 319.436C485.844 318.889 486.312 318.436 486.859 318.436C487.406 318.436 487.859 318.889 487.859 319.436C487.859 319.998 487.406 320.451 486.859 320.451Z" fill="#4EC9C3"/>
<path d="M502.455 297.404H501.393L501.487 294.982L499.424 296.279L498.893 295.357L501.049 294.232L498.893 293.092L499.424 292.17L501.487 293.467L501.393 291.045H502.455L502.362 293.467L504.424 292.17L504.955 293.092L502.815 294.232L504.955 295.357L504.424 296.279L502.362 294.982L502.455 297.404ZM514.924 293.467C514.924 295.92 516.549 298.436 518.518 299.404L517.768 300.389C516.237 299.584 514.955 297.943 514.346 296.014C513.721 298.068 512.409 299.818 510.846 300.654L510.065 299.67C512.096 298.67 513.705 295.998 513.721 293.467V290.936H514.924V293.467ZM521.018 289.732V295.373H523.346V296.436H521.018V303.623H519.799V289.732H521.018ZM536.752 296.607V297.623H524.096V296.607H527.237V294.654C526.127 294.225 525.502 293.514 525.502 292.576C525.502 290.936 527.377 289.998 530.424 289.998C533.44 289.998 535.33 290.936 535.33 292.576C535.33 293.506 534.713 294.217 533.612 294.639V296.607H536.752ZM530.424 298.686C533.409 298.686 535.19 299.545 535.205 301.139C535.19 302.717 533.409 303.592 530.424 303.592C527.409 303.592 525.627 302.717 525.627 301.139C525.627 299.545 527.409 298.686 530.424 298.686ZM530.424 299.623C528.19 299.639 526.862 300.186 526.877 301.139C526.862 302.076 528.19 302.639 530.424 302.639C532.627 302.639 533.971 302.076 533.971 301.139C533.971 300.186 532.627 299.639 530.424 299.623ZM530.424 290.967C528.159 290.967 526.752 291.576 526.768 292.576C526.752 293.592 528.159 294.186 530.424 294.186C532.674 294.186 534.08 293.592 534.08 292.576C534.08 291.576 532.674 290.967 530.424 290.967ZM528.455 296.607H532.393V294.982C531.807 295.084 531.151 295.139 530.424 295.139C529.698 295.139 529.041 295.084 528.455 294.982V296.607ZM540.83 289.967V291.295H547.705V289.967H548.924V294.529H539.612V289.967H540.83ZM540.83 293.576H547.705V292.232H540.83V293.576ZM550.58 295.686V296.701H544.846V298.061H548.955V301.139H540.705V302.498H549.377V303.467H539.487V300.232H547.752V298.998H539.455V298.061H543.627V296.701H537.924V295.686H550.58ZM562.502 289.732V295.389H564.752V296.42H562.502V303.623H561.284V289.732H562.502ZM558.909 291.232C558.909 295.17 557.065 298.748 552.534 300.982L551.846 300.014C555.44 298.225 557.393 295.553 557.674 292.264H552.487V291.232H558.909ZM576.799 293.623V294.639H567.315V290.014H568.534V293.623H576.799ZM578.252 296.264V297.279H565.58V296.264H578.252ZM571.909 298.529C574.893 298.529 576.674 299.436 576.69 301.045C576.674 302.654 574.893 303.561 571.909 303.561C568.909 303.561 567.112 302.654 567.112 301.045C567.112 299.436 568.909 298.529 571.909 298.529ZM571.909 299.498C569.674 299.514 568.346 300.061 568.362 301.045C568.346 302.014 569.674 302.607 571.909 302.607C574.112 302.607 575.455 302.014 575.455 301.045C575.455 300.061 574.112 299.514 571.909 299.498ZM590.268 289.748V294.326H592.362V295.357H590.268V300.154H589.049V289.748H590.268ZM587.721 291.451V292.451H579.44V291.451H582.971V289.748H584.19V291.451H587.721ZM583.58 293.217C585.565 293.217 586.909 294.232 586.924 295.811C586.909 297.373 585.565 298.373 583.58 298.373C581.58 298.373 580.221 297.373 580.237 295.811C580.221 294.232 581.58 293.217 583.58 293.217ZM583.58 294.186C582.268 294.186 581.393 294.826 581.409 295.811C581.393 296.795 582.268 297.42 583.58 297.404C584.877 297.42 585.752 296.795 585.768 295.811C585.752 294.826 584.877 294.186 583.58 294.186ZM590.909 302.295V303.326H581.58V299.326H582.784V302.295H590.909ZM506.182 308.811C508.229 308.826 509.682 310.701 509.698 313.654C509.682 316.607 508.229 318.482 506.182 318.482C504.119 318.482 502.682 316.607 502.682 313.654C502.682 310.701 504.119 308.826 506.182 308.811ZM506.182 309.904C504.807 309.92 503.838 311.389 503.838 313.654C503.838 315.92 504.807 317.389 506.182 317.389C507.573 317.389 508.51 315.92 508.51 313.654C508.51 311.389 507.573 309.92 506.182 309.904ZM513.213 307.732V313.279H515.541V314.342H513.213V321.623H511.994V307.732H513.213ZM527.744 307.732V321.654H526.51V307.732H527.744ZM520.354 308.811C522.416 308.826 523.901 310.701 523.901 313.654C523.901 316.607 522.416 318.482 520.354 318.482C518.276 318.482 516.807 316.607 516.807 313.654C516.807 310.701 518.276 308.826 520.354 308.811ZM520.354 309.904C518.963 309.92 517.994 311.389 517.994 313.654C517.994 315.92 518.963 317.389 520.354 317.389C521.744 317.389 522.713 315.92 522.713 313.654C522.713 311.389 521.744 309.92 520.354 309.904ZM541.573 307.732V321.654H540.338V307.732H541.573ZM537.635 309.061V310.092H532.26V317.139C534.963 317.139 536.744 317.053 538.823 316.686L538.948 317.717C536.791 318.107 534.963 318.186 532.151 318.201H531.026V309.061H537.635ZM555.416 307.732V315.186H554.198V307.732H555.416ZM547.635 315.889V317.576H554.198V315.889H555.416V321.436H546.416V315.889H547.635ZM547.635 320.436H554.198V318.561H547.635V320.436ZM547.916 308.42C550.026 308.404 551.557 309.701 551.557 311.607C551.557 313.498 550.026 314.795 547.916 314.795C545.807 314.795 544.276 313.498 544.276 311.607C544.276 309.701 545.807 308.404 547.916 308.42ZM547.916 309.451C546.494 309.436 545.463 310.342 545.479 311.607C545.463 312.873 546.494 313.779 547.916 313.779C549.323 313.779 550.354 312.873 550.354 311.607C550.354 310.342 549.323 309.436 547.916 309.451ZM569.229 307.732V321.623H568.01V307.732H569.229ZM559.885 309.107V316.982C562.002 316.975 564.198 316.803 566.526 316.311L566.698 317.357C564.229 317.873 562.026 318.045 559.807 318.045H558.682V309.107H559.885ZM582.354 307.732V313.232H584.682V314.264H582.354V321.654H581.135V307.732H582.354ZM578.698 309.092V310.107H573.432V317.139C575.948 317.139 577.729 317.021 579.791 316.639L579.948 317.701C577.776 318.092 575.948 318.17 573.307 318.17H572.213V309.092H578.698ZM586.901 320.451C586.354 320.451 585.885 319.998 585.901 319.436C585.885 318.889 586.354 318.436 586.901 318.436C587.448 318.436 587.901 318.889 587.901 319.436C587.901 319.998 587.448 320.451 586.901 320.451Z" fill="#FF5F5F"/>
<g filter="url(#filter2_d_931_674)">
<rect x="193.193" y="217.926" width="501.76" height="261.026" rx="20" fill="white"/>
</g>
<path d="M368.507 274.25V292.023H365.987V274.25H368.507ZM364.073 275.891V277.883H362.491V285.598C363.272 285.549 364.044 285.471 364.796 285.383L364.913 287.238C361.124 287.863 357.022 287.922 353.761 287.941L353.526 285.91L355.577 285.891V277.883H354.015V275.891H364.073ZM357.999 285.832L360.069 285.754V277.883H357.999V285.832ZM385.343 282.473V284.465H372.765V275.734H385.206V277.746H375.226V282.473H385.343ZM387.12 287.805V289.855H370.851V287.805H387.12ZM391.124 275.363V277.902H393.546V275.363H395.851V283.977H388.761V275.363H391.124ZM391.124 282.004H393.546V279.797H391.124V282.004ZM403.409 274.27V284.973H401.046V280.617H399.562V284.875H397.237V274.582H399.562V278.605H401.046V274.27H403.409ZM403.409 285.773V292.023H400.929V287.766H391.124V285.773H403.409ZM410.382 275.012C412.657 274.992 414.464 276.291 414.952 278.195H417.921V274.25H420.401V283.801H417.921V280.188H414.972C414.503 282.141 412.677 283.469 410.382 283.469C407.647 283.469 405.636 281.691 405.655 279.211C405.636 276.77 407.647 274.992 410.382 275.012ZM410.382 277.082C408.995 277.062 407.999 277.883 408.019 279.211C407.999 280.539 408.995 281.379 410.382 281.379C411.729 281.379 412.706 280.539 412.706 279.211C412.706 277.883 411.729 277.062 410.382 277.082ZM411.007 284.582V286.301H417.921V284.582H420.401V291.828H408.546V284.582H411.007ZM411.007 289.816H417.921V288.215H411.007V289.816ZM442.257 274.25V292.023H439.776V274.25H442.257ZM427.394 287.004C428.751 286.994 430.304 286.994 431.925 286.945V285.441C429.972 285.1 428.702 283.889 428.722 282.219C428.702 280.227 430.519 278.879 433.136 278.879C435.772 278.879 437.608 280.227 437.608 282.219C437.608 283.879 436.339 285.09 434.386 285.441V286.867C435.87 286.799 437.374 286.682 438.8 286.496L438.976 288.332C435.089 288.996 430.89 289.035 427.726 289.035L427.394 287.004ZM438.546 276.223V278.176H427.745V276.223H431.925V274.328H434.405V276.223H438.546ZM433.136 280.773C431.925 280.773 431.065 281.301 431.085 282.219C431.065 283.156 431.925 283.664 433.136 283.664C434.386 283.664 435.226 283.156 435.226 282.219C435.226 281.301 434.386 280.773 433.136 280.773ZM459.659 274.27V287.688H457.159V286.281H453.761V284.582H457.159V274.27H459.659ZM460.05 289.719V291.711H446.808V286.398H449.288V284.035C447.696 284.104 446.183 284.113 444.835 284.113L444.542 282.141C447.804 282.121 452.198 282.082 455.948 281.613L456.085 283.391C454.679 283.625 453.224 283.791 451.788 283.898V287.277H449.288V289.719H460.05ZM450.323 274.875C452.901 274.855 454.757 276.164 454.757 278.059C454.757 279.953 452.901 281.184 450.323 281.184C447.687 281.184 445.851 279.953 445.851 278.059C445.851 276.164 447.667 274.855 450.323 274.875ZM450.323 276.691C449.054 276.691 448.194 277.18 448.214 278.059C448.194 278.918 449.054 279.387 450.323 279.387C451.515 279.387 452.374 278.918 452.394 278.059C452.374 277.18 451.515 276.691 450.323 276.691ZM475.909 274.25V281.066H478.429V283.117H475.909V291.984H473.409V274.25H475.909ZM471.163 276.066C471.144 281.379 469.073 285.988 463.097 288.918L461.69 287.004C465.899 284.895 468.155 282.062 468.624 278.098H462.706V276.066H471.163ZM494.054 274.25V283.801H491.554V274.25H494.054ZM484.62 284.582V286.242H491.573V284.582H494.054V291.828H482.159V284.582H484.62ZM484.62 289.816H491.573V288.176H484.62V289.816ZM484.308 274.992C487.081 274.973 489.171 276.711 489.171 279.211C489.171 281.633 487.081 283.371 484.308 283.371C481.534 283.371 479.444 281.633 479.444 279.211C479.444 276.711 481.534 274.973 484.308 274.992ZM484.308 277.062C482.882 277.062 481.866 277.863 481.886 279.211C481.866 280.539 482.882 281.32 484.308 281.32C485.694 281.32 486.71 280.539 486.71 279.211C486.71 277.863 485.694 277.062 484.308 277.062ZM506.417 274.973C509.015 274.973 510.89 276.438 510.89 278.586C510.89 280.324 509.61 281.652 507.706 282.062V283.352C509.093 283.273 510.489 283.146 511.788 282.961L511.983 284.777C508.331 285.422 504.249 285.5 501.28 285.5L501.026 283.527C502.257 283.527 503.692 283.518 505.206 283.469V282.082C503.243 281.691 501.925 280.354 501.944 278.586C501.925 276.438 503.8 274.973 506.417 274.973ZM506.417 276.848C505.147 276.867 504.249 277.473 504.269 278.586C504.249 279.66 505.147 280.305 506.417 280.305C507.687 280.305 508.546 279.66 508.546 278.586C508.546 277.473 507.687 276.867 506.417 276.848ZM515.284 274.27V279.855H517.55V281.926H515.284V287.824H512.784V274.27H515.284ZM515.89 289.699V291.691H503.37V286.633H505.87V289.699H515.89ZM534.62 288V290.051H518.351V288H522.511V285.285H520.226V279.309H530.284V277.395H520.206V275.402H532.745V281.301H522.726V283.273H533.155V285.285H530.636V288H534.62ZM524.933 288H528.194V285.285H524.933V288Z" fill="black"/>
<path d="M293.393 312.95V326.104H292.001V318.81H289.292V317.667H292.001V312.95H293.393ZM287.124 316.642C287.124 318.868 288.515 321.256 290.537 322.149L289.702 323.263C288.186 322.53 287.014 321 286.435 319.205C285.849 321.117 284.655 322.75 283.139 323.526L282.29 322.442C284.296 321.49 285.703 319 285.717 316.642V315.411H282.817V314.269H290.039V315.411H287.124V316.642ZM306.254 312.95V326.075H304.863V312.95H306.254ZM295.473 322.413C297.963 322.413 301.215 322.413 304.057 322.047L304.16 323.072C301.201 323.57 298.081 323.6 295.664 323.585L295.473 322.413ZM303.764 314.664V315.777H295.751V314.664H299.062V313.097H300.468V314.664H303.764ZM299.765 316.437C301.655 316.437 302.944 317.403 302.944 318.927C302.944 320.392 301.655 321.402 299.765 321.388C297.89 321.402 296.586 320.392 296.601 318.927C296.586 317.403 297.89 316.437 299.765 316.437ZM299.765 317.506C298.667 317.506 297.89 318.077 297.905 318.927C297.89 319.762 298.667 320.318 299.765 320.318C300.864 320.318 301.611 319.762 301.625 318.927C301.611 318.077 300.864 317.506 299.765 317.506ZM322.939 312.95V326.075H321.533V312.95H322.939ZM319.819 314.298V315.44H318.457V321.534C319.138 321.49 319.812 321.432 320.463 321.358L320.537 322.384C317.695 322.838 314.575 322.882 312.158 322.896L311.997 321.739L313.725 321.725V315.44H312.348V314.298H319.819ZM315.073 321.695C315.732 321.681 316.413 321.659 317.094 321.622V315.44H315.073V321.695ZM335.625 319.176V320.318H326.484V314.122H335.507V315.265H327.861V319.176H335.625ZM337.001 323.189V324.347H324.99V323.189H337.001ZM339.829 313.785V315.792H342.363V313.785H343.652V319.981H338.51V313.785H339.829ZM339.829 318.854H342.363V316.876H339.829V318.854ZM349.145 312.965V320.846H347.827V317.447H346.289V320.758H345V313.199H346.289V316.305H347.827V312.965H349.145ZM349.145 321.578V326.075H347.768V322.706H340.224V321.578H349.145ZM354.55 313.551C356.279 313.536 357.612 314.54 357.905 316.012H360.468V312.95H361.86V319.996H360.468V317.154H357.919C357.634 318.663 356.293 319.674 354.55 319.674C352.543 319.674 351.108 318.414 351.108 316.598C351.108 314.811 352.543 313.536 354.55 313.551ZM354.55 314.708C353.305 314.708 352.441 315.47 352.441 316.598C352.441 317.726 353.305 318.502 354.55 318.502C355.766 318.502 356.63 317.726 356.63 316.598C356.63 315.47 355.766 314.708 354.55 314.708ZM354.682 320.626V322.149H360.468V320.626H361.86V325.914H353.305V320.626H354.682ZM354.682 324.771H360.468V323.248H354.682V324.771ZM368.159 313.888C370.239 313.873 371.718 315.162 371.733 317.008C371.718 318.854 370.239 320.143 368.159 320.143C366.093 320.143 364.57 318.854 364.584 317.008C364.57 315.162 366.093 313.873 368.159 313.888ZM368.159 315.089C366.884 315.089 365.947 315.851 365.961 317.008C365.947 318.165 366.884 318.927 368.159 318.927C369.433 318.927 370.371 318.165 370.371 317.008C370.371 315.851 369.433 315.089 368.159 315.089ZM374.736 312.95V326.104H373.344V312.95H374.736ZM363.955 322.12C366.342 322.12 369.653 322.091 372.524 321.681L372.626 322.691C369.653 323.263 366.474 323.277 364.13 323.277L363.955 322.12ZM390.732 312.95V318.18H392.768V319.337H390.732V326.061H389.34V312.95H390.732ZM387.304 314.327C387.29 318.121 385.62 321.505 381.298 323.644L380.522 322.56C383.811 320.919 385.598 318.546 385.883 315.484H381.181V314.327H387.304ZM404.37 313.463V314.591H400.385C400.524 315.895 402.407 316.986 404.824 317.242L404.311 318.341C402.048 318.077 400.173 317.118 399.462 315.719C398.73 317.118 396.862 318.077 394.599 318.341L394.101 317.242C396.496 316.986 398.371 315.887 398.525 314.591H394.57V313.463H404.37ZM405.468 319.483V320.611H393.471V319.483H398.759V317.579H400.136V319.483H405.468ZM403.974 321.783V326.075H402.568V322.896H394.804V321.783H403.974ZM417.304 312.95V326.104H415.913V312.95H417.304ZM410.288 313.932C412.236 313.932 413.671 315.719 413.671 318.531C413.671 321.358 412.236 323.146 410.288 323.146C408.31 323.146 406.889 321.358 406.889 318.531C406.889 315.719 408.31 313.932 410.288 313.932ZM410.288 315.177C409.072 315.177 408.237 316.466 408.237 318.531C408.237 320.611 409.072 321.9 410.288 321.9C411.489 321.9 412.324 320.611 412.324 318.531C412.324 316.466 411.489 315.177 410.288 315.177ZM430.883 318.502V319.645H428.115V322.076C429.331 322.018 430.554 321.937 431.704 321.812L431.806 322.838C428.92 323.277 425.8 323.307 423.31 323.321L423.134 322.164C424.24 322.164 425.463 322.157 426.723 322.12V319.645H424.086V314.166H430.825V315.294H425.463V318.502H430.883ZM433.916 312.95V326.104H432.524V312.95H433.916ZM446.909 312.965V322.574H445.517V312.965H446.909ZM447.304 324.669V325.797H438.325V321.666H439.731V324.669H447.304ZM440.8 314.986C440.786 316.905 442.016 318.663 444.038 319.366L443.32 320.479C441.804 319.916 440.683 318.802 440.097 317.374C439.519 318.897 438.383 320.121 436.845 320.714L436.098 319.615C438.164 318.854 439.379 316.964 439.379 314.986V313.683H440.8V314.986ZM463.593 312.965V321.783H462.202V317.726H459.521V316.583H462.202V312.965H463.593ZM459.433 313.976C459.433 317.403 457.309 319.806 453.457 321.021L452.841 319.923C455.925 318.993 457.683 317.293 457.954 315.104H453.515V313.976H459.433ZM459.96 321.241C459.96 323.014 461.821 324.479 464.282 324.903L463.71 326.002C461.718 325.65 460.056 324.647 459.272 323.204C458.466 324.654 456.782 325.658 454.775 326.031L454.233 324.918C456.708 324.522 458.569 323.028 458.583 321.241V320.699H459.96V321.241ZM471.591 313.17C474.55 313.17 476.279 313.961 476.279 315.426C476.279 316.891 474.55 317.696 471.591 317.696C468.632 317.696 466.904 316.891 466.904 315.426C466.904 313.961 468.632 313.17 471.591 313.17ZM471.591 314.195C469.497 314.195 468.339 314.649 468.354 315.426C468.339 316.231 469.497 316.656 471.591 316.656C473.686 316.656 474.843 316.231 474.843 315.426C474.843 314.649 473.686 314.195 471.591 314.195ZM477.583 318.502V319.615H465.615V318.502H477.583ZM476.074 320.626V323.702H468.427V324.874H476.44V325.943H467.065V322.691H474.697V321.666H467.05V320.626H476.074ZM487.104 315.689C487.104 317.389 488.364 318.985 490.385 319.63L489.667 320.714C488.159 320.216 487.016 319.183 486.43 317.872C485.837 319.3 484.672 320.428 483.105 320.978L482.387 319.879C484.423 319.19 485.683 317.491 485.698 315.689V315.118H482.753V313.99H489.99V315.118H487.104V315.689ZM493.125 312.965V322.545H491.733V312.965H493.125ZM493.52 324.669V325.797H484.541V321.637H485.947V324.669H493.52ZM506.088 312.965V320.392H504.697V312.965H506.088ZM506.088 321.095V325.914H497.46V321.095H506.088ZM498.837 322.208V324.786H504.726V322.208H498.837ZM499.98 314.737C499.965 316.51 501.24 318.106 503.232 318.78L502.543 319.85C501.02 319.344 499.877 318.304 499.277 316.949C498.691 318.392 497.526 319.542 495.952 320.099L495.263 319C497.314 318.312 498.559 316.568 498.559 314.737V313.463H499.98V314.737ZM514.145 313.741C516.899 313.741 518.994 315.191 518.994 317.403C518.994 319.615 516.899 321.08 514.145 321.065C511.391 321.08 509.311 319.615 509.311 317.403C509.311 315.191 511.391 313.741 514.145 313.741ZM514.145 314.869C512.138 314.854 510.629 315.88 510.644 317.403C510.629 318.941 512.138 319.923 514.145 319.923C516.152 319.923 517.646 318.941 517.646 317.403C517.646 315.88 516.152 314.854 514.145 314.869ZM520.18 323.219V324.376H508.168V323.219H520.18ZM533.144 323.336V324.508H521.132V323.336H526.42V321.036H522.597V316.861H530.302V315.016H522.568V313.873H531.679V317.975H523.974V319.894H531.987V321.036H527.797V323.336H533.144ZM548.085 312.95V317.447H549.96V318.604H548.085V323.204H546.694V312.95H548.085ZM548.554 324.669V325.797H539.604V322.516H540.996V324.669H548.554ZM537.67 320.655C538.681 320.655 539.86 320.648 541.098 320.597V319.688C539.604 319.527 538.652 318.802 538.667 317.726C538.652 316.451 539.897 315.689 541.787 315.704C543.662 315.689 544.907 316.451 544.907 317.726C544.907 318.795 543.969 319.52 542.49 319.688V320.538C543.662 320.472 544.848 320.37 545.947 320.201L546.064 321.183C543.266 321.71 540.102 321.754 537.817 321.769L537.67 320.655ZM545.581 314.166V315.191H538.007V314.166H541.098V312.906H542.49V314.166H545.581ZM541.787 316.656C540.659 316.656 539.985 317.052 539.985 317.726C539.985 318.37 540.659 318.766 541.787 318.766C542.9 318.766 543.574 318.37 543.574 317.726C543.574 317.052 542.9 316.656 541.787 316.656ZM554.355 313.712C555.446 313.705 556.376 314.115 556.992 314.796H560.273V312.95H561.665V320.699H560.273V318.927H556.977C556.369 319.601 555.439 320.003 554.355 319.996C552.377 320.011 550.913 318.692 550.913 316.861C550.913 315.016 552.377 313.697 554.355 313.712ZM554.355 314.913C553.125 314.898 552.246 315.689 552.246 316.861C552.246 318.004 553.125 318.824 554.355 318.81C555.556 318.824 556.435 318.004 556.435 316.861C556.435 315.689 555.556 314.898 554.355 314.913ZM557.27 320.992C559.995 320.992 561.708 321.915 561.708 323.526C561.708 325.123 559.995 326.061 557.27 326.046C554.531 326.061 552.817 325.123 552.832 323.526C552.817 321.915 554.531 320.992 557.27 320.992ZM557.27 322.062C555.351 322.062 554.179 322.589 554.194 323.526C554.179 324.435 555.351 324.947 557.27 324.947C559.204 324.947 560.346 324.435 560.346 323.526C560.346 322.589 559.204 322.062 557.27 322.062ZM557.622 315.909C557.717 316.202 557.768 316.524 557.768 316.861C557.768 317.184 557.717 317.499 557.636 317.784H560.273V315.909H557.622ZM573.999 312.95V316.246H575.903V317.418H573.999V320.597H572.607V312.95H573.999ZM566.982 321.139V322.413H572.607V321.139H573.999V325.914H565.605V321.139H566.982ZM566.982 324.801H572.607V323.497H566.982V324.801ZM571.523 314.239V315.353H563.701V314.239H566.923V312.833H568.315V314.239H571.523ZM567.612 315.895C569.501 315.895 570.791 316.788 570.791 318.194C570.791 319.586 569.501 320.509 567.612 320.494C565.693 320.509 564.418 319.586 564.418 318.194C564.418 316.788 565.693 315.895 567.612 315.895ZM567.612 316.935C566.499 316.92 565.751 317.433 565.766 318.194C565.751 318.971 566.499 319.469 567.612 319.469C568.725 319.469 569.472 318.971 569.487 318.194C569.472 317.433 568.725 316.92 567.612 316.935ZM587.548 312.95V326.075H586.157V312.95H587.548ZM578.833 314.225V321.534C580.744 321.52 582.758 321.366 584.868 320.934L585.058 322.105C582.729 322.574 580.62 322.735 578.554 322.735H577.456V314.225H578.833ZM599.838 312.95V318.033H601.948V319.176H599.838V326.104H598.447V312.95H599.838ZM596.308 314.21V315.338H591.562V321.681C593.767 321.673 595.422 321.578 597.29 321.241L597.465 322.413C595.415 322.779 593.671 322.853 591.225 322.838H590.17V314.21H596.308ZM604.995 314.225L604.863 321.769H603.413L603.281 314.225H604.995ZM604.145 324.933C603.574 324.933 603.09 324.464 603.105 323.893C603.09 323.321 603.574 322.853 604.145 322.853C604.702 322.853 605.185 323.321 605.185 323.893C605.185 324.464 604.702 324.933 604.145 324.933Z" fill="black"/>
<rect x="193.193" y="415.262" width="501.761" height="63.6909" rx="20" fill="#8071FC"/>
<path d="M422.984 452.416V449.776H418.044V443.636H428.024V441.776H418.024V439.676H430.664V445.716H420.684V447.656H431.064V449.776H425.644V452.416H432.484V454.556H416.184V452.416H422.984ZM447.964 440.156V442.336C447.964 444.003 447.924 445.456 447.844 446.696C447.778 447.923 447.604 449.356 447.324 450.996L444.664 450.756C444.944 449.236 445.118 447.869 445.184 446.656C445.264 445.429 445.304 443.989 445.304 442.336V442.256H435.324V440.156H447.964ZM449.944 452.056V454.216H433.664V452.056H449.944ZM466.105 438.556V451.456H463.445V438.556H466.105ZM456.745 450.176V454.116H466.545V456.236H454.085V450.176H456.745ZM456.285 439.676C457.205 439.676 458.038 439.876 458.785 440.276C459.532 440.663 460.118 441.203 460.545 441.896C460.985 442.589 461.205 443.376 461.205 444.256C461.205 445.123 460.985 445.909 460.545 446.616C460.118 447.309 459.532 447.856 458.785 448.256C458.038 448.643 457.205 448.836 456.285 448.836C455.378 448.836 454.552 448.636 453.805 448.236C453.058 447.836 452.465 447.289 452.025 446.596C451.598 445.903 451.385 445.123 451.385 444.256C451.385 443.376 451.598 442.589 452.025 441.896C452.465 441.203 453.058 440.663 453.805 440.276C454.552 439.876 455.378 439.676 456.285 439.676ZM456.285 441.976C455.618 441.976 455.065 442.183 454.625 442.596C454.198 442.996 453.985 443.549 453.985 444.256C453.985 444.949 454.198 445.503 454.625 445.916C455.065 446.316 455.618 446.516 456.285 446.516C456.952 446.516 457.505 446.316 457.945 445.916C458.385 445.503 458.605 444.949 458.605 444.256C458.605 443.549 458.385 442.996 457.945 442.596C457.505 442.183 456.952 441.976 456.285 441.976Z" fill="#F1F5F9"/>
<path d="M373.292 350.146V352.412H374.591V353.057H373.292V355.332H372.521V350.146H373.292ZM370.499 355.498C372.267 355.498 373.36 356.113 373.36 357.148C373.36 358.203 372.267 358.809 370.499 358.809C368.722 358.809 367.618 358.203 367.618 357.148C367.618 356.113 368.722 355.498 370.499 355.498ZM370.499 356.133C369.19 356.123 368.37 356.514 368.37 357.148C368.37 357.793 369.19 358.193 370.499 358.193C371.798 358.193 372.618 357.793 372.618 357.148C372.618 356.514 371.798 356.123 370.499 356.133ZM370.753 350.811V351.445H367.647V353.994C369.405 353.984 370.421 353.931 371.583 353.691L371.661 354.326C370.45 354.57 369.405 354.619 367.569 354.619H366.896V350.811H370.753ZM382.306 350.156V356.523H381.544V350.156H382.306ZM382.579 357.998V358.643H376.7V355.938H377.462V357.998H382.579ZM378.214 351.514C378.204 352.832 379.112 354.023 380.401 354.492L380.001 355.107C378.995 354.722 378.214 353.94 377.833 352.939C377.447 354.004 376.656 354.858 375.646 355.264L375.226 354.668C376.544 354.16 377.433 352.881 377.433 351.514V350.645H378.214V351.514ZM386.622 350.781C387.989 350.781 388.956 351.611 388.956 352.822C388.956 354.033 387.989 354.863 386.622 354.863C385.255 354.863 384.269 354.033 384.278 352.822C384.269 351.611 385.255 350.781 386.622 350.781ZM386.622 351.455C385.694 351.455 385.021 352.012 385.03 352.822C385.021 353.633 385.694 354.189 386.622 354.189C387.54 354.189 388.204 353.633 388.204 352.822C388.204 352.012 387.54 351.455 386.622 351.455ZM390.899 350.146V358.848H390.138V350.146H390.899ZM383.829 356.279C385.431 356.279 387.638 356.27 389.562 355.986L389.62 356.553C387.638 356.924 385.499 356.934 383.937 356.934L383.829 356.279ZM398.507 350.576V350.811C398.507 351.265 398.507 352.236 398.175 353.564H400.88C401.129 352.51 401.173 351.733 401.183 351.201H399.161V350.576H401.925V350.898C401.925 351.416 401.925 352.314 401.661 353.564H402.872V354.189H399.249V355.664H401.856V358.711H395.919V355.664H398.497V354.189H394.933V353.564H397.413C397.677 352.515 397.735 351.729 397.755 351.201H395.704V350.576H398.507ZM396.671 356.279V358.086H401.095V356.279H396.671ZM407.53 350.303C409.464 350.303 410.597 350.83 410.597 351.797C410.597 352.783 409.464 353.311 407.53 353.32C405.597 353.311 404.454 352.783 404.454 351.797C404.454 350.83 405.597 350.303 407.53 350.303ZM407.53 350.879C406.085 350.879 405.245 351.23 405.255 351.797C405.245 352.402 406.085 352.734 407.53 352.734C408.966 352.734 409.815 352.402 409.815 351.797C409.815 351.23 408.966 350.879 407.53 350.879ZM411.485 353.906V354.531H403.575V353.906H411.485ZM410.47 355.283V357.227H405.313V358.125H410.733V358.73H404.552V356.66H409.718V355.869H404.532V355.283H410.47ZM422.804 351.67V352.305H421.515V353.506H422.804V354.15H421.515V355.752H420.753V350.146H421.515V351.67H422.804ZM418.771 355.811C420.538 355.811 421.612 356.367 421.612 357.314C421.612 358.262 420.538 358.809 418.771 358.809C417.003 358.809 415.919 358.262 415.929 357.314C415.919 356.367 417.003 355.811 418.771 355.811ZM418.771 356.416C417.472 356.416 416.681 356.738 416.69 357.314C416.681 357.881 417.472 358.213 418.771 358.213C420.069 358.213 420.851 357.881 420.851 357.314C420.851 356.738 420.069 356.416 418.771 356.416ZM419.923 351.143V351.748H414.747V351.143H416.954V350.078H417.716V351.143H419.923ZM417.335 352.197C418.585 352.197 419.415 352.803 419.425 353.73C419.415 354.668 418.585 355.264 417.335 355.264C416.075 355.264 415.235 354.668 415.245 353.73C415.235 352.803 416.075 352.197 417.335 352.197ZM417.335 352.773C416.515 352.783 415.968 353.164 415.978 353.73C415.968 354.297 416.515 354.668 417.335 354.668C418.146 354.668 418.692 354.297 418.702 353.73C418.692 353.164 418.146 352.783 417.335 352.773ZM430.157 350.156V353.018H431.466V353.662H430.157V356.66H429.396V350.156H430.157ZM428.565 351.221V351.846H423.39V351.221H425.597V350.156H426.358V351.221H428.565ZM425.978 352.324C427.218 352.324 428.058 352.959 428.067 353.945C428.058 354.922 427.218 355.547 425.978 355.547C424.728 355.547 423.878 354.922 423.888 353.945C423.878 352.959 424.728 352.324 425.978 352.324ZM425.978 352.93C425.157 352.93 424.61 353.33 424.62 353.945C424.61 354.561 425.157 354.951 425.978 354.941C426.788 354.951 427.335 354.561 427.345 353.945C427.335 353.33 426.788 352.93 425.978 352.93ZM430.558 357.998V358.643H424.728V356.143H425.479V357.998H430.558ZM437.481 352.012C437.481 353.086 438.36 354.082 439.63 354.482L439.269 355.078C438.277 354.761 437.506 354.097 437.12 353.242C436.749 354.199 435.963 354.951 434.933 355.312L434.562 354.697C435.831 354.277 436.729 353.203 436.729 352.012V351.807H434.767V351.182H436.729V350.117H437.501V351.182H439.444V351.807H437.481V352.012ZM441.72 350.146V356.172H440.948V353.262H439.181V352.617H440.948V350.146H441.72ZM439.308 355.762C439.298 356.992 440.714 357.93 442.267 358.184L441.944 358.789C440.636 358.555 439.425 357.876 438.907 356.855C438.385 357.866 437.174 358.555 435.86 358.789L435.577 358.184C437.091 357.92 438.517 356.963 438.526 355.762V355.576H439.308V355.762ZM452.462 350.146V352.734H453.78V353.379H452.462V356.436H451.7V350.146H452.462ZM449.952 350.898V351.543H446.847V354.248C448.59 354.248 449.581 354.204 450.743 353.965L450.841 354.6C449.62 354.834 448.585 354.893 446.759 354.893H446.085V350.898H449.952ZM452.862 357.998V358.643H447.032V355.801H447.784V357.998H452.862ZM461.749 350.146V358.828H461.017V350.146H461.749ZM459.991 350.381V358.389H459.259V355.381H457.647V354.746H459.259V353.203H457.794C457.369 354.673 456.417 355.972 454.776 356.953L454.308 356.396C456.197 355.278 457.145 353.711 457.296 351.895H454.698V351.26H458.058C458.058 351.704 458.019 352.144 457.94 352.568H459.259V350.381H459.991ZM470.899 354.18V354.785H462.95V354.18H470.899ZM469.903 355.479V357.324H464.688V358.154H470.187V358.711H463.917V356.797H469.142V356.055H463.907V355.479H469.903ZM469.874 350.41V352.207H464.747V352.969H470.03V353.525H463.985V351.68H469.103V350.967H463.956V350.41H469.874ZM482.022 354.521V355.146H478.438V356.143H481.046V358.799H480.274V356.768H474.991V356.143H477.687V355.146H474.112V354.521H482.022ZM478.438 350.107V351.006H481.222V351.621H478.487C478.541 352.607 479.913 353.286 481.554 353.447L481.3 354.033C479.869 353.877 478.59 353.354 478.067 352.471C477.54 353.354 476.261 353.877 474.835 354.033L474.581 353.447C476.212 353.286 477.584 352.607 477.647 351.621H474.933V351.006H477.687V350.107H478.438ZM489.474 350.146V353.73H490.929V354.365H489.474V358.828H488.712V350.146H489.474ZM487.872 351.543V352.178H482.706V351.543H484.942V350.254H485.704V351.543H487.872ZM485.333 352.9C486.563 352.9 487.452 353.721 487.462 354.893C487.452 356.064 486.563 356.885 485.333 356.885C484.093 356.885 483.194 356.064 483.204 354.893C483.194 353.721 484.093 352.9 485.333 352.9ZM485.333 353.545C484.522 353.545 483.927 354.111 483.937 354.893C483.927 355.684 484.522 356.24 485.333 356.23C486.134 356.24 486.72 355.684 486.729 354.893C486.72 354.111 486.134 353.545 485.333 353.545ZM498.185 350.146V352.373H499.493V353.027H498.185V355.195H497.423V350.146H498.185ZM493.458 355.576V356.504H497.423V355.576H498.185V358.711H492.696V355.576H493.458ZM493.458 358.096H497.423V357.109H493.458V358.096ZM496.593 351.045V351.68H491.417V351.045H493.624V350.068H494.386V351.045H496.593ZM494.005 352.08C495.255 352.08 496.085 352.676 496.095 353.604C496.085 354.531 495.255 355.127 494.005 355.127C492.745 355.127 491.905 354.531 491.915 353.604C491.905 352.676 492.745 352.08 494.005 352.08ZM494.005 352.676C493.185 352.666 492.638 353.047 492.647 353.604C492.638 354.17 493.185 354.541 494.005 354.541C494.815 354.541 495.362 354.17 495.372 353.604C495.362 353.047 494.815 352.666 494.005 352.676ZM507.198 350.146V358.828H506.437V350.146H507.198ZM501.358 351.006V355.928C502.682 355.923 504.054 355.815 505.509 355.508L505.616 356.162C504.073 356.484 502.696 356.592 501.31 356.592H500.606V351.006H501.358ZM515.401 350.146V353.584H516.856V354.229H515.401V358.848H514.64V350.146H515.401ZM513.116 350.996V351.631H509.825V356.025C511.397 356.025 512.511 355.952 513.8 355.713L513.897 356.377C512.54 356.621 511.397 356.67 509.747 356.67H509.063V350.996H513.116ZM518.243 358.096C517.901 358.096 517.608 357.812 517.618 357.461C517.608 357.119 517.901 356.836 518.243 356.836C518.585 356.836 518.868 357.119 518.868 357.461C518.868 357.812 518.585 358.096 518.243 358.096ZM364.02 374.037H363.102L365.689 366.967H366.617L369.205 374.037H368.277L367.574 372.045H364.732L364.02 374.037ZM364.996 371.273H367.301L366.178 368.109H366.119L364.996 371.273ZM371.041 366.967V374.037H370.162V366.967H371.041ZM379.078 366.908V367.68H381.109V366.156H381.881V372.494H381.109V370.18H379.078V370.961H375.094V366.908H379.078ZM375.855 367.543V370.346H378.326V367.543H375.855ZM382.076 373.998V374.643H376.266V371.928H377.037V373.998H382.076ZM379.078 369.545H381.109V368.324H379.078V369.545ZM390.514 366.146V370.863H389.752V368.9H387.994V368.256H389.752V366.146H390.514ZM385.699 371.283V372.367H389.752V371.283H390.514V374.711H384.928V371.283H385.699ZM385.699 374.086H389.752V372.982H385.699V374.086ZM386.344 367.562C386.344 368.676 387.213 369.77 388.482 370.209L388.082 370.805C387.101 370.448 386.344 369.721 385.973 368.822C385.597 369.828 384.796 370.634 383.766 371.01L383.365 370.404C384.645 369.945 385.572 368.793 385.572 367.562V367.309H383.609V366.674H388.287V367.309H386.344V367.562ZM401.676 366.156V372.572H400.904V370.229H398.658C398.258 370.741 397.613 371.049 396.871 371.049C395.572 371.049 394.615 370.15 394.615 368.881C394.615 367.611 395.572 366.713 396.871 366.703C397.608 366.708 398.238 367.011 398.648 367.514H400.904V366.156H401.676ZM401.92 373.998V374.643H396.1V371.898H396.871V373.998H401.92ZM396.871 367.387C395.982 367.396 395.348 368.012 395.348 368.881C395.348 369.75 395.982 370.365 396.871 370.365C397.721 370.365 398.375 369.75 398.375 368.881C398.375 368.012 397.721 367.396 396.871 367.387ZM399 368.148C399.073 368.373 399.117 368.617 399.117 368.881C399.117 369.135 399.073 369.374 399 369.594H400.904V368.148H399ZM404.889 371.361V372.377H409.225V371.361H409.996V374.711H404.127V371.361H404.889ZM404.889 374.096H409.225V372.982H404.889V374.096ZM411.031 370.111V370.746H403.121V370.111H411.031ZM407.477 366.654C407.477 367.729 409.059 368.686 410.582 368.881L410.299 369.496C408.951 369.296 407.633 368.607 407.086 367.631C406.529 368.612 405.201 369.296 403.863 369.496L403.57 368.881C405.113 368.676 406.686 367.758 406.686 366.654V366.244H407.477V366.654ZM415.719 366.713C417.535 366.713 418.893 367.66 418.893 369.096C418.893 370.541 417.535 371.488 415.719 371.479C413.902 371.488 412.545 370.541 412.545 369.096C412.545 367.66 413.902 366.713 415.719 366.713ZM415.719 367.338C414.322 367.328 413.268 368.061 413.277 369.096C413.268 370.15 414.322 370.854 415.719 370.854C417.105 370.854 418.15 370.15 418.15 369.096C418.15 368.061 417.105 367.328 415.719 367.338ZM419.713 373.031V373.676H411.764V373.031H419.713ZM428.355 373.109V373.754H420.406V373.109H423.98V371.469H421.402V368.793H426.598V367.426H421.383V366.791H427.35V369.418H422.164V370.834H427.555V371.469H424.732V373.109H428.355ZM434.547 367.514C434.537 368.754 435.416 369.848 436.695 370.277L436.266 370.873C435.309 370.512 434.557 369.809 434.186 368.891C433.81 369.931 433.014 370.741 431.969 371.137L431.549 370.512C432.887 370.043 433.775 368.891 433.785 367.543V366.645H434.547V367.514ZM438.756 366.146V371.293H437.984V368.646H436.051V368.012H437.984V366.146H438.756ZM435.875 371.547C437.682 371.547 438.785 372.143 438.785 373.188C438.785 374.223 437.682 374.809 435.875 374.809C434.068 374.809 432.965 374.223 432.965 373.188C432.965 372.143 434.068 371.547 435.875 371.547ZM435.875 372.152C434.547 372.152 433.717 372.543 433.727 373.188C433.717 373.812 434.547 374.193 435.875 374.193C437.203 374.193 438.023 373.812 438.023 373.188C438.023 372.543 437.203 372.152 435.875 372.152ZM444.127 371.635C445.992 371.635 447.174 372.221 447.174 373.227C447.174 374.223 445.992 374.809 444.127 374.809C442.271 374.809 441.09 374.223 441.09 373.227C441.09 372.221 442.271 371.635 444.127 371.635ZM444.127 372.221C442.74 372.23 441.842 372.611 441.852 373.227C441.842 373.832 442.74 374.203 444.127 374.203C445.514 374.203 446.402 373.832 446.412 373.227C446.402 372.611 445.514 372.23 444.127 372.221ZM447.105 366.596V367.328C447.105 368.031 447.105 368.734 446.861 369.633L446.109 369.545C446.344 368.646 446.344 368.012 446.344 367.328V367.221H441.148V366.596H447.105ZM448.111 370.199V370.824H440.211V370.199H443.482V368.52H444.234V370.199H448.111ZM452.799 366.303C454.732 366.303 455.865 366.83 455.865 367.797C455.865 368.783 454.732 369.311 452.799 369.32C450.865 369.311 449.723 368.783 449.723 367.797C449.723 366.83 450.865 366.303 452.799 366.303ZM452.799 366.879C451.354 366.879 450.514 367.23 450.523 367.797C450.514 368.402 451.354 368.734 452.799 368.734C454.234 368.734 455.084 368.402 455.084 367.797C455.084 367.23 454.234 366.879 452.799 366.879ZM456.754 369.906V370.531H448.844V369.906H456.754ZM455.738 371.283V373.227H450.582V374.125H456.002V374.73H449.82V372.66H454.986V371.869H449.801V371.283H455.738ZM468.072 367.67V368.305H466.783V369.506H468.072V370.15H466.783V371.752H466.021V366.146H466.783V367.67H468.072ZM464.039 371.811C465.807 371.811 466.881 372.367 466.881 373.314C466.881 374.262 465.807 374.809 464.039 374.809C462.271 374.809 461.188 374.262 461.197 373.314C461.188 372.367 462.271 371.811 464.039 371.811ZM464.039 372.416C462.74 372.416 461.949 372.738 461.959 373.314C461.949 373.881 462.74 374.213 464.039 374.213C465.338 374.213 466.119 373.881 466.119 373.314C466.119 372.738 465.338 372.416 464.039 372.416ZM465.191 367.143V367.748H460.016V367.143H462.223V366.078H462.984V367.143H465.191ZM462.604 368.197C463.854 368.197 464.684 368.803 464.693 369.73C464.684 370.668 463.854 371.264 462.604 371.264C461.344 371.264 460.504 370.668 460.514 369.73C460.504 368.803 461.344 368.197 462.604 368.197ZM462.604 368.773C461.783 368.783 461.236 369.164 461.246 369.73C461.236 370.297 461.783 370.668 462.604 370.668C463.414 370.668 463.961 370.297 463.971 369.73C463.961 369.164 463.414 368.783 462.604 368.773ZM472.975 367.65V368.275H468.619V367.65H470.426V366.41H471.188V367.65H472.975ZM470.797 368.861C471.891 368.861 472.672 369.682 472.682 370.834C472.672 371.996 471.891 372.826 470.797 372.826C469.713 372.826 468.932 371.996 468.932 370.834C468.932 369.682 469.713 368.861 470.797 368.861ZM470.797 369.506C470.113 369.516 469.615 370.072 469.615 370.834C469.615 371.605 470.113 372.162 470.797 372.152C471.49 372.162 471.998 371.605 471.998 370.834C471.998 370.072 471.49 369.516 470.797 369.506ZM476.031 366.146V374.828H475.299V370.443H474.146V374.398H473.424V366.361H474.146V369.809H475.299V366.146H476.031ZM487.916 369.613V370.258H486.51V374.828H485.748V366.146H486.51V369.613H487.916ZM480.914 367.006V371.977C482.184 371.972 483.478 371.874 484.908 371.576L485.006 372.23C483.512 372.533 482.164 372.621 480.846 372.621H480.152V367.006H480.914ZM490.758 366.82C492.037 366.83 492.945 368.002 492.955 369.848C492.945 371.693 492.037 372.865 490.758 372.865C489.469 372.865 488.57 371.693 488.57 369.848C488.57 368.002 489.469 366.83 490.758 366.82ZM490.758 367.504C489.898 367.514 489.293 368.432 489.293 369.848C489.293 371.264 489.898 372.182 490.758 372.182C491.627 372.182 492.213 371.264 492.213 369.848C492.213 368.432 491.627 367.514 490.758 367.504ZM495.152 366.146V369.613H496.607V370.277H495.152V374.828H494.391V366.146H495.152ZM503.795 366.146V369.682H505.201V370.326H503.795V374.828H503.033V366.146H503.795ZM501.549 367.084C501.549 369.545 500.396 371.781 497.564 373.178L497.135 372.572C499.381 371.454 500.602 369.784 500.777 367.729H497.535V367.084H501.549ZM508.297 368.617C508.297 369.994 508.971 371.488 510.123 372.172L509.684 372.768C508.849 372.26 508.248 371.332 507.945 370.277C507.623 371.43 506.979 372.421 506.109 372.953L505.621 372.377C506.822 371.674 507.555 370.131 507.555 368.646V366.967H508.297V368.617ZM513.16 366.146V374.828H512.418V366.146H513.16ZM511.363 366.332V374.389H510.641V369.916H509.166V369.262H510.641V366.332H511.363ZM522.311 373.07V373.715H514.361V373.07H516.334V370.727C515.592 370.341 515.143 369.716 515.143 368.93C515.143 367.582 516.461 366.703 518.316 366.693C520.172 366.703 521.49 367.582 521.49 368.93C521.49 369.701 521.056 370.321 520.338 370.707V373.07H522.311ZM518.316 367.328C516.891 367.318 515.885 367.963 515.885 368.93C515.885 369.896 516.891 370.551 518.316 370.551C519.732 370.551 520.748 369.896 520.748 368.93C520.748 367.963 519.732 367.318 518.316 367.328ZM517.086 373.07H519.566V371C519.19 371.103 518.771 371.156 518.316 371.156C517.872 371.156 517.457 371.107 517.086 371.01V373.07ZM524.41 366.967L524.342 372.045H523.521L523.453 366.967H524.41ZM523.932 374.096C523.59 374.096 523.297 373.812 523.307 373.461C523.297 373.119 523.59 372.836 523.932 372.836C524.273 372.836 524.557 373.119 524.557 373.461C524.557 373.812 524.273 374.096 523.932 374.096Z" fill="black"/>
</g>
<defs>
<filter id="filter0_f_931_674" x="-179.746" y="330.664" width="685.802" height="578.814" filterUnits="userSpaceOnUse" color-interpolation-filters="sRGB">
<feFlood flood-opacity="0" result="BackgroundImageFix"/>
<feBlend mode="normal" in="SourceGraphic" in2="BackgroundImageFix" result="shape"/>
<feGaussianBlur stdDeviation="63.2" result="effect1_foregroundBlur_931_674"/>
</filter>
<filter id="filter1_d_931_674" x="17.5742" y="37.7305" width="893" height="612" filterUnits="userSpaceOnUse" color-interpolation-filters="sRGB">
<feFlood flood-opacity="0" result="BackgroundImageFix"/>
<feColorMatrix in="SourceAlpha" type="matrix" values="0 0 0 0 0 0 0 0 0 0 0 0 0 0 0 0 0 0 127 0" result="hardAlpha"/>
<feOffset dx="20" dy="24"/>
<feGaussianBlur stdDeviation="42"/>
<feComposite in2="hardAlpha" operator="out"/>
<feColorMatrix type="matrix" values="0 0 0 0 0 0 0 0 0 0 0 0 0 0 0 0 0 0 0.15 0"/>
<feBlend mode="multiply" in2="BackgroundImageFix" result="effect1_dropShadow_931_674"/>
<feBlend mode="normal" in="SourceGraphic" in2="effect1_dropShadow_931_674" result="shape"/>
</filter>
<filter id="filter2_d_931_674" x="163.193" y="187.926" width="571.76" height="331.025" filterUnits="userSpaceOnUse" color-interpolation-filters="sRGB">
<feFlood flood-opacity="0" result="BackgroundImageFix"/>
<feColorMatrix in="SourceAlpha" type="matrix" values="0 0 0 0 0 0 0 0 0 0 0 0 0 0 0 0 0 0 127 0" result="hardAlpha"/>
<feMorphology radius="5" operator="dilate" in="SourceAlpha" result="effect1_dropShadow_931_674"/>
<feOffset dx="5" dy="5"/>
<feGaussianBlur stdDeviation="15"/>
<feComposite in2="hardAlpha" operator="out"/>
<feColorMatrix type="matrix" values="0 0 0 0 0 0 0 0 0 0 0 0 0 0 0 0 0 0 0.05 0"/>
<feBlend mode="normal" in2="BackgroundImageFix" result="effect1_dropShadow_931_674"/>
<feBlend mode="normal" in="SourceGraphic" in2="effect1_dropShadow_931_674" result="shape"/>
</filter>
<linearGradient id="paint0_linear_931_674" x1="71.2195" y1="551.93" x2="262.967" y2="678.007" gradientUnits="userSpaceOnUse">
<stop stop-color="#B31AEF"/>
<stop offset="0.313324" stop-color="#F6048D"/>
<stop offset="0.780691" stop-color="#F88C54"/>
<stop offset="1" stop-color="#FF7670"/>
</linearGradient>
</defs>
</svg>
