<svg width="1401" height="970" viewBox="0 0 1401 970" fill="none" xmlns="http://www.w3.org/2000/svg">
<g clip-path="url(#clip0_891_310)">
<path d="M0.5 32.1523C0.5 14.4792 14.8269 0.152344 32.5 0.152344H1368.5C1386.17 0.152344 1400.5 14.4792 1400.5 32.1523V937.152C1400.5 954.826 1386.17 969.152 1368.5 969.152H32.5C14.8269 969.152 0.5 954.825 0.5 937.152V32.1523Z" fill="#F3F3F3"/>
<g filter="url(#filter0_f_891_310)">
<ellipse cx="276.281" cy="168.423" rx="276.281" ry="168.423" transform="matrix(-0.80442 -0.594061 -0.522548 0.85261 374.486 790.395)" fill="#D4EFF4" fill-opacity="0.8"/>
</g>
<g filter="url(#filter1_f_891_310)">
<ellipse cx="996.201" cy="210.659" rx="996.201" ry="210.659" transform="matrix(-0.965884 -0.258974 -0.199105 0.979978 1838.47 555.844)" fill="#F9C7B2" fill-opacity="0.91"/>
</g>
<g filter="url(#filter2_f_891_310)">
<ellipse cx="971.29" cy="218.854" rx="971.29" ry="218.854" transform="matrix(-0.948657 -0.316305 -0.251137 0.967952 1621.16 809.305)" fill="#D8C4FF"/>
</g>
<path fill-rule="evenodd" clip-rule="evenodd" d="M1576.28 946.519C1572.96 946.519 1570.28 949.205 1570.28 952.519V1022.57C1570.28 1023 1569.93 1023.34 1569.51 1023.34C1569.09 1023.34 1568.75 1023 1568.75 1022.57V952.519C1568.75 949.205 1566.06 946.519 1562.75 946.519H1514.36C1511.05 946.519 1508.36 949.205 1508.36 952.519V1020.68C1508.36 1021.1 1508.02 1021.44 1507.6 1021.44C1507.17 1021.44 1506.83 1021.1 1506.83 1020.68V952.519C1506.83 949.205 1504.15 946.519 1500.83 946.519H1452.45C1449.13 946.519 1446.45 949.205 1446.45 952.519V1020.68C1446.45 1021.1 1446.11 1021.44 1445.68 1021.44C1445.26 1021.44 1444.92 1021.1 1444.92 1020.68V952.519C1444.92 949.205 1442.23 946.519 1438.92 946.519H1390.53C1387.22 946.519 1384.53 949.205 1384.53 952.519V1020.68C1384.53 1021.1 1384.19 1021.44 1383.77 1021.44C1383.35 1021.44 1383 1021.1 1383 1020.68V952.519C1383 949.205 1380.32 946.519 1377 946.519H1328.62C1325.31 946.519 1322.62 949.205 1322.62 952.519V1020.68C1322.62 1021.1 1322.28 1021.44 1321.85 1021.44C1321.43 1021.44 1321.09 1021.1 1321.09 1020.68V952.519C1321.09 949.205 1318.4 946.519 1315.09 946.519H1266.7C1263.39 946.519 1260.7 949.205 1260.7 952.519V1020.68C1260.7 1021.1 1260.36 1021.44 1259.94 1021.44C1259.52 1021.44 1259.17 1021.1 1259.17 1020.68V952.519C1259.17 949.205 1256.49 946.519 1253.17 946.519H1204.79C1201.48 946.519 1198.79 949.205 1198.79 952.519V1020.68C1198.79 1021.1 1198.45 1021.44 1198.02 1021.44C1197.6 1021.44 1197.26 1021.1 1197.26 1020.68V952.519C1197.26 949.205 1194.57 946.519 1191.26 946.519H1142.87C1139.56 946.519 1136.87 949.205 1136.87 952.519V1020.68C1136.87 1021.1 1136.53 1021.44 1136.11 1021.44C1135.69 1021.44 1135.34 1021.1 1135.34 1020.68V952.519C1135.34 949.205 1132.66 946.519 1129.34 946.519L1080.96 946.519C1077.65 946.519 1074.96 949.205 1074.96 952.519V1020.68C1074.96 1021.1 1074.62 1021.44 1074.2 1021.44C1073.77 1021.44 1073.43 1021.1 1073.43 1020.68V952.519C1073.43 949.205 1070.74 946.519 1067.43 946.519H1019.04C1015.73 946.519 1013.04 949.205 1013.04 952.519V1020.68C1013.04 1021.1 1012.7 1021.44 1012.28 1021.44C1011.86 1021.44 1011.52 1021.1 1011.52 1020.68V952.519C1011.52 949.205 1008.83 946.519 1005.52 946.519H957.131C953.817 946.519 951.131 949.205 951.131 952.519V1020.68C951.131 1021.1 950.789 1021.44 950.366 1021.44C949.944 1021.44 949.601 1021.1 949.601 1020.68V952.519C949.601 949.205 946.915 946.519 943.601 946.519H895.216C891.902 946.519 889.216 949.205 889.216 952.519V1020.68C889.216 1021.1 888.873 1021.44 888.451 1021.44C888.028 1021.44 887.686 1021.1 887.686 1020.68V952.519C887.686 949.205 885 946.519 881.686 946.519H833.302C829.988 946.519 827.302 949.205 827.302 952.519V1020.68C827.302 1021.1 826.959 1021.44 826.537 1021.44C826.115 1021.44 825.772 1021.1 825.772 1020.68V952.519C825.772 949.205 823.086 946.519 819.772 946.519H771.386C768.073 946.519 765.386 949.205 765.386 952.519V1020.68C765.386 1021.1 765.044 1021.44 764.622 1021.44C764.199 1021.44 763.857 1021.1 763.857 1020.68V952.519C763.857 949.205 761.17 946.519 757.857 946.519H709.473C706.159 946.519 703.473 949.205 703.473 952.519V1020.68C703.473 1021.1 703.13 1021.44 702.708 1021.44C702.285 1021.44 701.943 1021.1 701.943 1020.68V952.519C701.943 949.205 699.257 946.519 695.943 946.519H647.557C644.244 946.519 641.557 949.205 641.557 952.519V1020.68C641.557 1021.1 641.215 1021.44 640.792 1021.44C640.37 1021.44 640.027 1021.1 640.027 1020.68V952.519C640.027 949.205 637.341 946.519 634.027 946.519H585.643C582.33 946.519 579.643 949.205 579.643 952.519V1020.68C579.643 1021.1 579.301 1021.44 578.879 1021.44C578.456 1021.44 578.114 1021.1 578.114 1020.68V952.519C578.114 949.205 575.427 946.519 572.114 946.519H523.728C520.414 946.519 517.728 949.205 517.728 952.519V1020.68C517.728 1021.1 517.385 1021.44 516.963 1021.44C516.541 1021.44 516.198 1021.1 516.198 1020.68V952.519C516.198 949.205 513.512 946.519 510.198 946.519H461.816C458.502 946.519 455.816 949.205 455.816 952.519V1020.68C455.816 1021.1 455.473 1021.44 455.051 1021.44C454.628 1021.44 454.286 1021.1 454.286 1020.68V952.519C454.286 949.205 451.599 946.519 448.286 946.519H399.9C396.587 946.519 393.9 949.205 393.9 952.519V1020.68C393.9 1021.1 393.558 1021.44 393.135 1021.44C392.713 1021.44 392.37 1021.1 392.37 1020.68V952.519C392.37 949.205 389.684 946.519 386.37 946.519H337.986C334.673 946.519 331.986 949.205 331.986 952.519V1020.68C331.986 1021.1 331.644 1021.44 331.221 1021.44C330.799 1021.44 330.457 1021.1 330.457 1020.68V952.519C330.457 949.205 327.77 946.519 324.457 946.519H276.072C272.759 946.519 270.072 949.205 270.072 952.519V1020.68C270.072 1021.1 269.73 1021.44 269.307 1021.44C268.885 1021.44 268.543 1021.1 268.543 1020.68V952.519C268.543 949.205 265.856 946.519 262.543 946.519H214.157C210.843 946.519 208.157 949.205 208.157 952.519V1020.68C208.157 1021.1 207.815 1021.44 207.392 1021.44C206.97 1021.44 206.627 1021.1 206.627 1020.68V952.519C206.627 949.205 203.941 946.519 200.627 946.519H152.243C148.929 946.519 146.243 949.205 146.243 952.519V1020.68C146.243 1021.1 145.901 1021.44 145.478 1021.44C145.056 1021.44 144.713 1021.1 144.713 1020.68V952.519C144.713 949.205 142.027 946.519 138.713 946.519H90.3278C87.014 946.519 84.3278 949.205 84.3278 952.519V1020.68C84.3278 1021.1 83.9854 1021.44 83.5629 1021.44C83.1404 1021.44 82.798 1021.1 82.798 1020.68V952.519C82.798 949.205 80.1117 946.519 76.798 946.519H28.4093C25.0956 946.519 22.4093 949.205 22.4093 952.519V1020.68C22.4093 1021.1 22.0669 1021.44 21.6444 1021.44C21.2219 1021.44 20.8795 1021.1 20.8795 1020.68V952.519C20.8795 949.205 18.1932 946.519 14.8795 946.519H-38.5509C-39.0751 946.519 -39.5 946.094 -39.5 945.57C-39.5 945.046 -39.0751 944.621 -38.5509 944.621H14.8811C18.1948 944.621 20.8811 941.934 20.8811 938.621V875.7C20.8811 872.386 18.1948 869.7 14.8811 869.7H-38.5509C-39.0751 869.7 -39.5 869.275 -39.5 868.751C-39.5 868.227 -39.0751 867.802 -38.5509 867.802H14.8811C18.1948 867.802 20.8811 865.115 20.8811 861.802V798.881C20.8811 795.567 18.1948 792.881 14.8811 792.881H-38.5509C-39.0751 792.881 -39.5 792.456 -39.5 791.932C-39.5 791.407 -39.0751 790.983 -38.5509 790.983H14.8811C18.1948 790.983 20.8811 788.296 20.8811 784.983V722.06C20.8811 718.746 18.1948 716.06 14.8811 716.06H-38.5509C-39.0751 716.06 -39.5 715.635 -39.5 715.111C-39.5 714.586 -39.0751 714.162 -38.5509 714.162H14.8811C18.1948 714.162 20.8811 711.475 20.8811 708.162V645.241C20.8811 641.927 18.1948 639.241 14.8811 639.241H-38.5509C-39.0751 639.241 -39.5 638.816 -39.5 638.292C-39.5 637.767 -39.0751 637.342 -38.5509 637.342H14.8811C18.1948 637.342 20.8811 634.656 20.8811 631.342V568.42C20.8811 565.106 18.1948 562.42 14.8811 562.42H-38.5509C-39.0751 562.42 -39.5 561.995 -39.5 561.47C-39.5 560.946 -39.0751 560.521 -38.5509 560.521H14.8811C18.1948 560.521 20.8811 557.835 20.8811 554.521V491.6C20.8811 488.287 18.1948 485.6 14.8811 485.6H-38.5509C-39.0751 485.6 -39.5 485.176 -39.5 484.651C-39.5 484.127 -39.0751 483.702 -38.5509 483.702H14.8811C18.1948 483.702 20.8811 481.016 20.8811 477.702V414.779C20.8811 411.466 18.1948 408.779 14.8811 408.779H-38.5509C-39.0751 408.779 -39.5 408.355 -39.5 407.83C-39.5 407.306 -39.0751 406.881 -38.5509 406.881H14.8811C18.1948 406.881 20.8811 404.195 20.8811 400.881V337.96C20.8811 334.647 18.1948 331.96 14.8811 331.96H-38.551C-39.0751 331.96 -39.5 331.535 -39.5 331.011C-39.5 330.487 -39.0751 330.062 -38.551 330.062H14.8811C18.1948 330.062 20.8811 327.376 20.8811 324.062V261.139C20.8811 257.826 18.1948 255.139 14.8811 255.139H-38.5509C-39.0751 255.139 -39.5 254.714 -39.5 254.19C-39.5 253.666 -39.0751 253.241 -38.5509 253.241H14.8811C18.1948 253.241 20.8811 250.555 20.8811 247.241V184.32C20.8811 181.007 18.1948 178.32 14.8811 178.32H-38.5509C-39.0751 178.32 -39.5 177.895 -39.5 177.371C-39.5 176.847 -39.0751 176.422 -38.5509 176.422H14.8811C18.1948 176.422 20.8811 173.736 20.8811 170.422V107.501C20.8811 104.187 18.1948 101.501 14.8811 101.501H-38.5509C-39.0751 101.501 -39.5 101.076 -39.5 100.552C-39.5 100.028 -39.0751 99.603 -38.5509 99.603H14.8811C18.1948 99.603 20.8811 96.9167 20.8811 93.603V30.6801C20.8811 27.3664 18.1948 24.6801 14.8811 24.6801H-38.5509C-39.0751 24.6801 -39.5 24.2552 -39.5 23.7311C-39.5 23.207 -39.0751 22.782 -38.5509 22.782H14.8811C18.1948 22.782 20.8811 20.0958 20.8811 16.782V-53.2722C20.8811 -53.6947 21.2235 -54.0371 21.646 -54.0371C22.0685 -54.0371 22.4109 -53.6947 22.4109 -53.2722V16.782C22.4109 20.0958 25.0972 22.782 28.4109 22.782H76.7996C80.1133 22.782 82.7996 20.0958 82.7996 16.782V-53.2722C82.7996 -53.6947 83.142 -54.0371 83.5645 -54.0371C83.9869 -54.0371 84.3293 -53.6947 84.3293 -53.2722V16.782C84.3293 20.0958 87.0156 22.782 90.3293 22.782H138.715C142.029 22.782 144.715 20.0958 144.715 16.782V-53.2722C144.715 -53.6946 145.057 -54.0371 145.48 -54.0371C145.902 -54.0371 146.245 -53.6946 146.245 -53.2722V16.782C146.245 20.0958 148.931 22.782 152.245 22.782H200.629C203.943 22.782 206.629 20.0958 206.629 16.782V-53.2722C206.629 -53.6946 206.971 -54.0371 207.394 -54.0371C207.816 -54.0371 208.159 -53.6946 208.159 -53.2722V16.782C208.159 20.0958 210.845 22.782 214.159 22.782H262.544C265.858 22.782 268.544 20.0958 268.544 16.782V-53.2722C268.544 -53.6947 268.887 -54.0371 269.309 -54.0371C269.732 -54.0371 270.074 -53.6947 270.074 -53.2722V16.782C270.074 20.0958 272.76 22.782 276.074 22.782H324.458C327.772 22.782 330.458 20.0958 330.458 16.782V-53.2722C330.458 -53.6947 330.801 -54.0371 331.223 -54.0371C331.646 -54.0371 331.988 -53.6947 331.988 -53.2722V16.782C331.988 20.0958 334.674 22.782 337.988 22.782H386.372C389.686 22.782 392.372 20.0958 392.372 16.782V-53.2722C392.372 -53.6947 392.714 -54.0371 393.137 -54.0371C393.559 -54.0371 393.902 -53.6947 393.902 -53.2722V16.782C393.902 20.0958 396.588 22.782 399.902 22.782H448.287C451.601 22.782 454.287 20.0958 454.287 16.782V-53.2722C454.287 -53.6947 454.63 -54.0371 455.052 -54.0371C455.475 -54.0371 455.817 -53.6947 455.817 -53.2722V16.782C455.817 20.0958 458.504 22.782 461.817 22.782H510.2C513.513 22.782 516.2 20.0958 516.2 16.782V-53.2722C516.2 -53.6947 516.542 -54.0371 516.965 -54.0371C517.387 -54.0371 517.729 -53.6947 517.729 -53.2722V16.782C517.729 20.0958 520.416 22.782 523.729 22.782H572.115C575.429 22.782 578.115 20.0958 578.115 16.782V-53.2722C578.115 -53.6946 578.458 -54.0371 578.88 -54.0371C579.302 -54.0371 579.645 -53.6946 579.645 -53.2722V16.782C579.645 20.0958 582.331 22.782 585.645 22.782H634.029C637.343 22.782 640.029 20.0958 640.029 16.782V-53.2722C640.029 -53.6947 640.371 -54.0371 640.794 -54.0371C641.216 -54.0371 641.559 -53.6947 641.559 -53.2722V16.782C641.559 20.0958 644.245 22.782 647.559 22.782H695.944C699.258 22.782 701.944 20.0958 701.944 16.782V-53.2722C701.944 -53.6947 702.287 -54.0371 702.709 -54.0371C703.132 -54.0371 703.474 -53.6947 703.474 -53.2722V16.782C703.474 20.0958 706.16 22.782 709.474 22.782H757.858C761.172 22.782 763.858 20.0958 763.858 16.782V-53.2722C763.858 -53.6947 764.201 -54.0371 764.623 -54.0371C765.046 -54.0371 765.388 -53.6947 765.388 -53.2722V16.782C765.388 20.0958 768.074 22.782 771.388 22.782H819.774C823.087 22.782 825.774 20.0958 825.774 16.782V-53.2722C825.774 -53.6947 826.116 -54.0371 826.539 -54.0371C826.961 -54.0371 827.303 -53.6947 827.303 -53.2722V16.782C827.303 20.0958 829.99 22.782 833.303 22.782H881.687C885.001 22.782 887.687 20.0958 887.687 16.782V-53.2722C887.687 -53.6947 888.03 -54.0371 888.452 -54.0371C888.875 -54.0371 889.217 -53.6947 889.217 -53.2722V16.782C889.217 20.0958 891.904 22.782 895.217 22.782H943.603C946.917 22.782 949.603 20.0958 949.603 16.782V-53.2722C949.603 -53.6947 949.945 -54.0371 950.368 -54.0371C950.79 -54.0371 951.133 -53.6947 951.133 -53.2722V16.782C951.133 20.0958 953.819 22.782 957.133 22.782H1005.52C1008.83 22.782 1011.52 20.0958 1011.52 16.782V-53.2722C1011.52 -53.6947 1011.86 -54.0371 1012.28 -54.0371C1012.7 -54.0371 1013.05 -53.6947 1013.05 -53.2722V16.782C1013.05 20.0958 1015.73 22.782 1019.05 22.782H1067.43C1070.75 22.782 1073.43 20.0958 1073.43 16.782V-53.2722C1073.43 -53.6947 1073.77 -54.0371 1074.2 -54.0371C1074.62 -54.0371 1074.96 -53.6947 1074.96 -53.2722V16.782C1074.96 20.0958 1077.65 22.782 1080.96 22.782H1129.35C1132.66 22.782 1135.35 20.0958 1135.35 16.782V-53.2722C1135.35 -53.6947 1135.69 -54.0371 1136.11 -54.0371C1136.53 -54.0371 1136.88 -53.6947 1136.88 -53.2722V16.782C1136.88 20.0958 1139.56 22.782 1142.88 22.782H1191.26C1194.58 22.782 1197.26 20.0958 1197.26 16.782V-53.2722C1197.26 -53.6947 1197.6 -54.0371 1198.03 -54.0371C1198.45 -54.0371 1198.79 -53.6947 1198.79 -53.2722V16.782C1198.79 20.0958 1201.48 22.782 1204.79 22.782H1253.18C1256.49 22.782 1259.18 20.0958 1259.18 16.782V-53.2722C1259.18 -53.6947 1259.52 -54.0371 1259.94 -54.0371C1260.36 -54.0371 1260.71 -53.6947 1260.71 -53.2722V16.782C1260.71 20.0958 1263.39 22.782 1266.71 22.782H1315.09C1318.4 22.782 1321.09 20.0958 1321.09 16.782V-53.2722C1321.09 -53.6947 1321.43 -54.0371 1321.86 -54.0371C1322.28 -54.0371 1322.62 -53.6947 1322.62 -53.2722V16.782C1322.62 20.0958 1325.31 22.782 1328.62 22.782H1377C1380.32 22.782 1383 20.0958 1383 16.782L1383 -53.2722C1383 -53.6947 1383.35 -54.0371 1383.77 -54.0371C1384.19 -54.0371 1384.53 -53.6947 1384.53 -53.2722L1384.53 16.782C1384.53 20.0958 1387.22 22.782 1390.53 22.782H1438.92C1442.23 22.782 1444.92 20.0958 1444.92 16.782L1444.92 -53.2722C1444.92 -53.6947 1445.26 -54.0371 1445.68 -54.0371C1446.11 -54.0371 1446.45 -53.6947 1446.45 -53.2722L1446.45 16.782C1446.45 20.0958 1449.14 22.782 1452.45 22.782H1500.83C1504.15 22.782 1506.83 20.0958 1506.83 16.782V-53.2722C1506.83 -53.6947 1507.18 -54.0371 1507.6 -54.0371C1508.02 -54.0371 1508.36 -53.6947 1508.36 -53.2722V16.782C1508.36 20.0958 1511.05 22.782 1514.36 22.782H1562.75C1566.06 22.782 1568.75 20.0958 1568.75 16.782V-51.374C1568.75 -51.7965 1569.09 -52.1389 1569.51 -52.1389C1569.93 -52.1389 1570.28 -51.7965 1570.28 -51.374V16.782C1570.28 20.0958 1572.96 22.782 1576.28 22.782H1602.55C1603.08 22.782 1603.5 23.207 1603.5 23.7311C1603.5 24.2552 1603.08 24.6801 1602.55 24.6801H1576.28C1572.96 24.6801 1570.28 27.3664 1570.28 30.6801L1570.28 93.603C1570.28 96.9167 1572.96 99.603 1576.28 99.603H1602.55C1603.08 99.603 1603.5 100.028 1603.5 100.552C1603.5 101.076 1603.08 101.501 1602.55 101.501H1576.28C1572.96 101.501 1570.28 104.187 1570.28 107.501V170.422C1570.28 173.736 1572.96 176.422 1576.28 176.422H1602.55C1603.08 176.422 1603.5 176.847 1603.5 177.371C1603.5 177.895 1603.08 178.32 1602.55 178.32H1576.28C1572.96 178.32 1570.28 181.007 1570.28 184.32V247.241C1570.28 250.555 1572.96 253.241 1576.28 253.241H1602.55C1603.08 253.241 1603.5 253.666 1603.5 254.19C1603.5 254.714 1603.08 255.139 1602.55 255.139H1576.28C1572.96 255.139 1570.28 257.826 1570.28 261.139V324.062C1570.28 327.376 1572.96 330.062 1576.28 330.062H1602.55C1603.08 330.062 1603.5 330.487 1603.5 331.011C1603.5 331.535 1603.08 331.96 1602.55 331.96H1576.28C1572.96 331.96 1570.28 334.647 1570.28 337.96V400.881C1570.28 404.195 1572.96 406.881 1576.28 406.881H1602.55C1603.08 406.881 1603.5 407.306 1603.5 407.83C1603.5 408.355 1603.08 408.779 1602.55 408.779H1576.28C1572.96 408.779 1570.28 411.466 1570.28 414.779V477.702C1570.28 481.016 1572.96 483.702 1576.28 483.702H1602.55C1603.08 483.702 1603.5 484.127 1603.5 484.651C1603.5 485.176 1603.08 485.6 1602.55 485.6H1576.28C1572.96 485.6 1570.28 488.287 1570.28 491.6V554.521C1570.28 557.835 1572.96 560.521 1576.28 560.521H1602.55C1603.08 560.521 1603.5 560.946 1603.5 561.47C1603.5 561.995 1603.08 562.42 1602.55 562.42H1576.28C1572.96 562.42 1570.28 565.106 1570.28 568.42V631.342C1570.28 634.656 1572.96 637.342 1576.28 637.342H1602.55C1603.08 637.342 1603.5 637.767 1603.5 638.292C1603.5 638.816 1603.08 639.241 1602.55 639.241H1576.28C1572.96 639.241 1570.28 641.927 1570.28 645.241V708.162C1570.28 711.475 1572.96 714.162 1576.28 714.162H1602.55C1603.08 714.162 1603.5 714.586 1603.5 715.111C1603.5 715.635 1603.08 716.06 1602.55 716.06H1576.28C1572.96 716.06 1570.28 718.746 1570.28 722.06V784.983C1570.28 788.296 1572.96 790.983 1576.28 790.983H1602.55C1603.08 790.983 1603.5 791.407 1603.5 791.932C1603.5 792.456 1603.08 792.881 1602.55 792.881H1576.28C1572.96 792.881 1570.28 795.567 1570.28 798.881V861.802C1570.28 865.115 1572.96 867.802 1576.28 867.802H1602.55C1603.08 867.802 1603.5 868.227 1603.5 868.751C1603.5 869.275 1603.08 869.7 1602.55 869.7H1576.28C1572.96 869.7 1570.28 872.386 1570.28 875.7V938.621C1570.28 941.934 1572.96 944.621 1576.28 944.621H1602.55C1603.08 944.621 1603.5 945.046 1603.5 945.57C1603.5 946.094 1603.08 946.519 1602.55 946.519H1576.28ZM1568.75 938.621C1568.75 941.934 1566.06 944.621 1562.75 944.621H1514.36C1511.05 944.621 1508.36 941.934 1508.36 938.621V875.7C1508.36 872.386 1511.05 869.7 1514.36 869.7H1562.75C1566.06 869.7 1568.75 872.386 1568.75 875.7V938.621ZM1568.75 861.802C1568.75 865.115 1566.06 867.802 1562.75 867.802H1514.36C1511.05 867.802 1508.36 865.115 1508.36 861.802V798.881C1508.36 795.567 1511.05 792.881 1514.36 792.881H1562.75C1566.06 792.881 1568.75 795.567 1568.75 798.881V861.802ZM1568.75 784.983C1568.75 788.296 1566.06 790.983 1562.75 790.983H1514.36C1511.05 790.983 1508.36 788.296 1508.36 784.983V722.06C1508.36 718.746 1511.05 716.06 1514.36 716.06H1562.75C1566.06 716.06 1568.75 718.746 1568.75 722.06V784.983ZM1568.75 708.162C1568.75 711.475 1566.06 714.162 1562.75 714.162H1514.36C1511.05 714.162 1508.36 711.475 1508.36 708.162V645.241C1508.36 641.927 1511.05 639.241 1514.36 639.241H1562.75C1566.06 639.241 1568.75 641.927 1568.75 645.241V708.162ZM1568.75 631.342C1568.75 634.656 1566.06 637.342 1562.75 637.342H1514.36C1511.05 637.342 1508.36 634.656 1508.36 631.342V568.42C1508.36 565.106 1511.05 562.42 1514.36 562.42H1562.75C1566.06 562.42 1568.75 565.106 1568.75 568.42V631.342ZM1568.75 554.521C1568.75 557.835 1566.06 560.521 1562.75 560.521H1514.36C1511.05 560.521 1508.36 557.835 1508.36 554.521V491.6C1508.36 488.287 1511.05 485.6 1514.36 485.6H1562.75C1566.06 485.6 1568.75 488.287 1568.75 491.6V554.521ZM1568.75 477.702C1568.75 481.016 1566.06 483.702 1562.75 483.702H1514.36C1511.05 483.702 1508.36 481.016 1508.36 477.702V414.779C1508.36 411.466 1511.05 408.779 1514.36 408.779H1562.75C1566.06 408.779 1568.75 411.466 1568.75 414.779V477.702ZM1568.75 400.881C1568.75 404.195 1566.06 406.881 1562.75 406.881H1514.36C1511.05 406.881 1508.36 404.195 1508.36 400.881V337.96C1508.36 334.647 1511.05 331.96 1514.36 331.96H1562.75C1566.06 331.96 1568.75 334.647 1568.75 337.96V400.881ZM1568.75 324.062C1568.75 327.376 1566.06 330.062 1562.75 330.062H1514.36C1511.05 330.062 1508.36 327.376 1508.36 324.062V261.139C1508.36 257.826 1511.05 255.139 1514.36 255.139H1562.75C1566.06 255.139 1568.75 257.826 1568.75 261.139V324.062ZM1568.75 247.241C1568.75 250.555 1566.06 253.241 1562.75 253.241H1514.36C1511.05 253.241 1508.36 250.555 1508.36 247.241V184.32C1508.36 181.007 1511.05 178.32 1514.36 178.32H1562.75C1566.06 178.32 1568.75 181.007 1568.75 184.32V247.241ZM1568.75 170.422C1568.75 173.736 1566.06 176.422 1562.75 176.422H1514.36C1511.05 176.422 1508.36 173.736 1508.36 170.422V107.501C1508.36 104.187 1511.05 101.501 1514.36 101.501H1562.75C1566.06 101.501 1568.75 104.187 1568.75 107.501V170.422ZM1568.75 93.603C1568.75 96.9167 1566.06 99.603 1562.75 99.603H1514.36C1511.05 99.603 1508.36 96.9167 1508.36 93.603L1508.36 30.6801C1508.36 27.3664 1511.05 24.6801 1514.36 24.6801H1562.75C1566.06 24.6801 1568.75 27.3664 1568.75 30.6801L1568.75 93.603ZM1446.45 938.621C1446.45 941.934 1449.14 944.621 1452.45 944.621H1500.83C1504.15 944.621 1506.83 941.934 1506.83 938.621V875.7C1506.83 872.386 1504.15 869.7 1500.83 869.7H1452.45C1449.14 869.7 1446.45 872.386 1446.45 875.7V938.621ZM1446.45 861.802C1446.45 865.115 1449.14 867.802 1452.45 867.802H1500.83C1504.15 867.802 1506.83 865.115 1506.83 861.802V798.881C1506.83 795.567 1504.15 792.881 1500.83 792.881H1452.45C1449.14 792.881 1446.45 795.567 1446.45 798.881V861.802ZM1446.45 784.983C1446.45 788.296 1449.14 790.983 1452.45 790.983H1500.83C1504.15 790.983 1506.83 788.296 1506.83 784.983V722.06C1506.83 718.746 1504.15 716.06 1500.83 716.06H1452.45C1449.14 716.06 1446.45 718.746 1446.45 722.06V784.983ZM1446.45 708.162C1446.45 711.475 1449.14 714.162 1452.45 714.162H1500.83C1504.15 714.162 1506.83 711.475 1506.83 708.162V645.241C1506.83 641.927 1504.15 639.241 1500.83 639.241H1452.45C1449.14 639.241 1446.45 641.927 1446.45 645.241V708.162ZM1446.45 631.342C1446.45 634.656 1449.14 637.342 1452.45 637.342H1500.83C1504.15 637.342 1506.83 634.656 1506.83 631.342V568.42C1506.83 565.106 1504.15 562.42 1500.83 562.42H1452.45C1449.14 562.42 1446.45 565.106 1446.45 568.42V631.342ZM1446.45 554.521C1446.45 557.835 1449.14 560.521 1452.45 560.521H1500.83C1504.15 560.521 1506.83 557.835 1506.83 554.521V491.6C1506.83 488.287 1504.15 485.6 1500.83 485.6H1452.45C1449.14 485.6 1446.45 488.287 1446.45 491.6V554.521ZM1446.45 477.702C1446.45 481.016 1449.14 483.702 1452.45 483.702H1500.83C1504.15 483.702 1506.83 481.016 1506.83 477.702V414.779C1506.83 411.466 1504.15 408.779 1500.83 408.779H1452.45C1449.14 408.779 1446.45 411.466 1446.45 414.779V477.702ZM1446.45 400.881C1446.45 404.195 1449.14 406.881 1452.45 406.881H1500.83C1504.15 406.881 1506.83 404.195 1506.83 400.881V337.96C1506.83 334.647 1504.15 331.96 1500.83 331.96H1452.45C1449.14 331.96 1446.45 334.647 1446.45 337.96V400.881ZM1446.45 324.062C1446.45 327.376 1449.14 330.062 1452.45 330.062H1500.83C1504.15 330.062 1506.83 327.376 1506.83 324.062V261.139C1506.83 257.826 1504.15 255.139 1500.83 255.139H1452.45C1449.14 255.139 1446.45 257.826 1446.45 261.139V324.062ZM1446.45 247.241C1446.45 250.555 1449.14 253.241 1452.45 253.241H1500.83C1504.15 253.241 1506.83 250.555 1506.83 247.241V184.32C1506.83 181.007 1504.15 178.32 1500.83 178.32H1452.45C1449.14 178.32 1446.45 181.007 1446.45 184.32V247.241ZM1446.45 170.422C1446.45 173.736 1449.14 176.422 1452.45 176.422H1500.83C1504.15 176.422 1506.83 173.736 1506.83 170.422V107.501C1506.83 104.187 1504.15 101.501 1500.83 101.501H1452.45C1449.14 101.501 1446.45 104.187 1446.45 107.501V170.422ZM1446.45 93.603C1446.45 96.9167 1449.14 99.603 1452.45 99.603H1500.83C1504.15 99.603 1506.83 96.9167 1506.83 93.603L1506.83 30.6801C1506.83 27.3664 1504.15 24.6801 1500.83 24.6801H1452.45C1449.14 24.6801 1446.45 27.3664 1446.45 30.6801V93.603ZM1438.92 24.6801C1442.23 24.6801 1444.92 27.3664 1444.92 30.6801V93.603C1444.92 96.9167 1442.23 99.603 1438.92 99.603H1390.53C1387.22 99.603 1384.53 96.9167 1384.53 93.603V30.6801C1384.53 27.3664 1387.22 24.6801 1390.53 24.6801H1438.92ZM1438.92 101.501C1442.23 101.501 1444.92 104.187 1444.92 107.501V170.422C1444.92 173.736 1442.23 176.422 1438.92 176.422H1390.53C1387.22 176.422 1384.53 173.736 1384.53 170.422V107.501C1384.53 104.187 1387.22 101.501 1390.53 101.501H1438.92ZM1438.92 178.32C1442.23 178.32 1444.92 181.007 1444.92 184.32V247.241C1444.92 250.555 1442.23 253.241 1438.92 253.241H1390.53C1387.22 253.241 1384.53 250.555 1384.53 247.241V184.32C1384.53 181.007 1387.22 178.32 1390.53 178.32H1438.92ZM1438.92 255.139C1442.23 255.139 1444.92 257.826 1444.92 261.139V324.062C1444.92 327.376 1442.23 330.062 1438.92 330.062H1390.53C1387.22 330.062 1384.53 327.376 1384.53 324.062V261.139C1384.53 257.826 1387.22 255.139 1390.53 255.139H1438.92ZM1438.92 331.96C1442.23 331.96 1444.92 334.647 1444.92 337.96V400.881C1444.92 404.195 1442.23 406.881 1438.92 406.881H1390.53C1387.22 406.881 1384.53 404.195 1384.53 400.881V337.96C1384.53 334.647 1387.22 331.96 1390.53 331.96H1438.92ZM1438.92 408.779C1442.23 408.779 1444.92 411.466 1444.92 414.779V477.702C1444.92 481.016 1442.23 483.702 1438.92 483.702H1390.53C1387.22 483.702 1384.53 481.016 1384.53 477.702V414.779C1384.53 411.466 1387.22 408.779 1390.53 408.779H1438.92ZM1438.92 485.6C1442.23 485.6 1444.92 488.287 1444.92 491.6V554.521C1444.92 557.835 1442.23 560.521 1438.92 560.521H1390.53C1387.22 560.521 1384.53 557.835 1384.53 554.521V491.6C1384.53 488.287 1387.22 485.6 1390.53 485.6H1438.92ZM1438.92 562.42C1442.23 562.42 1444.92 565.106 1444.92 568.42V631.342C1444.92 634.656 1442.23 637.342 1438.92 637.342H1390.53C1387.22 637.342 1384.53 634.656 1384.53 631.342V568.42C1384.53 565.106 1387.22 562.42 1390.53 562.42H1438.92ZM1438.92 639.241C1442.23 639.241 1444.92 641.927 1444.92 645.241V708.162C1444.92 711.475 1442.23 714.162 1438.92 714.162H1390.53C1387.22 714.162 1384.53 711.475 1384.53 708.162V645.241C1384.53 641.927 1387.22 639.241 1390.53 639.241H1438.92ZM1438.92 716.06C1442.23 716.06 1444.92 718.746 1444.92 722.06V784.983C1444.92 788.296 1442.23 790.983 1438.92 790.983H1390.53C1387.22 790.983 1384.53 788.296 1384.53 784.983V722.06C1384.53 718.746 1387.22 716.06 1390.53 716.06H1438.92ZM1438.92 792.881C1442.23 792.881 1444.92 795.567 1444.92 798.881V861.802C1444.92 865.115 1442.23 867.802 1438.92 867.802H1390.53C1387.22 867.802 1384.53 865.115 1384.53 861.802V798.881C1384.53 795.567 1387.22 792.881 1390.53 792.881H1438.92ZM1438.92 869.7C1442.23 869.7 1444.92 872.386 1444.92 875.7V938.621C1444.92 941.934 1442.23 944.621 1438.92 944.621H1390.53C1387.22 944.621 1384.53 941.934 1384.53 938.621V875.7C1384.53 872.386 1387.22 869.7 1390.53 869.7H1438.92ZM1322.62 938.621C1322.62 941.934 1325.31 944.621 1328.62 944.621H1377C1380.32 944.621 1383 941.934 1383 938.621V875.7C1383 872.386 1380.32 869.7 1377 869.7H1328.62C1325.31 869.7 1322.62 872.386 1322.62 875.7V938.621ZM1322.62 861.802C1322.62 865.115 1325.31 867.802 1328.62 867.802H1377C1380.32 867.802 1383 865.115 1383 861.802V798.881C1383 795.567 1380.32 792.881 1377 792.881H1328.62C1325.31 792.881 1322.62 795.567 1322.62 798.881V861.802ZM1322.62 784.983C1322.62 788.296 1325.31 790.983 1328.62 790.983H1377C1380.32 790.983 1383 788.296 1383 784.983V722.06C1383 718.746 1380.32 716.06 1377 716.06H1328.62C1325.31 716.06 1322.62 718.746 1322.62 722.06V784.983ZM1322.62 708.162C1322.62 711.475 1325.31 714.162 1328.62 714.162H1377C1380.32 714.162 1383 711.475 1383 708.162V645.241C1383 641.927 1380.32 639.241 1377 639.241H1328.62C1325.31 639.241 1322.62 641.927 1322.62 645.241V708.162ZM1322.62 631.342C1322.62 634.656 1325.31 637.342 1328.62 637.342H1377C1380.32 637.342 1383 634.656 1383 631.342V568.42C1383 565.106 1380.32 562.42 1377 562.42H1328.62C1325.31 562.42 1322.62 565.106 1322.62 568.42V631.342ZM1322.62 554.521C1322.62 557.835 1325.31 560.521 1328.62 560.521H1377C1380.32 560.521 1383 557.835 1383 554.521V491.6C1383 488.287 1380.32 485.6 1377 485.6H1328.62C1325.31 485.6 1322.62 488.287 1322.62 491.6V554.521ZM1322.62 477.702C1322.62 481.016 1325.31 483.702 1328.62 483.702H1377C1380.32 483.702 1383 481.016 1383 477.702V414.779C1383 411.466 1380.32 408.779 1377 408.779H1328.62C1325.31 408.779 1322.62 411.466 1322.62 414.779V477.702ZM1322.62 400.881C1322.62 404.195 1325.31 406.881 1328.62 406.881H1377C1380.32 406.881 1383 404.195 1383 400.881V337.96C1383 334.647 1380.32 331.96 1377 331.96H1328.62C1325.31 331.96 1322.62 334.647 1322.62 337.96V400.881ZM1322.62 324.062C1322.62 327.376 1325.31 330.062 1328.62 330.062H1377C1380.32 330.062 1383 327.376 1383 324.062V261.139C1383 257.826 1380.32 255.139 1377 255.139H1328.62C1325.31 255.139 1322.62 257.826 1322.62 261.139V324.062ZM1322.62 247.241C1322.62 250.555 1325.31 253.241 1328.62 253.241H1377C1380.32 253.241 1383 250.555 1383 247.241V184.32C1383 181.007 1380.32 178.32 1377 178.32H1328.62C1325.31 178.32 1322.62 181.007 1322.62 184.32V247.241ZM1322.62 170.422C1322.62 173.736 1325.31 176.422 1328.62 176.422H1377C1380.32 176.422 1383 173.736 1383 170.422V107.501C1383 104.187 1380.32 101.501 1377 101.501H1328.62C1325.31 101.501 1322.62 104.187 1322.62 107.501V170.422ZM1322.62 93.603C1322.62 96.9167 1325.31 99.603 1328.62 99.603H1377C1380.32 99.603 1383 96.9167 1383 93.603V30.6801C1383 27.3664 1380.32 24.6801 1377 24.6801H1328.62C1325.31 24.6801 1322.62 27.3664 1322.62 30.6801V93.603ZM1315.09 24.6801C1318.4 24.6801 1321.09 27.3664 1321.09 30.6801V93.603C1321.09 96.9167 1318.4 99.603 1315.09 99.603H1266.71C1263.39 99.603 1260.71 96.9167 1260.71 93.603V30.6801C1260.71 27.3664 1263.39 24.6801 1266.71 24.6801H1315.09ZM1315.09 101.501C1318.4 101.501 1321.09 104.187 1321.09 107.501V170.422C1321.09 173.736 1318.4 176.422 1315.09 176.422H1266.71C1263.39 176.422 1260.71 173.736 1260.71 170.422V107.501C1260.71 104.187 1263.39 101.501 1266.71 101.501H1315.09ZM1315.09 178.32C1318.4 178.32 1321.09 181.007 1321.09 184.32V247.241C1321.09 250.555 1318.4 253.241 1315.09 253.241H1266.71C1263.39 253.241 1260.71 250.555 1260.71 247.241V184.32C1260.71 181.007 1263.39 178.32 1266.71 178.32H1315.09ZM1315.09 255.139C1318.4 255.139 1321.09 257.826 1321.09 261.139V324.062C1321.09 327.376 1318.4 330.062 1315.09 330.062H1266.71C1263.39 330.062 1260.71 327.376 1260.71 324.062V261.139C1260.71 257.826 1263.39 255.139 1266.71 255.139H1315.09ZM1315.09 331.96C1318.4 331.96 1321.09 334.647 1321.09 337.96V400.881C1321.09 404.195 1318.4 406.881 1315.09 406.881H1266.71C1263.39 406.881 1260.71 404.195 1260.71 400.881V337.96C1260.71 334.647 1263.39 331.96 1266.71 331.96H1315.09ZM1315.09 408.779C1318.4 408.779 1321.09 411.466 1321.09 414.779V477.702C1321.09 481.016 1318.4 483.702 1315.09 483.702H1266.71C1263.39 483.702 1260.71 481.016 1260.71 477.702V414.779C1260.71 411.466 1263.39 408.779 1266.71 408.779H1315.09ZM1315.09 485.6C1318.4 485.6 1321.09 488.287 1321.09 491.6V554.521C1321.09 557.835 1318.4 560.521 1315.09 560.521H1266.71C1263.39 560.521 1260.71 557.835 1260.71 554.521V491.6C1260.71 488.287 1263.39 485.6 1266.71 485.6H1315.09ZM1315.09 562.42C1318.4 562.42 1321.09 565.106 1321.09 568.42V631.342C1321.09 634.656 1318.4 637.342 1315.09 637.342H1266.71C1263.39 637.342 1260.71 634.656 1260.71 631.342V568.42C1260.71 565.106 1263.39 562.42 1266.71 562.42H1315.09ZM1315.09 639.241C1318.4 639.241 1321.09 641.927 1321.09 645.241V708.162C1321.09 711.475 1318.4 714.162 1315.09 714.162H1266.71C1263.39 714.162 1260.71 711.475 1260.71 708.162V645.241C1260.71 641.927 1263.39 639.241 1266.71 639.241H1315.09ZM1315.09 716.06C1318.4 716.06 1321.09 718.746 1321.09 722.06V784.983C1321.09 788.296 1318.4 790.983 1315.09 790.983H1266.71C1263.39 790.983 1260.71 788.296 1260.71 784.983V722.06C1260.71 718.746 1263.39 716.06 1266.71 716.06H1315.09ZM1315.09 792.881C1318.4 792.881 1321.09 795.567 1321.09 798.881V861.802C1321.09 865.115 1318.4 867.802 1315.09 867.802H1266.71C1263.39 867.802 1260.71 865.115 1260.71 861.802V798.881C1260.71 795.567 1263.39 792.881 1266.71 792.881H1315.09ZM1315.09 869.7C1318.4 869.7 1321.09 872.386 1321.09 875.7V938.621C1321.09 941.934 1318.4 944.621 1315.09 944.621H1266.71C1263.39 944.621 1260.71 941.934 1260.71 938.621V875.7C1260.71 872.386 1263.39 869.7 1266.71 869.7H1315.09ZM1198.79 938.621C1198.79 941.934 1201.48 944.621 1204.79 944.621H1253.18C1256.49 944.621 1259.18 941.934 1259.18 938.621V875.7C1259.18 872.386 1256.49 869.7 1253.18 869.7H1204.79C1201.48 869.7 1198.79 872.386 1198.79 875.7V938.621ZM1198.79 861.802C1198.79 865.115 1201.48 867.802 1204.79 867.802H1253.18C1256.49 867.802 1259.18 865.115 1259.18 861.802V798.881C1259.18 795.567 1256.49 792.881 1253.18 792.881H1204.79C1201.48 792.881 1198.79 795.567 1198.79 798.881V861.802ZM1198.79 784.983C1198.79 788.296 1201.48 790.983 1204.79 790.983H1253.18C1256.49 790.983 1259.18 788.296 1259.18 784.983V722.06C1259.18 718.746 1256.49 716.06 1253.18 716.06H1204.79C1201.48 716.06 1198.79 718.746 1198.79 722.06V784.983ZM1198.79 708.162C1198.79 711.475 1201.48 714.162 1204.79 714.162H1253.18C1256.49 714.162 1259.18 711.475 1259.18 708.162V645.241C1259.18 641.927 1256.49 639.241 1253.18 639.241H1204.79C1201.48 639.241 1198.79 641.927 1198.79 645.241V708.162ZM1198.79 631.342C1198.79 634.656 1201.48 637.342 1204.79 637.342H1253.18C1256.49 637.342 1259.18 634.656 1259.18 631.342V568.42C1259.18 565.106 1256.49 562.42 1253.18 562.42H1204.79C1201.48 562.42 1198.79 565.106 1198.79 568.42V631.342ZM1198.79 554.521C1198.79 557.835 1201.48 560.521 1204.79 560.521H1253.18C1256.49 560.521 1259.18 557.835 1259.18 554.521V491.6C1259.18 488.287 1256.49 485.6 1253.18 485.6H1204.79C1201.48 485.6 1198.79 488.287 1198.79 491.6V554.521ZM1198.79 477.702C1198.79 481.016 1201.48 483.702 1204.79 483.702H1253.18C1256.49 483.702 1259.18 481.016 1259.18 477.702V414.779C1259.18 411.466 1256.49 408.779 1253.18 408.779H1204.79C1201.48 408.779 1198.79 411.466 1198.79 414.779V477.702ZM1198.79 400.881C1198.79 404.195 1201.48 406.881 1204.79 406.881H1253.18C1256.49 406.881 1259.18 404.195 1259.18 400.881V337.96C1259.18 334.647 1256.49 331.96 1253.18 331.96H1204.79C1201.48 331.96 1198.79 334.647 1198.79 337.96V400.881ZM1198.79 324.062C1198.79 327.376 1201.48 330.062 1204.79 330.062H1253.18C1256.49 330.062 1259.18 327.376 1259.18 324.062V261.139C1259.18 257.826 1256.49 255.139 1253.18 255.139H1204.79C1201.48 255.139 1198.79 257.826 1198.79 261.139V324.062ZM1198.79 247.241C1198.79 250.555 1201.48 253.241 1204.79 253.241H1253.18C1256.49 253.241 1259.18 250.555 1259.18 247.241V184.32C1259.18 181.007 1256.49 178.32 1253.18 178.32H1204.79C1201.48 178.32 1198.79 181.007 1198.79 184.32V247.241ZM1198.79 170.422C1198.79 173.736 1201.48 176.422 1204.79 176.422H1253.18C1256.49 176.422 1259.18 173.736 1259.18 170.422V107.501C1259.18 104.187 1256.49 101.501 1253.18 101.501H1204.79C1201.48 101.501 1198.79 104.187 1198.79 107.501V170.422ZM1198.79 93.603C1198.79 96.9167 1201.48 99.603 1204.79 99.603H1253.18C1256.49 99.603 1259.18 96.9167 1259.18 93.603V30.6801C1259.18 27.3664 1256.49 24.6801 1253.18 24.6801H1204.79C1201.48 24.6801 1198.79 27.3664 1198.79 30.6801V93.603ZM1191.26 24.6801C1194.58 24.6801 1197.26 27.3664 1197.26 30.6801V93.603C1197.26 96.9167 1194.58 99.603 1191.26 99.603H1142.88C1139.56 99.603 1136.88 96.9167 1136.88 93.603V30.6801C1136.88 27.3664 1139.56 24.6801 1142.88 24.6801H1191.26ZM1191.26 101.501C1194.58 101.501 1197.26 104.187 1197.26 107.501V170.422C1197.26 173.736 1194.58 176.422 1191.26 176.422H1142.88C1139.56 176.422 1136.88 173.736 1136.88 170.422V107.501C1136.88 104.187 1139.56 101.501 1142.88 101.501H1191.26ZM1191.26 178.32C1194.58 178.32 1197.26 181.007 1197.26 184.32V247.241C1197.26 250.555 1194.58 253.241 1191.26 253.241H1142.88C1139.56 253.241 1136.88 250.555 1136.88 247.241V184.32C1136.88 181.007 1139.56 178.32 1142.88 178.32H1191.26ZM1191.26 255.139C1194.58 255.139 1197.26 257.826 1197.26 261.139V324.062C1197.26 327.376 1194.58 330.062 1191.26 330.062H1142.88C1139.56 330.062 1136.88 327.376 1136.88 324.062V261.139C1136.88 257.826 1139.56 255.139 1142.88 255.139H1191.26ZM1191.26 331.96C1194.58 331.96 1197.26 334.647 1197.26 337.96V400.881C1197.26 404.195 1194.58 406.881 1191.26 406.881H1142.88C1139.56 406.881 1136.88 404.195 1136.88 400.881V337.96C1136.88 334.647 1139.56 331.96 1142.88 331.96H1191.26ZM1191.26 408.779C1194.58 408.779 1197.26 411.466 1197.26 414.779V477.702C1197.26 481.016 1194.58 483.702 1191.26 483.702H1142.88C1139.56 483.702 1136.88 481.016 1136.88 477.702V414.779C1136.88 411.466 1139.56 408.779 1142.88 408.779H1191.26ZM1191.26 485.6C1194.58 485.6 1197.26 488.287 1197.26 491.6V554.521C1197.26 557.835 1194.58 560.521 1191.26 560.521H1142.88C1139.56 560.521 1136.88 557.835 1136.88 554.521V491.6C1136.88 488.287 1139.56 485.6 1142.88 485.6H1191.26ZM1191.26 562.42C1194.58 562.42 1197.26 565.106 1197.26 568.42V631.342C1197.26 634.656 1194.58 637.342 1191.26 637.342H1142.88C1139.56 637.342 1136.88 634.656 1136.88 631.342V568.42C1136.88 565.106 1139.56 562.42 1142.88 562.42H1191.26ZM1191.26 639.241C1194.58 639.241 1197.26 641.927 1197.26 645.241V708.162C1197.26 711.475 1194.58 714.162 1191.26 714.162H1142.88C1139.56 714.162 1136.88 711.475 1136.88 708.162V645.241C1136.88 641.927 1139.56 639.241 1142.88 639.241H1191.26ZM1191.26 716.06C1194.58 716.06 1197.26 718.746 1197.26 722.06V784.983C1197.26 788.296 1194.58 790.983 1191.26 790.983H1142.88C1139.56 790.983 1136.88 788.296 1136.88 784.983V722.06C1136.88 718.746 1139.56 716.06 1142.88 716.06H1191.26ZM1191.26 792.881C1194.58 792.881 1197.26 795.567 1197.26 798.881V861.802C1197.26 865.115 1194.58 867.802 1191.26 867.802H1142.88C1139.56 867.802 1136.88 865.115 1136.88 861.802V798.881C1136.88 795.567 1139.56 792.881 1142.88 792.881H1191.26ZM1191.26 869.7C1194.58 869.7 1197.26 872.386 1197.26 875.7V938.621C1197.26 941.934 1194.58 944.621 1191.26 944.621H1142.88C1139.56 944.621 1136.88 941.934 1136.88 938.621V875.7C1136.88 872.386 1139.56 869.7 1142.88 869.7H1191.26ZM1074.96 938.621C1074.96 941.934 1077.65 944.621 1080.96 944.621L1129.35 944.621C1132.66 944.621 1135.35 941.934 1135.35 938.621V875.7C1135.35 872.386 1132.66 869.7 1129.35 869.7H1080.96C1077.65 869.7 1074.96 872.386 1074.96 875.7V938.621ZM1074.96 861.802C1074.96 865.115 1077.65 867.802 1080.96 867.802H1129.35C1132.66 867.802 1135.35 865.115 1135.35 861.802V798.881C1135.35 795.567 1132.66 792.881 1129.35 792.881H1080.96C1077.65 792.881 1074.96 795.567 1074.96 798.881V861.802ZM1074.96 784.983C1074.96 788.296 1077.65 790.983 1080.96 790.983H1129.35C1132.66 790.983 1135.35 788.296 1135.35 784.983V722.06C1135.35 718.746 1132.66 716.06 1129.35 716.06H1080.96C1077.65 716.06 1074.96 718.746 1074.96 722.06V784.983ZM1074.96 708.162C1074.96 711.475 1077.65 714.162 1080.96 714.162H1129.35C1132.66 714.162 1135.35 711.475 1135.35 708.162V645.241C1135.35 641.927 1132.66 639.241 1129.35 639.241H1080.96C1077.65 639.241 1074.96 641.927 1074.96 645.241V708.162ZM1074.96 631.342C1074.96 634.656 1077.65 637.342 1080.96 637.342H1129.35C1132.66 637.342 1135.35 634.656 1135.35 631.342V568.42C1135.35 565.106 1132.66 562.42 1129.35 562.42H1080.96C1077.65 562.42 1074.96 565.106 1074.96 568.42V631.342ZM1074.96 554.521C1074.96 557.835 1077.65 560.521 1080.96 560.521H1129.35C1132.66 560.521 1135.35 557.835 1135.35 554.521V491.6C1135.35 488.287 1132.66 485.6 1129.35 485.6H1080.96C1077.65 485.6 1074.96 488.287 1074.96 491.6V554.521ZM1074.96 477.702C1074.96 481.016 1077.65 483.702 1080.96 483.702H1129.35C1132.66 483.702 1135.35 481.016 1135.35 477.702V414.779C1135.35 411.466 1132.66 408.779 1129.35 408.779H1080.96C1077.65 408.779 1074.96 411.466 1074.96 414.779V477.702ZM1074.96 400.881C1074.96 404.195 1077.65 406.881 1080.96 406.881H1129.35C1132.66 406.881 1135.35 404.195 1135.35 400.881V337.96C1135.35 334.647 1132.66 331.96 1129.35 331.96H1080.96C1077.65 331.96 1074.96 334.647 1074.96 337.96V400.881ZM1074.96 324.062C1074.96 327.376 1077.65 330.062 1080.96 330.062H1129.35C1132.66 330.062 1135.35 327.376 1135.35 324.062V261.139C1135.35 257.826 1132.66 255.139 1129.35 255.139H1080.96C1077.65 255.139 1074.96 257.826 1074.96 261.139V324.062ZM1074.96 247.241C1074.96 250.555 1077.65 253.241 1080.96 253.241H1129.35C1132.66 253.241 1135.35 250.555 1135.35 247.241V184.32C1135.35 181.007 1132.66 178.32 1129.35 178.32H1080.96C1077.65 178.32 1074.96 181.007 1074.96 184.32V247.241ZM1074.96 170.422C1074.96 173.736 1077.65 176.422 1080.96 176.422H1129.35C1132.66 176.422 1135.35 173.736 1135.35 170.422V107.501C1135.35 104.187 1132.66 101.501 1129.35 101.501H1080.96C1077.65 101.501 1074.96 104.187 1074.96 107.501V170.422ZM1074.96 93.603C1074.96 96.9167 1077.65 99.603 1080.96 99.603H1129.35C1132.66 99.603 1135.35 96.9167 1135.35 93.603V30.6801C1135.35 27.3664 1132.66 24.6801 1129.35 24.6801H1080.96C1077.65 24.6801 1074.96 27.3664 1074.96 30.6801V93.603ZM1067.43 24.6801C1070.75 24.6801 1073.43 27.3664 1073.43 30.6801V93.603C1073.43 96.9167 1070.75 99.603 1067.43 99.603H1019.05C1015.73 99.603 1013.05 96.9167 1013.05 93.603V30.6801C1013.05 27.3664 1015.73 24.6801 1019.05 24.6801H1067.43ZM1067.43 101.501C1070.75 101.501 1073.43 104.187 1073.43 107.501V170.422C1073.43 173.736 1070.75 176.422 1067.43 176.422H1019.05C1015.73 176.422 1013.05 173.736 1013.05 170.422V107.501C1013.05 104.187 1015.73 101.501 1019.05 101.501H1067.43ZM1067.43 178.32C1070.75 178.32 1073.43 181.007 1073.43 184.32V247.241C1073.43 250.555 1070.75 253.241 1067.43 253.241H1019.05C1015.73 253.241 1013.05 250.555 1013.05 247.241V184.32C1013.05 181.007 1015.73 178.32 1019.05 178.32H1067.43ZM1067.43 255.139C1070.75 255.139 1073.43 257.826 1073.43 261.139V324.062C1073.43 327.376 1070.75 330.062 1067.43 330.062H1019.05C1015.73 330.062 1013.05 327.376 1013.05 324.062V261.139C1013.05 257.826 1015.73 255.139 1019.05 255.139H1067.43ZM1067.43 331.96C1070.75 331.96 1073.43 334.647 1073.43 337.96V400.881C1073.43 404.195 1070.75 406.881 1067.43 406.881H1019.05C1015.73 406.881 1013.05 404.195 1013.05 400.881V337.96C1013.05 334.647 1015.73 331.96 1019.05 331.96H1067.43ZM1067.43 408.779C1070.75 408.779 1073.43 411.466 1073.43 414.779V477.702C1073.43 481.016 1070.75 483.702 1067.43 483.702H1019.05C1015.73 483.702 1013.05 481.016 1013.05 477.702V414.779C1013.05 411.466 1015.73 408.779 1019.05 408.779H1067.43ZM1067.43 485.6C1070.75 485.6 1073.43 488.287 1073.43 491.6V554.521C1073.43 557.835 1070.75 560.521 1067.43 560.521H1019.05C1015.73 560.521 1013.05 557.835 1013.05 554.521V491.6C1013.05 488.287 1015.73 485.6 1019.05 485.6H1067.43ZM1067.43 562.42C1070.75 562.42 1073.43 565.106 1073.43 568.42V631.342C1073.43 634.656 1070.75 637.342 1067.43 637.342H1019.05C1015.73 637.342 1013.05 634.656 1013.05 631.342V568.42C1013.05 565.106 1015.73 562.42 1019.05 562.42H1067.43ZM1067.43 639.241C1070.75 639.241 1073.43 641.927 1073.43 645.241V708.162C1073.43 711.475 1070.75 714.162 1067.43 714.162H1019.05C1015.73 714.162 1013.05 711.475 1013.05 708.162V645.241C1013.05 641.927 1015.73 639.241 1019.05 639.241H1067.43ZM1067.43 716.06C1070.75 716.06 1073.43 718.746 1073.43 722.06V784.983C1073.43 788.296 1070.75 790.983 1067.43 790.983L1019.05 790.983C1015.73 790.983 1013.05 788.296 1013.05 784.983V722.06C1013.05 718.746 1015.73 716.06 1019.05 716.06H1067.43ZM1067.43 792.881C1070.75 792.881 1073.43 795.567 1073.43 798.881V861.802C1073.43 865.115 1070.75 867.802 1067.43 867.802L1019.05 867.802C1015.73 867.802 1013.05 865.115 1013.05 861.802V798.881C1013.05 795.567 1015.73 792.881 1019.05 792.881L1067.43 792.881ZM1067.43 869.7C1070.75 869.7 1073.43 872.386 1073.43 875.7V938.621C1073.43 941.934 1070.75 944.621 1067.43 944.621H1019.05C1015.73 944.621 1013.05 941.934 1013.05 938.621V875.7C1013.05 872.386 1015.73 869.7 1019.05 869.7L1067.43 869.7ZM951.133 938.621C951.133 941.934 953.819 944.621 957.133 944.621H1005.52C1008.83 944.621 1011.52 941.934 1011.52 938.621V875.7C1011.52 872.386 1008.83 869.7 1005.52 869.7H957.133C953.819 869.7 951.133 872.386 951.133 875.7V938.621ZM951.133 861.802C951.133 865.115 953.819 867.802 957.133 867.802H1005.52C1008.83 867.802 1011.52 865.115 1011.52 861.802V798.881C1011.52 795.567 1008.83 792.881 1005.52 792.881H957.133C953.819 792.881 951.133 795.567 951.133 798.881V861.802ZM951.133 784.983C951.133 788.296 953.819 790.983 957.133 790.983H1005.52C1008.83 790.983 1011.52 788.296 1011.52 784.983V722.06C1011.52 718.746 1008.83 716.06 1005.52 716.06H957.133C953.819 716.06 951.133 718.746 951.133 722.06V784.983ZM951.133 708.162C951.133 711.475 953.819 714.162 957.133 714.162H1005.52C1008.83 714.162 1011.52 711.475 1011.52 708.162V645.241C1011.52 641.927 1008.83 639.241 1005.52 639.241H957.133C953.819 639.241 951.133 641.927 951.133 645.241V708.162ZM951.133 631.342C951.133 634.656 953.819 637.342 957.133 637.342H1005.52C1008.83 637.342 1011.52 634.656 1011.52 631.342V568.42C1011.52 565.106 1008.83 562.42 1005.52 562.42H957.133C953.819 562.42 951.133 565.106 951.133 568.42V631.342ZM951.133 554.521C951.133 557.835 953.819 560.521 957.133 560.521H1005.52C1008.83 560.521 1011.52 557.835 1011.52 554.521V491.6C1011.52 488.287 1008.83 485.6 1005.52 485.6H957.133C953.819 485.6 951.133 488.287 951.133 491.6V554.521ZM951.133 477.702C951.133 481.016 953.819 483.702 957.133 483.702H1005.52C1008.83 483.702 1011.52 481.016 1011.52 477.702V414.779C1011.52 411.466 1008.83 408.779 1005.52 408.779H957.133C953.819 408.779 951.133 411.466 951.133 414.779V477.702ZM951.133 400.881C951.133 404.195 953.819 406.881 957.133 406.881H1005.52C1008.83 406.881 1011.52 404.195 1011.52 400.881V337.96C1011.52 334.647 1008.83 331.96 1005.52 331.96H957.133C953.819 331.96 951.133 334.647 951.133 337.96V400.881ZM951.133 324.062C951.133 327.376 953.819 330.062 957.133 330.062H1005.52C1008.83 330.062 1011.52 327.376 1011.52 324.062V261.139C1011.52 257.826 1008.83 255.139 1005.52 255.139H957.133C953.819 255.139 951.133 257.826 951.133 261.139V324.062ZM951.133 247.241C951.133 250.555 953.819 253.241 957.133 253.241H1005.52C1008.83 253.241 1011.52 250.555 1011.52 247.241V184.32C1011.52 181.007 1008.83 178.32 1005.52 178.32H957.133C953.819 178.32 951.133 181.007 951.133 184.32V247.241ZM951.133 170.422C951.133 173.736 953.819 176.422 957.133 176.422H1005.52C1008.83 176.422 1011.52 173.736 1011.52 170.422V107.501C1011.52 104.187 1008.83 101.501 1005.52 101.501H957.133C953.819 101.501 951.133 104.187 951.133 107.501V170.422ZM951.133 93.603C951.133 96.9167 953.819 99.603 957.133 99.603H1005.52C1008.83 99.603 1011.52 96.9167 1011.52 93.603V30.6801C1011.52 27.3664 1008.83 24.6801 1005.52 24.6801H957.133C953.819 24.6801 951.133 27.3664 951.133 30.6801V93.603ZM943.603 24.6801C946.917 24.6801 949.603 27.3664 949.603 30.6801V93.603C949.603 96.9167 946.917 99.603 943.603 99.603H895.217C891.904 99.603 889.217 96.9167 889.217 93.603V30.6801C889.217 27.3664 891.904 24.6801 895.217 24.6801H943.603ZM943.603 101.501C946.917 101.501 949.603 104.187 949.603 107.501V170.422C949.603 173.736 946.917 176.422 943.603 176.422H895.217C891.904 176.422 889.217 173.736 889.217 170.422V107.501C889.217 104.187 891.904 101.501 895.217 101.501H943.603ZM943.603 178.32C946.917 178.32 949.603 181.007 949.603 184.32V247.241C949.603 250.555 946.917 253.241 943.603 253.241H895.217C891.904 253.241 889.217 250.555 889.217 247.241V184.32C889.217 181.007 891.904 178.32 895.217 178.32H943.603ZM943.603 255.139C946.917 255.139 949.603 257.826 949.603 261.139V324.062C949.603 327.376 946.917 330.062 943.603 330.062H895.217C891.904 330.062 889.217 327.376 889.217 324.062V261.139C889.217 257.826 891.904 255.139 895.217 255.139H943.603ZM943.603 331.96C946.917 331.96 949.603 334.647 949.603 337.96V400.881C949.603 404.195 946.917 406.881 943.603 406.881H895.217C891.904 406.881 889.217 404.195 889.217 400.881V337.96C889.217 334.647 891.904 331.96 895.217 331.96H943.603ZM943.603 408.779C946.917 408.779 949.603 411.466 949.603 414.779V477.702C949.603 481.016 946.917 483.702 943.603 483.702H895.217C891.904 483.702 889.217 481.016 889.217 477.702V414.779C889.217 411.466 891.904 408.779 895.217 408.779H943.603ZM943.603 485.6C946.917 485.6 949.603 488.287 949.603 491.6V554.521C949.603 557.835 946.917 560.521 943.603 560.521L895.217 560.521C891.904 560.521 889.217 557.835 889.217 554.521V491.6C889.217 488.287 891.904 485.6 895.217 485.6H943.603ZM943.603 562.42C946.917 562.42 949.603 565.106 949.603 568.42V631.342C949.603 634.656 946.917 637.342 943.603 637.342L895.217 637.342C891.904 637.342 889.217 634.656 889.217 631.342V568.42C889.217 565.106 891.904 562.42 895.217 562.42L943.603 562.42ZM943.603 639.241C946.917 639.241 949.603 641.927 949.603 645.241V708.162C949.603 711.475 946.917 714.162 943.603 714.162L895.217 714.162C891.904 714.162 889.217 711.475 889.217 708.162V645.241C889.217 641.927 891.904 639.241 895.217 639.241L943.603 639.241ZM943.603 716.06C946.917 716.06 949.603 718.746 949.603 722.06V784.983C949.603 788.296 946.917 790.983 943.603 790.983H895.217C891.904 790.983 889.217 788.296 889.217 784.983V722.06C889.217 718.746 891.904 716.06 895.217 716.06L943.603 716.06ZM943.603 792.881C946.917 792.881 949.603 795.567 949.603 798.881V861.802C949.603 865.115 946.917 867.802 943.603 867.802H895.217C891.904 867.802 889.217 865.115 889.217 861.802V798.881C889.217 795.567 891.904 792.881 895.217 792.881H943.603ZM943.603 869.7C946.917 869.7 949.603 872.386 949.603 875.7V938.621C949.603 941.934 946.917 944.621 943.603 944.621H895.217C891.904 944.621 889.217 941.934 889.217 938.621V875.7C889.217 872.386 891.904 869.7 895.217 869.7H943.603ZM827.303 938.621C827.303 941.934 829.99 944.621 833.303 944.621H881.687C885.001 944.621 887.687 941.934 887.687 938.621V875.7C887.687 872.386 885.001 869.7 881.687 869.7H833.303C829.99 869.7 827.303 872.386 827.303 875.7V938.621ZM827.303 861.802C827.303 865.115 829.99 867.802 833.303 867.802H881.687C885.001 867.802 887.687 865.115 887.687 861.802V798.881C887.687 795.567 885.001 792.881 881.687 792.881H833.303C829.99 792.881 827.303 795.567 827.303 798.881V861.802ZM827.303 784.983C827.303 788.296 829.99 790.983 833.303 790.983H881.687C885.001 790.983 887.687 788.296 887.687 784.983V722.06C887.687 718.746 885.001 716.06 881.687 716.06H833.303C829.99 716.06 827.303 718.746 827.303 722.06V784.983ZM827.303 708.162C827.303 711.475 829.99 714.162 833.303 714.162H881.687C885.001 714.162 887.687 711.475 887.687 708.162V645.241C887.687 641.927 885.001 639.241 881.687 639.241H833.303C829.99 639.241 827.303 641.927 827.303 645.241V708.162ZM827.303 631.342C827.303 634.656 829.99 637.342 833.303 637.342H881.687C885.001 637.342 887.687 634.656 887.687 631.342V568.42C887.687 565.106 885.001 562.42 881.687 562.42H833.303C829.99 562.42 827.303 565.106 827.303 568.42V631.342ZM827.303 554.521C827.303 557.835 829.99 560.521 833.303 560.521H881.687C885.001 560.521 887.687 557.835 887.687 554.521V491.6C887.687 488.287 885.001 485.6 881.687 485.6H833.303C829.99 485.6 827.303 488.287 827.303 491.6V554.521ZM827.303 477.702C827.303 481.016 829.99 483.702 833.303 483.702H881.687C885.001 483.702 887.687 481.016 887.687 477.702V414.779C887.687 411.466 885.001 408.779 881.687 408.779H833.303C829.99 408.779 827.303 411.466 827.303 414.779V477.702ZM827.303 400.881C827.303 404.195 829.99 406.881 833.303 406.881H881.687C885.001 406.881 887.687 404.195 887.687 400.881V337.96C887.687 334.647 885.001 331.96 881.687 331.96H833.303C829.99 331.96 827.303 334.647 827.303 337.96V400.881ZM827.303 324.062C827.303 327.376 829.99 330.062 833.303 330.062H881.687C885.001 330.062 887.687 327.376 887.687 324.062V261.139C887.687 257.826 885.001 255.139 881.687 255.139H833.303C829.99 255.139 827.303 257.826 827.303 261.139V324.062ZM827.303 247.241C827.303 250.555 829.99 253.241 833.303 253.241H881.687C885.001 253.241 887.687 250.555 887.687 247.241V184.32C887.687 181.007 885.001 178.32 881.687 178.32H833.303C829.99 178.32 827.303 181.007 827.303 184.32V247.241ZM827.303 170.422C827.303 173.736 829.99 176.422 833.303 176.422H881.687C885.001 176.422 887.687 173.736 887.687 170.422V107.501C887.687 104.187 885.001 101.501 881.687 101.501H833.303C829.99 101.501 827.303 104.187 827.303 107.501V170.422ZM827.303 93.603C827.303 96.9167 829.99 99.603 833.303 99.603H881.687C885.001 99.603 887.687 96.9167 887.687 93.603V30.6801C887.687 27.3664 885.001 24.6801 881.687 24.6801H833.303C829.99 24.6801 827.303 27.3664 827.303 30.6801V93.603ZM819.774 24.6801C823.087 24.6801 825.774 27.3664 825.774 30.6801V93.603C825.774 96.9167 823.087 99.603 819.774 99.603H771.388C768.074 99.603 765.388 96.9167 765.388 93.603V30.6801C765.388 27.3664 768.074 24.6801 771.388 24.6801H819.774ZM819.774 101.501C823.087 101.501 825.774 104.187 825.774 107.501V170.422C825.774 173.736 823.087 176.422 819.774 176.422H771.388C768.074 176.422 765.388 173.736 765.388 170.422V107.501C765.388 104.187 768.074 101.501 771.388 101.501H819.774ZM819.774 178.32C823.087 178.32 825.774 181.007 825.774 184.32V247.241C825.774 250.555 823.087 253.241 819.774 253.241H771.388C768.074 253.241 765.388 250.555 765.388 247.241V184.32C765.388 181.007 768.074 178.32 771.388 178.32H819.774ZM819.774 255.139C823.087 255.139 825.774 257.826 825.774 261.139V324.062C825.774 327.376 823.087 330.062 819.774 330.062H771.388C768.074 330.062 765.388 327.376 765.388 324.062V261.139C765.388 257.826 768.074 255.139 771.388 255.139H819.774ZM819.774 331.96C823.087 331.96 825.774 334.647 825.774 337.96V400.881C825.774 404.195 823.087 406.881 819.774 406.881H771.388C768.074 406.881 765.388 404.195 765.388 400.881V337.96C765.388 334.647 768.074 331.96 771.388 331.96H819.774ZM819.774 408.779C823.087 408.779 825.774 411.466 825.774 414.779V477.702C825.774 481.016 823.087 483.702 819.774 483.702H771.388C768.074 483.702 765.388 481.016 765.388 477.702V414.779C765.388 411.466 768.074 408.779 771.388 408.779H819.774ZM819.774 485.6C823.087 485.6 825.774 488.287 825.774 491.6V554.521C825.774 557.835 823.087 560.521 819.774 560.521H771.388C768.074 560.521 765.388 557.835 765.388 554.521V491.6C765.388 488.287 768.074 485.6 771.388 485.6H819.774ZM819.774 562.42C823.087 562.42 825.774 565.106 825.774 568.42V631.342C825.774 634.656 823.087 637.342 819.774 637.342H771.388C768.074 637.342 765.388 634.656 765.388 631.342V568.42C765.388 565.106 768.074 562.42 771.388 562.42H819.774ZM819.774 639.241C823.087 639.241 825.774 641.927 825.774 645.241V708.162C825.774 711.475 823.087 714.162 819.774 714.162H771.388C768.074 714.162 765.388 711.475 765.388 708.162V645.241C765.388 641.927 768.074 639.241 771.388 639.241H819.774ZM819.774 716.06C823.087 716.06 825.774 718.746 825.774 722.06V784.983C825.774 788.296 823.087 790.983 819.774 790.983H771.388C768.074 790.983 765.388 788.296 765.388 784.983V722.06C765.388 718.746 768.074 716.06 771.388 716.06H819.774ZM819.774 792.881C823.087 792.881 825.774 795.567 825.774 798.881V861.802C825.774 865.115 823.087 867.802 819.774 867.802H771.388C768.074 867.802 765.388 865.115 765.388 861.802V798.881C765.388 795.567 768.074 792.881 771.388 792.881H819.774ZM819.774 869.7C823.087 869.7 825.774 872.386 825.774 875.7V938.621C825.774 941.934 823.087 944.621 819.774 944.621H771.388C768.074 944.621 765.388 941.934 765.388 938.621V875.7C765.388 872.386 768.074 869.7 771.388 869.7H819.774ZM703.474 938.621C703.474 941.934 706.16 944.621 709.474 944.621H757.858C761.172 944.621 763.858 941.934 763.858 938.621V875.7C763.858 872.386 761.172 869.7 757.858 869.7H709.474C706.16 869.7 703.474 872.386 703.474 875.7V938.621ZM703.474 861.802C703.474 865.115 706.16 867.802 709.474 867.802H757.858C761.172 867.802 763.858 865.115 763.858 861.802V798.881C763.858 795.567 761.172 792.881 757.858 792.881H709.474C706.16 792.881 703.474 795.567 703.474 798.881V861.802ZM703.474 784.983C703.474 788.296 706.16 790.983 709.474 790.983H757.858C761.172 790.983 763.858 788.296 763.858 784.983V722.06C763.858 718.746 761.172 716.06 757.858 716.06H709.474C706.16 716.06 703.474 718.746 703.474 722.06V784.983ZM703.474 708.162C703.474 711.475 706.16 714.162 709.474 714.162H757.858C761.172 714.162 763.858 711.475 763.858 708.162V645.241C763.858 641.927 761.172 639.241 757.858 639.241H709.474C706.16 639.241 703.474 641.927 703.474 645.241V708.162ZM703.474 631.342C703.474 634.656 706.16 637.342 709.474 637.342H757.858C761.172 637.342 763.858 634.656 763.858 631.342V568.42C763.858 565.106 761.172 562.42 757.858 562.42H709.474C706.16 562.42 703.474 565.106 703.474 568.42V631.342ZM703.474 554.521C703.474 557.835 706.16 560.521 709.474 560.521H757.858C761.172 560.521 763.858 557.835 763.858 554.521V491.6C763.858 488.287 761.172 485.6 757.858 485.6H709.474C706.16 485.6 703.474 488.287 703.474 491.6V554.521ZM703.474 477.702C703.474 481.016 706.16 483.702 709.474 483.702H757.858C761.172 483.702 763.858 481.016 763.858 477.702V414.779C763.858 411.466 761.172 408.779 757.858 408.779H709.474C706.16 408.779 703.474 411.466 703.474 414.779V477.702ZM703.474 400.881C703.474 404.195 706.16 406.881 709.474 406.881H757.858C761.172 406.881 763.858 404.195 763.858 400.881V337.96C763.858 334.647 761.172 331.96 757.858 331.96H709.474C706.16 331.96 703.474 334.647 703.474 337.96V400.881ZM703.474 324.062C703.474 327.376 706.16 330.062 709.474 330.062H757.858C761.172 330.062 763.858 327.376 763.858 324.062V261.139C763.858 257.826 761.172 255.139 757.858 255.139H709.474C706.16 255.139 703.474 257.826 703.474 261.139V324.062ZM703.474 247.241C703.474 250.555 706.16 253.241 709.474 253.241H757.858C761.172 253.241 763.858 250.555 763.858 247.241V184.32C763.858 181.007 761.172 178.32 757.858 178.32H709.474C706.16 178.32 703.474 181.007 703.474 184.32V247.241ZM703.474 170.422C703.474 173.736 706.16 176.422 709.474 176.422H757.858C761.172 176.422 763.858 173.736 763.858 170.422V107.501C763.858 104.187 761.172 101.501 757.858 101.501H709.474C706.16 101.501 703.474 104.187 703.474 107.501V170.422ZM703.474 93.603C703.474 96.9167 706.16 99.603 709.474 99.603H757.858C761.172 99.603 763.858 96.9167 763.858 93.603V30.6801C763.858 27.3664 761.172 24.6801 757.858 24.6801H709.474C706.16 24.6801 703.474 27.3664 703.474 30.6801V93.603ZM695.944 24.6801C699.258 24.6801 701.944 27.3664 701.944 30.6801V93.603C701.944 96.9167 699.258 99.603 695.944 99.603H647.559C644.245 99.603 641.559 96.9167 641.559 93.603V30.6801C641.559 27.3664 644.245 24.6801 647.559 24.6801H695.944ZM695.944 101.501C699.258 101.501 701.944 104.187 701.944 107.501V170.422C701.944 173.736 699.258 176.422 695.944 176.422H647.559C644.245 176.422 641.559 173.736 641.559 170.422V107.501C641.559 104.187 644.245 101.501 647.559 101.501H695.944ZM695.944 178.32C699.258 178.32 701.944 181.007 701.944 184.32V247.241C701.944 250.555 699.258 253.241 695.944 253.241H647.559C644.245 253.241 641.559 250.555 641.559 247.241V184.32C641.559 181.007 644.245 178.32 647.559 178.32H695.944ZM695.944 255.139C699.258 255.139 701.944 257.826 701.944 261.139V324.062C701.944 327.376 699.258 330.062 695.944 330.062H647.559C644.245 330.062 641.559 327.376 641.559 324.062V261.139C641.559 257.826 644.245 255.139 647.559 255.139H695.944ZM695.944 331.96C699.258 331.96 701.944 334.647 701.944 337.96V400.881C701.944 404.195 699.258 406.881 695.944 406.881H647.559C644.245 406.881 641.559 404.195 641.559 400.881V337.96C641.559 334.647 644.245 331.96 647.559 331.96H695.944ZM695.944 408.779C699.258 408.779 701.944 411.466 701.944 414.779V477.702C701.944 481.016 699.258 483.702 695.944 483.702H647.559C644.245 483.702 641.559 481.016 641.559 477.702V414.779C641.559 411.466 644.245 408.779 647.559 408.779H695.944ZM695.944 485.6C699.258 485.6 701.944 488.287 701.944 491.6V554.521C701.944 557.835 699.258 560.521 695.944 560.521H647.559C644.245 560.521 641.559 557.835 641.559 554.521V491.6C641.559 488.287 644.245 485.6 647.559 485.6H695.944ZM695.944 562.42C699.258 562.42 701.944 565.106 701.944 568.42V631.342C701.944 634.656 699.258 637.342 695.944 637.342H647.559C644.245 637.342 641.559 634.656 641.559 631.342V568.42C641.559 565.106 644.245 562.42 647.559 562.42H695.944ZM695.944 639.241C699.258 639.241 701.944 641.927 701.944 645.241V708.162C701.944 711.475 699.258 714.162 695.944 714.162H647.559C644.245 714.162 641.559 711.475 641.559 708.162V645.241C641.559 641.927 644.245 639.241 647.559 639.241H695.944ZM695.944 716.06C699.258 716.06 701.944 718.746 701.944 722.06V784.983C701.944 788.296 699.258 790.983 695.944 790.983H647.559C644.245 790.983 641.559 788.296 641.559 784.983V722.06C641.559 718.746 644.245 716.06 647.559 716.06H695.944ZM695.944 792.881C699.258 792.881 701.944 795.567 701.944 798.881V861.802C701.944 865.115 699.258 867.802 695.944 867.802H647.559C644.245 867.802 641.559 865.115 641.559 861.802V798.881C641.559 795.567 644.245 792.881 647.559 792.881H695.944ZM695.944 869.7C699.258 869.7 701.944 872.386 701.944 875.7V938.621C701.944 941.934 699.258 944.621 695.944 944.621H647.559C644.245 944.621 641.559 941.934 641.559 938.621V875.7C641.559 872.386 644.245 869.7 647.559 869.7H695.944ZM579.645 938.621C579.645 941.934 582.331 944.621 585.645 944.621H634.029C637.343 944.621 640.029 941.934 640.029 938.621V875.7C640.029 872.386 637.343 869.7 634.029 869.7H585.645C582.331 869.7 579.645 872.386 579.645 875.7V938.621ZM579.645 861.802C579.645 865.115 582.331 867.802 585.645 867.802H634.029C637.343 867.802 640.029 865.115 640.029 861.802V798.881C640.029 795.567 637.343 792.881 634.029 792.881H585.645C582.331 792.881 579.645 795.567 579.645 798.881V861.802ZM579.645 784.983C579.645 788.296 582.331 790.983 585.645 790.983H634.029C637.343 790.983 640.029 788.296 640.029 784.983V722.06C640.029 718.746 637.343 716.06 634.029 716.06H585.645C582.331 716.06 579.645 718.746 579.645 722.06V784.983ZM579.645 708.162C579.645 711.475 582.331 714.162 585.645 714.162H634.029C637.343 714.162 640.029 711.475 640.029 708.162V645.241C640.029 641.927 637.343 639.241 634.029 639.241H585.645C582.331 639.241 579.645 641.927 579.645 645.241V708.162ZM579.645 631.342C579.645 634.656 582.331 637.342 585.645 637.342H634.029C637.343 637.342 640.029 634.656 640.029 631.342V568.42C640.029 565.106 637.343 562.42 634.029 562.42H585.645C582.331 562.42 579.645 565.106 579.645 568.42V631.342ZM579.645 554.521C579.645 557.835 582.331 560.521 585.645 560.521H634.029C637.343 560.521 640.029 557.835 640.029 554.521V491.6C640.029 488.287 637.343 485.6 634.029 485.6H585.645C582.331 485.6 579.645 488.287 579.645 491.6V554.521ZM579.645 477.702C579.645 481.016 582.331 483.702 585.645 483.702H634.029C637.343 483.702 640.029 481.016 640.029 477.702V414.779C640.029 411.466 637.343 408.779 634.029 408.779H585.645C582.331 408.779 579.645 411.466 579.645 414.779V477.702ZM579.645 400.881C579.645 404.195 582.331 406.881 585.645 406.881H634.029C637.343 406.881 640.029 404.195 640.029 400.881V337.96C640.029 334.647 637.343 331.96 634.029 331.96H585.645C582.331 331.96 579.645 334.647 579.645 337.96V400.881ZM579.645 324.062C579.645 327.376 582.331 330.062 585.645 330.062H634.029C637.343 330.062 640.029 327.376 640.029 324.062V261.139C640.029 257.826 637.343 255.139 634.029 255.139H585.645C582.331 255.139 579.645 257.826 579.645 261.139V324.062ZM579.645 247.241C579.645 250.555 582.331 253.241 585.645 253.241H634.029C637.343 253.241 640.029 250.555 640.029 247.241V184.32C640.029 181.007 637.343 178.32 634.029 178.32H585.645C582.331 178.32 579.645 181.007 579.645 184.32V247.241ZM579.645 170.422C579.645 173.736 582.331 176.422 585.645 176.422H634.029C637.343 176.422 640.029 173.736 640.029 170.422V107.501C640.029 104.187 637.343 101.501 634.029 101.501H585.645C582.331 101.501 579.645 104.187 579.645 107.501V170.422ZM579.645 93.603C579.645 96.9167 582.331 99.603 585.645 99.603H634.029C637.343 99.603 640.029 96.9167 640.029 93.603V30.6801C640.029 27.3664 637.343 24.6801 634.029 24.6801H585.645C582.331 24.6801 579.645 27.3664 579.645 30.6801V93.603ZM572.115 24.6801C575.429 24.6801 578.115 27.3664 578.115 30.6801V93.603C578.115 96.9167 575.429 99.603 572.115 99.603H523.729C520.416 99.603 517.729 96.9167 517.729 93.603V30.6801C517.729 27.3664 520.416 24.6801 523.729 24.6801H572.115ZM572.115 101.501C575.429 101.501 578.115 104.187 578.115 107.501V170.422C578.115 173.736 575.429 176.422 572.115 176.422H523.729C520.416 176.422 517.729 173.736 517.729 170.422V107.501C517.729 104.187 520.416 101.501 523.729 101.501H572.115ZM572.115 178.32C575.429 178.32 578.115 181.007 578.115 184.32V247.241C578.115 250.555 575.429 253.241 572.115 253.241H523.729C520.416 253.241 517.729 250.555 517.729 247.241V184.32C517.729 181.007 520.416 178.32 523.729 178.32H572.115ZM572.115 255.139C575.429 255.139 578.115 257.826 578.115 261.139V324.062C578.115 327.376 575.429 330.062 572.115 330.062H523.729C520.416 330.062 517.729 327.376 517.729 324.062V261.139C517.729 257.826 520.416 255.139 523.729 255.139H572.115ZM572.115 331.96C575.429 331.96 578.115 334.647 578.115 337.96V400.881C578.115 404.195 575.429 406.881 572.115 406.881H523.729C520.416 406.881 517.729 404.195 517.729 400.881V337.96C517.729 334.647 520.416 331.96 523.729 331.96H572.115ZM572.115 408.779C575.429 408.779 578.115 411.466 578.115 414.779V477.702C578.115 481.016 575.429 483.702 572.115 483.702H523.729C520.416 483.702 517.729 481.016 517.729 477.702V414.779C517.729 411.466 520.416 408.779 523.729 408.779H572.115ZM572.115 485.6C575.429 485.6 578.115 488.287 578.115 491.6V554.521C578.115 557.835 575.429 560.521 572.115 560.521H523.729C520.416 560.521 517.729 557.835 517.729 554.521V491.6C517.729 488.287 520.416 485.6 523.729 485.6H572.115ZM572.115 562.42C575.429 562.42 578.115 565.106 578.115 568.42V631.342C578.115 634.656 575.429 637.342 572.115 637.342H523.729C520.416 637.342 517.729 634.656 517.729 631.342V568.42C517.729 565.106 520.416 562.42 523.729 562.42H572.115ZM572.115 639.241C575.429 639.241 578.115 641.927 578.115 645.241V708.162C578.115 711.475 575.429 714.162 572.115 714.162H523.729C520.416 714.162 517.729 711.475 517.729 708.162V645.241C517.729 641.927 520.416 639.241 523.729 639.241H572.115ZM572.115 716.06C575.429 716.06 578.115 718.746 578.115 722.06V784.983C578.115 788.296 575.429 790.983 572.115 790.983H523.729C520.416 790.983 517.729 788.296 517.729 784.983V722.06C517.729 718.746 520.416 716.06 523.729 716.06H572.115ZM572.115 792.881C575.429 792.881 578.115 795.567 578.115 798.881V861.802C578.115 865.115 575.429 867.802 572.115 867.802H523.729C520.416 867.802 517.729 865.115 517.729 861.802V798.881C517.729 795.567 520.416 792.881 523.729 792.881H572.115ZM572.115 869.7C575.429 869.7 578.115 872.386 578.115 875.7V938.621C578.115 941.934 575.429 944.621 572.115 944.621H523.729C520.416 944.621 517.729 941.934 517.729 938.621V875.7C517.729 872.386 520.416 869.7 523.729 869.7H572.115ZM455.817 938.621C455.817 941.934 458.504 944.621 461.817 944.621H510.2C513.513 944.621 516.2 941.934 516.2 938.621V875.7C516.2 872.386 513.513 869.7 510.2 869.7H461.817C458.504 869.7 455.817 872.386 455.817 875.7V938.621ZM455.817 861.802C455.817 865.115 458.504 867.802 461.817 867.802H510.2C513.513 867.802 516.2 865.115 516.2 861.802V798.881C516.2 795.567 513.513 792.881 510.2 792.881H461.817C458.504 792.881 455.817 795.567 455.817 798.881V861.802ZM455.817 784.983C455.817 788.296 458.504 790.983 461.817 790.983H510.2C513.513 790.983 516.2 788.296 516.2 784.983V722.06C516.2 718.746 513.513 716.06 510.2 716.06H461.817C458.504 716.06 455.817 718.746 455.817 722.06V784.983ZM455.817 708.162C455.817 711.475 458.504 714.162 461.817 714.162H510.2C513.513 714.162 516.2 711.475 516.2 708.162V645.241C516.2 641.927 513.513 639.241 510.2 639.241H461.817C458.504 639.241 455.817 641.927 455.817 645.241V708.162ZM455.817 631.342C455.817 634.656 458.504 637.342 461.817 637.342H510.2C513.513 637.342 516.2 634.656 516.2 631.342V568.42C516.2 565.106 513.513 562.42 510.2 562.42H461.817C458.504 562.42 455.817 565.106 455.817 568.42V631.342ZM455.817 554.521C455.817 557.835 458.504 560.521 461.817 560.521H510.2C513.513 560.521 516.2 557.835 516.2 554.521V491.6C516.2 488.287 513.513 485.6 510.2 485.6H461.817C458.504 485.6 455.817 488.287 455.817 491.6V554.521ZM455.817 477.702C455.817 481.016 458.504 483.702 461.817 483.702H510.2C513.513 483.702 516.2 481.016 516.2 477.702V414.779C516.2 411.466 513.513 408.779 510.2 408.779H461.817C458.504 408.779 455.817 411.466 455.817 414.779V477.702ZM455.817 400.881C455.817 404.195 458.504 406.881 461.817 406.881H510.2C513.513 406.881 516.2 404.195 516.2 400.881V337.96C516.2 334.647 513.513 331.96 510.2 331.96H461.817C458.504 331.96 455.817 334.647 455.817 337.96V400.881ZM455.817 324.062C455.817 327.376 458.504 330.062 461.817 330.062H510.2C513.513 330.062 516.2 327.376 516.2 324.062V261.139C516.2 257.826 513.513 255.139 510.2 255.139H461.817C458.504 255.139 455.817 257.826 455.817 261.139V324.062ZM455.817 247.241C455.817 250.555 458.504 253.241 461.817 253.241H510.2C513.513 253.241 516.2 250.555 516.2 247.241V184.32C516.2 181.007 513.513 178.32 510.2 178.32H461.817C458.504 178.32 455.817 181.007 455.817 184.32V247.241ZM455.817 170.422C455.817 173.736 458.504 176.422 461.817 176.422H510.2C513.513 176.422 516.2 173.736 516.2 170.422V107.501C516.2 104.187 513.513 101.501 510.2 101.501H461.817C458.504 101.501 455.817 104.187 455.817 107.501V170.422ZM455.817 93.603C455.817 96.9167 458.504 99.603 461.817 99.603H510.2C513.513 99.603 516.2 96.9167 516.2 93.603V30.6801C516.2 27.3664 513.513 24.6801 510.2 24.6801H461.817C458.504 24.6801 455.817 27.3664 455.817 30.6801V93.603ZM448.287 24.6801C451.601 24.6801 454.287 27.3664 454.287 30.6801V93.603C454.287 96.9167 451.601 99.603 448.287 99.603H399.902C396.588 99.603 393.902 96.9167 393.902 93.603V30.6801C393.902 27.3664 396.588 24.6801 399.902 24.6801H448.287ZM448.287 101.501C451.601 101.501 454.287 104.187 454.287 107.501V170.422C454.287 173.736 451.601 176.422 448.287 176.422H399.902C396.588 176.422 393.902 173.736 393.902 170.422V107.501C393.902 104.187 396.588 101.501 399.902 101.501H448.287ZM448.287 178.32C451.601 178.32 454.287 181.007 454.287 184.32V247.241C454.287 250.555 451.601 253.241 448.287 253.241H399.902C396.588 253.241 393.902 250.555 393.902 247.241V184.32C393.902 181.007 396.588 178.32 399.902 178.32H448.287ZM448.287 255.139C451.601 255.139 454.287 257.826 454.287 261.139V324.062C454.287 327.376 451.601 330.062 448.287 330.062H399.902C396.588 330.062 393.902 327.376 393.902 324.062V261.139C393.902 257.826 396.588 255.139 399.902 255.139H448.287ZM448.287 331.96C451.601 331.96 454.287 334.647 454.287 337.96V400.881C454.287 404.195 451.601 406.881 448.287 406.881H399.902C396.588 406.881 393.902 404.195 393.902 400.881V337.96C393.902 334.647 396.588 331.96 399.902 331.96H448.287ZM448.287 408.779C451.601 408.779 454.287 411.466 454.287 414.779V477.702C454.287 481.016 451.601 483.702 448.287 483.702H399.902C396.588 483.702 393.902 481.016 393.902 477.702V414.779C393.902 411.466 396.588 408.779 399.902 408.779H448.287ZM448.287 485.6C451.601 485.6 454.287 488.287 454.287 491.6V554.521C454.287 557.835 451.601 560.521 448.287 560.521L399.902 560.521C396.588 560.521 393.902 557.835 393.902 554.521V491.6C393.902 488.287 396.588 485.6 399.902 485.6H448.287ZM448.287 562.42C451.601 562.42 454.287 565.106 454.287 568.42V631.342C454.287 634.656 451.601 637.342 448.287 637.342L399.902 637.342C396.588 637.342 393.902 634.656 393.902 631.342V568.42C393.902 565.106 396.588 562.42 399.902 562.42L448.287 562.42ZM448.287 639.241C451.601 639.241 454.287 641.927 454.287 645.241V708.162C454.287 711.475 451.601 714.162 448.287 714.162L399.902 714.162C396.588 714.162 393.902 711.475 393.902 708.162V645.241C393.902 641.927 396.588 639.241 399.902 639.241L448.287 639.241ZM448.287 716.06C451.601 716.06 454.287 718.746 454.287 722.06V784.983C454.287 788.296 451.601 790.983 448.287 790.983H399.902C396.588 790.983 393.902 788.296 393.902 784.983V722.06C393.902 718.746 396.588 716.06 399.902 716.06L448.287 716.06ZM448.287 792.881C451.601 792.881 454.287 795.567 454.287 798.881V861.802C454.287 865.115 451.601 867.802 448.287 867.802H399.902C396.588 867.802 393.902 865.115 393.902 861.802V798.881C393.902 795.567 396.588 792.881 399.902 792.881H448.287ZM448.287 869.7C451.601 869.7 454.287 872.386 454.287 875.7V938.621C454.287 941.934 451.601 944.621 448.287 944.621H399.902C396.588 944.621 393.902 941.934 393.902 938.621V875.7C393.902 872.386 396.588 869.7 399.902 869.7H448.287ZM331.988 938.621C331.988 941.934 334.674 944.621 337.988 944.621H386.372C389.686 944.621 392.372 941.934 392.372 938.621V875.7C392.372 872.386 389.686 869.7 386.372 869.7H337.988C334.674 869.7 331.988 872.386 331.988 875.7V938.621ZM331.988 861.802C331.988 865.115 334.674 867.802 337.988 867.802H386.372C389.686 867.802 392.372 865.115 392.372 861.802V798.881C392.372 795.567 389.686 792.881 386.372 792.881H337.988C334.674 792.881 331.988 795.567 331.988 798.881V861.802ZM331.988 784.983C331.988 788.296 334.674 790.983 337.988 790.983H386.372C389.686 790.983 392.372 788.296 392.372 784.983V722.06C392.372 718.746 389.686 716.06 386.372 716.06H337.988C334.674 716.06 331.988 718.746 331.988 722.06V784.983ZM331.988 708.162C331.988 711.475 334.674 714.162 337.988 714.162H386.372C389.686 714.162 392.372 711.475 392.372 708.162V645.241C392.372 641.927 389.686 639.241 386.372 639.241H337.988C334.674 639.241 331.988 641.927 331.988 645.241V708.162ZM331.988 631.342C331.988 634.656 334.674 637.342 337.988 637.342H386.372C389.686 637.342 392.372 634.656 392.372 631.342V568.42C392.372 565.106 389.686 562.42 386.372 562.42H337.988C334.674 562.42 331.988 565.106 331.988 568.42V631.342ZM331.988 554.521C331.988 557.835 334.674 560.521 337.988 560.521H386.372C389.686 560.521 392.372 557.835 392.372 554.521V491.6C392.372 488.287 389.686 485.6 386.372 485.6H337.988C334.674 485.6 331.988 488.287 331.988 491.6V554.521ZM331.988 477.702C331.988 481.016 334.674 483.702 337.988 483.702H386.372C389.686 483.702 392.372 481.016 392.372 477.702V414.779C392.372 411.466 389.686 408.779 386.372 408.779H337.988C334.674 408.779 331.988 411.466 331.988 414.779V477.702ZM331.988 400.881C331.988 404.195 334.674 406.881 337.988 406.881H386.372C389.686 406.881 392.372 404.195 392.372 400.881V337.96C392.372 334.647 389.686 331.96 386.372 331.96H337.988C334.674 331.96 331.988 334.647 331.988 337.96V400.881ZM331.988 324.062C331.988 327.376 334.674 330.062 337.988 330.062H386.372C389.686 330.062 392.372 327.376 392.372 324.062V261.139C392.372 257.826 389.686 255.139 386.372 255.139H337.988C334.674 255.139 331.988 257.826 331.988 261.139V324.062ZM331.988 247.241C331.988 250.555 334.674 253.241 337.988 253.241H386.372C389.686 253.241 392.372 250.555 392.372 247.241V184.32C392.372 181.007 389.686 178.32 386.372 178.32H337.988C334.674 178.32 331.988 181.007 331.988 184.32V247.241ZM331.988 170.422C331.988 173.736 334.674 176.422 337.988 176.422H386.372C389.686 176.422 392.372 173.736 392.372 170.422V107.501C392.372 104.187 389.686 101.501 386.372 101.501H337.988C334.674 101.501 331.988 104.187 331.988 107.501V170.422ZM331.988 93.603C331.988 96.9167 334.674 99.603 337.988 99.603H386.372C389.686 99.603 392.372 96.9167 392.372 93.603V30.6801C392.372 27.3664 389.686 24.6801 386.372 24.6801H337.988C334.674 24.6801 331.988 27.3664 331.988 30.6801V93.603ZM324.458 24.6801C327.772 24.6801 330.458 27.3664 330.458 30.6801V93.603C330.458 96.9167 327.772 99.603 324.458 99.603H276.074C272.76 99.603 270.074 96.9167 270.074 93.603V30.6801C270.074 27.3664 272.76 24.6801 276.074 24.6801H324.458ZM324.458 101.501C327.772 101.501 330.458 104.187 330.458 107.501V170.422C330.458 173.736 327.772 176.422 324.458 176.422H276.074C272.76 176.422 270.074 173.736 270.074 170.422V107.501C270.074 104.187 272.76 101.501 276.074 101.501H324.458ZM324.458 178.32C327.772 178.32 330.458 181.007 330.458 184.32V247.241C330.458 250.555 327.772 253.241 324.458 253.241H276.074C272.76 253.241 270.074 250.555 270.074 247.241V184.32C270.074 181.007 272.76 178.32 276.074 178.32H324.458ZM324.458 255.139C327.772 255.139 330.458 257.826 330.458 261.139V324.062C330.458 327.376 327.772 330.062 324.458 330.062H276.074C272.76 330.062 270.074 327.376 270.074 324.062V261.139C270.074 257.826 272.76 255.139 276.074 255.139H324.458ZM324.458 331.96C327.772 331.96 330.458 334.647 330.458 337.96V400.881C330.458 404.195 327.772 406.881 324.458 406.881H276.074C272.76 406.881 270.074 404.195 270.074 400.881V337.96C270.074 334.647 272.76 331.96 276.074 331.96H324.458ZM324.458 408.779C327.772 408.779 330.458 411.466 330.458 414.779V477.702C330.458 481.016 327.772 483.702 324.458 483.702H276.074C272.76 483.702 270.074 481.016 270.074 477.702V414.779C270.074 411.466 272.76 408.779 276.074 408.779H324.458ZM324.458 485.6C327.772 485.6 330.458 488.287 330.458 491.6V554.521C330.458 557.835 327.772 560.521 324.458 560.521H276.074C272.76 560.521 270.074 557.835 270.074 554.521V491.6C270.074 488.287 272.76 485.6 276.074 485.6H324.458ZM324.458 562.42C327.772 562.42 330.458 565.106 330.458 568.42V631.342C330.458 634.656 327.772 637.342 324.458 637.342H276.074C272.76 637.342 270.074 634.656 270.074 631.342V568.42C270.074 565.106 272.76 562.42 276.074 562.42H324.458ZM324.458 639.241C327.772 639.241 330.458 641.927 330.458 645.241V708.162C330.458 711.475 327.772 714.162 324.458 714.162H276.074C272.76 714.162 270.074 711.475 270.074 708.162V645.241C270.074 641.927 272.76 639.241 276.074 639.241H324.458ZM324.458 716.06C327.772 716.06 330.458 718.746 330.458 722.06V784.983C330.458 788.296 327.772 790.983 324.458 790.983H276.074C272.76 790.983 270.074 788.296 270.074 784.983V722.06C270.074 718.746 272.76 716.06 276.074 716.06H324.458ZM324.458 792.881C327.772 792.881 330.458 795.567 330.458 798.881V861.802C330.458 865.115 327.772 867.802 324.458 867.802H276.074C272.76 867.802 270.074 865.115 270.074 861.802V798.881C270.074 795.567 272.76 792.881 276.074 792.881H324.458ZM324.458 869.7C327.772 869.7 330.458 872.386 330.458 875.7V938.621C330.458 941.934 327.772 944.621 324.458 944.621H276.074C272.76 944.621 270.074 941.934 270.074 938.621V875.7C270.074 872.386 272.76 869.7 276.074 869.7H324.458ZM208.159 938.621C208.159 941.934 210.845 944.621 214.159 944.621H262.544C265.858 944.621 268.544 941.934 268.544 938.621V875.7C268.544 872.386 265.858 869.7 262.544 869.7H214.159C210.845 869.7 208.159 872.386 208.159 875.7V938.621ZM208.159 861.802C208.159 865.115 210.845 867.802 214.159 867.802H262.544C265.858 867.802 268.544 865.115 268.544 861.802V798.881C268.544 795.567 265.858 792.881 262.544 792.881H214.159C210.845 792.881 208.159 795.567 208.159 798.881V861.802ZM208.159 784.983C208.159 788.296 210.845 790.983 214.159 790.983H262.544C265.858 790.983 268.544 788.296 268.544 784.983V722.06C268.544 718.746 265.858 716.06 262.544 716.06H214.159C210.845 716.06 208.159 718.746 208.159 722.06V784.983ZM208.159 708.162C208.159 711.475 210.845 714.162 214.159 714.162H262.544C265.858 714.162 268.544 711.475 268.544 708.162V645.241C268.544 641.927 265.858 639.241 262.544 639.241H214.159C210.845 639.241 208.159 641.927 208.159 645.241V708.162ZM208.159 631.342C208.159 634.656 210.845 637.342 214.159 637.342H262.544C265.858 637.342 268.544 634.656 268.544 631.342V568.42C268.544 565.106 265.858 562.42 262.544 562.42H214.159C210.845 562.42 208.159 565.106 208.159 568.42V631.342ZM208.159 554.521C208.159 557.835 210.845 560.521 214.159 560.521H262.544C265.858 560.521 268.544 557.835 268.544 554.521V491.6C268.544 488.287 265.858 485.6 262.544 485.6H214.159C210.845 485.6 208.159 488.287 208.159 491.6V554.521ZM208.159 477.702C208.159 481.016 210.845 483.702 214.159 483.702H262.544C265.858 483.702 268.544 481.016 268.544 477.702V414.779C268.544 411.466 265.858 408.779 262.544 408.779H214.159C210.845 408.779 208.159 411.466 208.159 414.779V477.702ZM208.159 400.881C208.159 404.195 210.845 406.881 214.159 406.881H262.544C265.858 406.881 268.544 404.195 268.544 400.881V337.96C268.544 334.647 265.858 331.96 262.544 331.96H214.159C210.845 331.96 208.159 334.647 208.159 337.96V400.881ZM208.159 324.062C208.159 327.376 210.845 330.062 214.159 330.062H262.544C265.858 330.062 268.544 327.376 268.544 324.062V261.139C268.544 257.826 265.858 255.139 262.544 255.139H214.159C210.845 255.139 208.159 257.826 208.159 261.139V324.062ZM208.159 247.241C208.159 250.555 210.845 253.241 214.159 253.241H262.544C265.858 253.241 268.544 250.555 268.544 247.241V184.32C268.544 181.007 265.858 178.32 262.544 178.32H214.159C210.845 178.32 208.159 181.007 208.159 184.32V247.241ZM208.159 170.422C208.159 173.736 210.845 176.422 214.159 176.422H262.544C265.858 176.422 268.544 173.736 268.544 170.422V107.501C268.544 104.187 265.858 101.501 262.544 101.501H214.159C210.845 101.501 208.159 104.187 208.159 107.501V170.422ZM208.159 93.603C208.159 96.9167 210.845 99.603 214.159 99.603H262.544C265.858 99.603 268.544 96.9167 268.544 93.603V30.6801C268.544 27.3664 265.858 24.6801 262.544 24.6801H214.159C210.845 24.6801 208.159 27.3664 208.159 30.6801V93.603ZM200.629 24.6801C203.943 24.6801 206.629 27.3664 206.629 30.6801V93.603C206.629 96.9167 203.943 99.603 200.629 99.603H152.245C148.931 99.603 146.245 96.9167 146.245 93.603V30.6801C146.245 27.3664 148.931 24.6801 152.245 24.6801H200.629ZM200.629 101.501C203.943 101.501 206.629 104.187 206.629 107.501V170.422C206.629 173.736 203.943 176.422 200.629 176.422H152.245C148.931 176.422 146.245 173.736 146.245 170.422V107.501C146.245 104.187 148.931 101.501 152.245 101.501H200.629ZM200.629 178.32C203.943 178.32 206.629 181.007 206.629 184.32V247.241C206.629 250.555 203.943 253.241 200.629 253.241H152.245C148.931 253.241 146.245 250.555 146.245 247.241V184.32C146.245 181.007 148.931 178.32 152.245 178.32H200.629ZM200.629 255.139C203.943 255.139 206.629 257.826 206.629 261.139V324.062C206.629 327.376 203.943 330.062 200.629 330.062H152.245C148.931 330.062 146.245 327.376 146.245 324.062V261.139C146.245 257.826 148.931 255.139 152.245 255.139H200.629ZM200.629 331.96C203.943 331.96 206.629 334.647 206.629 337.96V400.881C206.629 404.195 203.943 406.881 200.629 406.881H152.245C148.931 406.881 146.245 404.195 146.245 400.881V337.96C146.245 334.647 148.931 331.96 152.245 331.96H200.629ZM200.629 408.779C203.943 408.779 206.629 411.466 206.629 414.779V477.702C206.629 481.016 203.943 483.702 200.629 483.702H152.245C148.931 483.702 146.245 481.016 146.245 477.702V414.779C146.245 411.466 148.931 408.779 152.245 408.779H200.629ZM200.629 485.6C203.943 485.6 206.629 488.287 206.629 491.6V554.521C206.629 557.835 203.943 560.521 200.629 560.521H152.245C148.931 560.521 146.245 557.835 146.245 554.521V491.6C146.245 488.287 148.931 485.6 152.245 485.6H200.629ZM200.629 562.42C203.943 562.42 206.629 565.106 206.629 568.42V631.342C206.629 634.656 203.943 637.342 200.629 637.342H152.245C148.931 637.342 146.245 634.656 146.245 631.342V568.42C146.245 565.106 148.931 562.42 152.245 562.42H200.629ZM200.629 639.241C203.943 639.241 206.629 641.927 206.629 645.241V708.162C206.629 711.475 203.943 714.162 200.629 714.162H152.245C148.931 714.162 146.245 711.475 146.245 708.162V645.241C146.245 641.927 148.931 639.241 152.245 639.241H200.629ZM200.629 716.06C203.943 716.06 206.629 718.746 206.629 722.06V784.983C206.629 788.296 203.943 790.983 200.629 790.983H152.245C148.931 790.983 146.245 788.296 146.245 784.983V722.06C146.245 718.746 148.931 716.06 152.245 716.06H200.629ZM200.629 792.881C203.943 792.881 206.629 795.567 206.629 798.881V861.802C206.629 865.115 203.943 867.802 200.629 867.802H152.245C148.931 867.802 146.245 865.115 146.245 861.802V798.881C146.245 795.567 148.931 792.881 152.245 792.881H200.629ZM200.629 869.7C203.943 869.7 206.629 872.386 206.629 875.7V938.621C206.629 941.934 203.943 944.621 200.629 944.621H152.245C148.931 944.621 146.245 941.934 146.245 938.621V875.7C146.245 872.386 148.931 869.7 152.245 869.7H200.629ZM84.3293 938.621C84.3293 941.934 87.0156 944.621 90.3293 944.621H138.715C142.029 944.621 144.715 941.934 144.715 938.621V875.7C144.715 872.386 142.029 869.7 138.715 869.7H90.3293C87.0156 869.7 84.3293 872.386 84.3293 875.7V938.621ZM84.3293 861.802C84.3293 865.115 87.0156 867.802 90.3293 867.802H138.715C142.029 867.802 144.715 865.115 144.715 861.802V798.881C144.715 795.567 142.029 792.881 138.715 792.881H90.3293C87.0156 792.881 84.3293 795.567 84.3293 798.881V861.802ZM84.3293 784.983C84.3293 788.296 87.0156 790.983 90.3293 790.983H138.715C142.029 790.983 144.715 788.296 144.715 784.983V722.06C144.715 718.746 142.029 716.06 138.715 716.06H90.3293C87.0156 716.06 84.3293 718.746 84.3293 722.06V784.983ZM84.3293 708.162C84.3293 711.475 87.0156 714.162 90.3293 714.162H138.715C142.029 714.162 144.715 711.475 144.715 708.162V645.241C144.715 641.927 142.029 639.241 138.715 639.241H90.3293C87.0156 639.241 84.3293 641.927 84.3293 645.241V708.162ZM84.3293 631.342C84.3293 634.656 87.0156 637.342 90.3293 637.342H138.715C142.029 637.342 144.715 634.656 144.715 631.342V568.42C144.715 565.106 142.029 562.42 138.715 562.42H90.3293C87.0156 562.42 84.3293 565.106 84.3293 568.42V631.342ZM84.3293 554.521C84.3293 557.835 87.0156 560.521 90.3293 560.521H138.715C142.029 560.521 144.715 557.835 144.715 554.521V491.6C144.715 488.287 142.029 485.6 138.715 485.6H90.3293C87.0156 485.6 84.3293 488.287 84.3293 491.6V554.521ZM84.3293 477.702C84.3293 481.016 87.0156 483.702 90.3293 483.702H138.715C142.029 483.702 144.715 481.016 144.715 477.702V414.779C144.715 411.466 142.029 408.779 138.715 408.779H90.3293C87.0156 408.779 84.3293 411.466 84.3293 414.779V477.702ZM84.3293 400.881C84.3293 404.195 87.0156 406.881 90.3293 406.881H138.715C142.029 406.881 144.715 404.195 144.715 400.881V337.96C144.715 334.647 142.029 331.96 138.715 331.96H90.3293C87.0156 331.96 84.3293 334.647 84.3293 337.96V400.881ZM84.3293 324.062C84.3293 327.376 87.0156 330.062 90.3293 330.062H138.715C142.029 330.062 144.715 327.376 144.715 324.062V261.139C144.715 257.826 142.029 255.139 138.715 255.139H90.3293C87.0156 255.139 84.3293 257.826 84.3293 261.139V324.062ZM84.3293 247.241C84.3293 250.555 87.0156 253.241 90.3293 253.241H138.715C142.029 253.241 144.715 250.555 144.715 247.241V184.32C144.715 181.007 142.029 178.32 138.715 178.32H90.3293C87.0156 178.32 84.3293 181.007 84.3293 184.32V247.241ZM84.3293 170.422C84.3293 173.736 87.0156 176.422 90.3293 176.422H138.715C142.029 176.422 144.715 173.736 144.715 170.422V107.501C144.715 104.187 142.029 101.501 138.715 101.501H90.3293C87.0156 101.501 84.3293 104.187 84.3293 107.501V170.422ZM84.3293 93.603C84.3293 96.9167 87.0156 99.603 90.3293 99.603H138.715C142.029 99.603 144.715 96.9167 144.715 93.603V30.6801C144.715 27.3664 142.029 24.6801 138.715 24.6801H90.3293C87.0156 24.6801 84.3293 27.3664 84.3293 30.6801V93.603ZM76.7996 24.6801C80.1133 24.6801 82.7996 27.3664 82.7996 30.6801V93.603C82.7996 96.9167 80.1133 99.603 76.7996 99.603H28.4109C25.0972 99.603 22.4109 96.9167 22.4109 93.603V30.6801C22.4109 27.3664 25.0972 24.6801 28.4109 24.6801H76.7996ZM76.7996 101.501C80.1133 101.501 82.7996 104.187 82.7996 107.501V170.422C82.7996 173.736 80.1133 176.422 76.7996 176.422H28.4109C25.0972 176.422 22.4109 173.736 22.4109 170.422V107.501C22.4109 104.187 25.0972 101.501 28.4109 101.501H76.7996ZM76.7996 178.32C80.1133 178.32 82.7996 181.007 82.7996 184.32V247.241C82.7996 250.555 80.1133 253.241 76.7996 253.241H28.4109C25.0972 253.241 22.4109 250.555 22.4109 247.241V184.32C22.4109 181.007 25.0972 178.32 28.4109 178.32H76.7996ZM76.7996 255.139C80.1133 255.139 82.7996 257.826 82.7996 261.139V324.062C82.7996 327.376 80.1133 330.062 76.7996 330.062H28.4109C25.0972 330.062 22.4109 327.376 22.4109 324.062V261.139C22.4109 257.826 25.0972 255.139 28.4109 255.139H76.7996ZM76.7996 331.96C80.1133 331.96 82.7996 334.647 82.7996 337.96V400.881C82.7996 404.195 80.1133 406.881 76.7996 406.881H28.4109C25.0972 406.881 22.4109 404.195 22.4109 400.881V337.96C22.4109 334.647 25.0972 331.96 28.4109 331.96H76.7996ZM76.7996 408.779C80.1133 408.779 82.7996 411.466 82.7996 414.779V477.702C82.7996 481.016 80.1133 483.702 76.7996 483.702H28.4109C25.0972 483.702 22.4109 481.016 22.4109 477.702V414.779C22.4109 411.466 25.0972 408.779 28.4109 408.779H76.7996ZM76.7996 485.6C80.1133 485.6 82.7996 488.287 82.7996 491.6V554.521C82.7996 557.835 80.1133 560.521 76.7996 560.521H28.4109C25.0972 560.521 22.4109 557.835 22.4109 554.521V491.6C22.4109 488.287 25.0972 485.6 28.4109 485.6H76.7996ZM76.7996 562.42C80.1133 562.42 82.7996 565.106 82.7996 568.42V631.342C82.7996 634.656 80.1133 637.342 76.7996 637.342H28.4109C25.0972 637.342 22.4109 634.656 22.4109 631.342V568.42C22.4109 565.106 25.0972 562.42 28.4109 562.42H76.7996ZM76.7996 639.241C80.1133 639.241 82.7996 641.927 82.7996 645.241V708.162C82.7996 711.475 80.1133 714.162 76.7996 714.162H28.4109C25.0972 714.162 22.4109 711.475 22.4109 708.162V645.241C22.4109 641.927 25.0972 639.241 28.4109 639.241H76.7996ZM76.7996 716.06C80.1133 716.06 82.7996 718.746 82.7996 722.06V784.983C82.7996 788.296 80.1133 790.983 76.7996 790.983H28.4109C25.0972 790.983 22.4109 788.296 22.4109 784.983V722.06C22.4109 718.746 25.0972 716.06 28.4109 716.06H76.7996ZM76.7996 792.881C80.1133 792.881 82.7996 795.567 82.7996 798.881V861.802C82.7996 865.115 80.1133 867.802 76.7996 867.802H28.4109C25.0972 867.802 22.4109 865.115 22.4109 861.802V798.881C22.4109 795.567 25.0972 792.881 28.4109 792.881H76.7996ZM76.7996 869.7C80.1133 869.7 82.7996 872.386 82.7996 875.7V938.621C82.7996 941.934 80.1133 944.621 76.7996 944.621H28.4109C25.0972 944.621 22.4109 941.934 22.4109 938.621V875.7C22.4109 872.386 25.0972 869.7 28.4109 869.7H76.7996Z" fill="url(#paint0_radial_891_310)" fill-opacity="0.12"/>
</g>
<rect x="1049.96" y="169.291" width="134" height="36" rx="18" fill="#F8C9C5"/>
<path d="M1076.09 193.371H1074.47L1073.25 190.123H1068.29L1067.05 193.371H1065.43L1069.89 181.659H1071.69L1076.09 193.371ZM1072.74 188.795L1070.79 183.579L1068.79 188.795H1072.74ZM1079.5 181.659V193.371H1077.99V181.659H1079.5ZM1091.63 181.563V182.779H1094.6V180.395H1096.17V190.699H1094.6V187.083H1091.63V188.315H1085.08V181.563H1091.63ZM1086.62 182.827V187.051H1090.09V182.827H1086.62ZM1088.55 189.755V192.971H1096.49V194.251H1086.97V189.755H1088.55ZM1094.6 185.803V184.043H1091.63V185.803H1094.6ZM1108.25 183.707V180.379H1109.82V188.091H1108.25V184.987H1105.69V183.707H1108.25ZM1102.2 188.715V190.299H1108.27V188.715H1109.82V194.363H1100.63V188.715H1102.2ZM1102.2 193.083H1108.27V191.531H1102.2V193.083ZM1106.15 181.147V182.395H1103.16V182.523C1103.16 183.43 1103.46 184.278 1104.06 185.067C1104.67 185.856 1105.49 186.432 1106.52 186.795L1105.74 188.027C1104.97 187.76 1104.3 187.36 1103.72 186.827C1103.16 186.294 1102.72 185.675 1102.41 184.971C1102.1 185.75 1101.65 186.432 1101.05 187.019C1100.45 187.606 1099.74 188.048 1098.91 188.347L1098.11 187.099C1099.18 186.715 1100.03 186.107 1100.65 185.275C1101.27 184.443 1101.58 183.531 1101.58 182.539V182.395H1098.57V181.147H1106.15ZM1126.87 180.395V190.795H1125.3V187.179H1121.89C1121.55 187.574 1121.13 187.883 1120.63 188.107C1120.14 188.32 1119.6 188.427 1119.03 188.427C1118.33 188.427 1117.7 188.278 1117.14 187.979C1116.58 187.67 1116.15 187.243 1115.83 186.699C1115.51 186.155 1115.35 185.542 1115.35 184.859C1115.35 184.166 1115.51 183.547 1115.83 183.003C1116.15 182.459 1116.58 182.032 1117.14 181.723C1117.7 181.414 1118.33 181.259 1119.03 181.259C1119.59 181.259 1120.12 181.371 1120.61 181.595C1121.1 181.808 1121.52 182.107 1121.86 182.491H1125.3V180.395H1126.87ZM1119.28 189.739V192.971H1127.23V194.251H1117.7V189.739H1119.28ZM1119.03 182.651C1118.39 182.651 1117.86 182.854 1117.44 183.259C1117.04 183.664 1116.83 184.198 1116.83 184.859C1116.83 185.52 1117.04 186.054 1117.44 186.459C1117.86 186.864 1118.39 187.067 1119.03 187.067C1119.66 187.067 1120.17 186.864 1120.58 186.459C1120.99 186.054 1121.2 185.52 1121.2 184.859C1121.2 184.198 1120.99 183.664 1120.58 183.259C1120.17 182.854 1119.66 182.651 1119.03 182.651ZM1122.55 183.771C1122.65 184.091 1122.71 184.454 1122.71 184.859C1122.71 185.232 1122.66 185.579 1122.56 185.899H1125.3V183.771H1122.55ZM1131.94 188.859V190.331H1138.4V188.859H1139.95V194.363H1130.39V188.859H1131.94ZM1131.94 193.115H1138.4V191.547H1131.94V193.115ZM1141.6 186.731V187.995H1128.82V186.731H1141.6ZM1136.02 180.539V181.083C1136.02 181.616 1136.23 182.139 1136.66 182.651C1137.1 183.152 1137.69 183.584 1138.43 183.947C1139.18 184.299 1140.01 184.528 1140.91 184.635L1140.35 185.867C1139.2 185.707 1138.17 185.376 1137.27 184.875C1136.36 184.363 1135.68 183.734 1135.22 182.987C1134.77 183.734 1134.09 184.363 1133.17 184.875C1132.26 185.376 1131.23 185.707 1130.08 185.867L1129.51 184.635C1130.42 184.518 1131.26 184.283 1132 183.931C1132.75 183.579 1133.34 183.152 1133.76 182.651C1134.19 182.15 1134.4 181.627 1134.4 181.083V180.539H1136.02ZM1153.46 180.379V186.091H1155.67V187.403H1153.46V194.539H1151.89V180.379H1153.46ZM1145.81 182.571V180.571H1147.4V182.571H1150.74V183.851H1142.4V182.571H1145.81ZM1146.61 184.891C1147.28 184.891 1147.89 185.03 1148.42 185.307C1148.95 185.584 1149.37 185.974 1149.67 186.475C1149.97 186.976 1150.12 187.547 1150.12 188.187C1150.12 188.827 1149.97 189.398 1149.67 189.899C1149.37 190.39 1148.95 190.779 1148.42 191.067C1147.89 191.344 1147.28 191.483 1146.61 191.483C1145.95 191.483 1145.35 191.344 1144.82 191.067C1144.29 190.779 1143.86 190.384 1143.56 189.883C1143.26 189.382 1143.11 188.816 1143.11 188.187C1143.11 187.547 1143.26 186.976 1143.56 186.475C1143.86 185.974 1144.29 185.584 1144.82 185.307C1145.35 185.03 1145.95 184.891 1146.61 184.891ZM1146.61 186.171C1146.02 186.171 1145.54 186.358 1145.17 186.731C1144.81 187.094 1144.63 187.579 1144.63 188.187C1144.63 188.784 1144.81 189.27 1145.17 189.643C1145.54 190.006 1146.02 190.187 1146.61 190.187C1147.2 190.187 1147.68 190.006 1148.05 189.643C1148.42 189.27 1148.61 188.784 1148.61 188.187C1148.61 187.59 1148.42 187.104 1148.05 186.731C1147.68 186.358 1147.2 186.171 1146.61 186.171ZM1167.81 180.379V194.539H1166.24V180.379H1167.81ZM1163.64 181.867C1163.64 184.086 1163.12 186.048 1162.1 187.755C1161.08 189.451 1159.4 190.864 1157.08 191.995L1156.26 190.747C1158.09 189.862 1159.48 188.795 1160.4 187.547C1161.33 186.288 1161.87 184.822 1162.02 183.147H1156.93V181.867H1163.64Z" fill="black"/>
<path d="M1042.91 147.166C1042.65 146.998 1042.36 146.906 1042.06 146.9C1041.75 146.895 1041.45 146.975 1041.19 147.132C1040.93 147.29 1040.73 147.518 1040.59 147.79C1040.46 148.062 1040.4 148.366 1040.43 148.668L1042.77 170.942C1042.93 172.417 1044.83 172.906 1045.68 171.691L1050.6 164.62C1050.8 164.338 1051.06 164.101 1051.35 163.926C1051.65 163.751 1051.98 163.642 1052.32 163.606L1061.22 162.671C1062.71 162.514 1063.19 160.572 1061.94 159.745L1042.91 147.166Z" fill="#8071FC"/>
<rect x="189.035" y="275.539" width="106" height="36" rx="18" fill="#FEF3B5"/>
<path d="M214.82 299.619H213.204L211.988 296.371H207.028L205.78 299.619H204.164L208.628 287.907H210.42L214.82 299.619ZM211.476 295.043L209.524 289.827L207.524 295.043H211.476ZM218.23 287.907V299.619H216.726V287.907H218.23ZM236.009 294.019V295.283H230.505V297.827H228.921V295.283H223.177V294.019H236.009ZM226.313 296.643V299.219H234.585V300.515H224.761V296.643H226.313ZM226.425 287.059V288.739H232.761V287.059H234.329V292.803H224.873V287.059H226.425ZM226.425 291.555H232.761V289.939H226.425V291.555ZM246.985 289.459V286.627H248.553V295.027H246.985V290.755H244.089V289.459H246.985ZM241.833 287.347V288.851C241.833 289.811 242.132 290.696 242.729 291.507C243.327 292.307 244.143 292.883 245.177 293.235L244.345 294.467C243.588 294.19 242.927 293.784 242.361 293.251C241.807 292.718 241.375 292.094 241.065 291.379C240.767 292.168 240.324 292.856 239.737 293.443C239.151 294.019 238.452 294.456 237.641 294.755L236.825 293.507C237.903 293.134 238.745 292.52 239.353 291.667C239.961 290.803 240.265 289.838 240.265 288.771V287.347H241.833ZM248.553 295.747V300.787H246.985V297.011H239.033V295.747H248.553ZM265.601 286.627V293.811H264.033V292.499H260.529V291.283H264.033V289.779H260.721C260.295 290.867 259.564 291.774 258.529 292.499C257.505 293.224 256.204 293.768 254.625 294.131L254.097 292.867C255.74 292.494 257.009 291.934 257.905 291.187C258.801 290.44 259.308 289.555 259.425 288.531H254.849V287.267H261.169C261.169 287.758 261.132 288.195 261.057 288.579H264.033V286.627H265.601ZM265.601 294.403V298.051H257.985V299.395H266.001V300.643H256.433V296.851H264.033V295.651H256.401V294.403H265.601ZM275.378 288.115V289.027C275.378 289.944 275.351 290.824 275.298 291.667C275.255 292.51 275.148 293.48 274.978 294.579L273.426 294.451C273.586 293.459 273.692 292.563 273.746 291.763C273.799 290.963 273.826 290.168 273.826 289.379H268.178V288.115H275.378ZM271.778 292.179V296.419C273.431 296.366 274.892 296.259 276.162 296.099L276.242 297.235C274.044 297.598 271.159 297.779 267.586 297.779L267.41 296.483L270.242 296.467V292.179H271.778ZM278.498 286.627V292.467H280.642V293.779H278.498V300.787H276.946V286.627H278.498Z" fill="black"/>
<g clip-path="url(#clip1_891_310)">
<path d="M292.459 263.005C292.525 262.709 292.506 262.4 292.404 262.114C292.302 261.829 292.12 261.578 291.881 261.391C291.641 261.205 291.354 261.09 291.052 261.061C290.75 261.032 290.446 261.089 290.175 261.226L270.188 271.331C268.864 272 269.083 273.951 270.52 274.311L278.88 276.403C279.214 276.487 279.526 276.641 279.794 276.856C280.063 277.071 280.283 277.341 280.438 277.648L284.475 285.633C285.152 286.972 287.136 286.726 287.464 285.262L292.459 263.005Z" fill="#08080C"/>
</g>
<defs>
<filter id="filter0_f_891_310" x="-298.869" y="427.783" width="726.201" height="684.166" filterUnits="userSpaceOnUse" color-interpolation-filters="sRGB">
<feFlood flood-opacity="0" result="BackgroundImageFix"/>
<feBlend mode="normal" in="SourceGraphic" in2="BackgroundImageFix" result="shape"/>
<feGaussianBlur stdDeviation="62" result="effect1_foregroundBlur_891_310"/>
</filter>
<filter id="filter1_f_891_310" x="-402.83" y="-100.137" width="2474.29" height="1208.86" filterUnits="userSpaceOnUse" color-interpolation-filters="sRGB">
<feFlood flood-opacity="0" result="BackgroundImageFix"/>
<feBlend mode="normal" in="SourceGraphic" in2="BackgroundImageFix" result="shape"/>
<feGaussianBlur stdDeviation="137" result="effect1_foregroundBlur_891_310"/>
</filter>
<filter id="filter2_f_891_310" x="-552.314" y="66.707" width="2394.18" height="1294.43" filterUnits="userSpaceOnUse" color-interpolation-filters="sRGB">
<feFlood flood-opacity="0" result="BackgroundImageFix"/>
<feBlend mode="normal" in="SourceGraphic" in2="BackgroundImageFix" result="shape"/>
<feGaussianBlur stdDeviation="137" result="effect1_foregroundBlur_891_310"/>
</filter>
<radialGradient id="paint0_radial_891_310" cx="0" cy="0" r="1" gradientUnits="userSpaceOnUse" gradientTransform="translate(44.2416 34.1119) rotate(36.6091) scale(1290.91 4751.25)">
<stop stop-color="white"/>
<stop offset="1" stop-color="white" stop-opacity="0.1"/>
</radialGradient>
<clipPath id="clip0_891_310">
<path d="M0.5 32.1523C0.5 14.4792 14.8269 0.152344 32.5 0.152344H1368.5C1386.17 0.152344 1400.5 14.4792 1400.5 32.1523V937.152C1400.5 954.826 1386.17 969.152 1368.5 969.152H32.5C14.8269 969.152 0.5 954.825 0.5 937.152V32.1523Z" fill="white"/>
</clipPath>
<clipPath id="clip1_891_310">
<rect width="32" height="32" fill="white" transform="translate(290.934 251.879) rotate(63.18)"/>
</clipPath>
</defs>
</svg>
