<svg width="688" height="652" viewBox="0 0 688 652" fill="none" xmlns="http://www.w3.org/2000/svg">
<mask id="mask0_931_672" style="mask-type:alpha" maskUnits="userSpaceOnUse" x="0" y="0" width="688" height="652">
<path d="M0.0585938 30.9258C0.0585938 14.3573 13.4901 0.925781 30.0586 0.925781H687.059V651.926H30.0586C13.4901 651.926 0.0585938 638.494 0.0585938 621.926V30.9258Z" fill="#D9D9D9"/>
</mask>
<g mask="url(#mask0_931_672)">
<path d="M1.92383 30.9258C1.92383 14.3573 15.3553 0.925781 31.9238 0.925781H688.924V651.926H31.9238C15.3553 651.926 1.92383 638.494 1.92383 621.926V30.9258Z" fill="#F6F6F9"/>
<mask id="mask1_931_672" style="mask-type:alpha" maskUnits="userSpaceOnUse" x="1" y="0" width="688" height="652">
<path d="M1.92383 30.9258C1.92383 14.3573 15.3553 0.925781 31.9238 0.925781H688.924V651.926H31.9238C15.3553 651.926 1.92383 638.494 1.92383 621.926V30.9258Z" fill="#F6F6F9"/>
</mask>
<g mask="url(#mask1_931_672)">
<g filter="url(#filter0_f_931_672)">
<path d="M280.924 595.774C280.924 610.907 275.775 625.785 265.974 638.976C256.172 652.167 242.047 663.227 224.96 671.091C207.872 678.954 188.397 683.357 168.409 683.874C148.421 684.392 128.593 681.007 110.835 674.046C93.077 667.085 77.9861 656.782 67.0155 644.129C56.0448 631.476 49.5639 616.898 48.1965 601.801C46.8291 586.703 50.6213 571.593 59.2081 557.926" stroke="url(#paint0_linear_931_672)" stroke-opacity="0.4" stroke-width="200" stroke-linecap="round" stroke-linejoin="round"/>
</g>
</g>
<rect x="90.1953" y="77.5781" width="695" height="234" rx="20" fill="white"/>
<g filter="url(#filter1_d_931_672)">
<rect x="60.1953" y="98.5781" width="725" height="444" rx="20" fill="#F1F5F9"/>
</g>
<g filter="url(#filter2_d_931_672)">
<rect x="60.1953" y="98.5781" width="725" height="444" rx="20" fill="#F1F5F9"/>
</g>
<rect x="113.765" y="184.23" width="549.988" height="131.633" rx="18.9073" fill="white" stroke="#8071FC" stroke-width="0.478667"/>
<rect x="115.714" y="338.118" width="549.988" height="144.198" rx="18.9073" fill="white" stroke="#8071FC" stroke-width="0.478667"/>
<path d="M281.098 117.646V134.549H279.022V117.646H281.098ZM267.093 129.744C270.271 129.762 274.404 129.762 278.031 129.295L278.181 130.809C274.404 131.482 270.458 131.482 267.392 131.482L267.093 129.744ZM277.732 119.778V121.423H267.448V119.778H271.543V117.833H273.637V119.778H277.732ZM272.609 122.19C275.039 122.19 276.722 123.442 276.741 125.387C276.722 127.294 275.039 128.584 272.609 128.584C270.178 128.584 268.476 127.294 268.476 125.387C268.476 123.442 270.178 122.19 272.609 122.19ZM272.609 123.779C271.318 123.779 270.44 124.396 270.44 125.387C270.44 126.378 271.318 126.976 272.609 126.995C273.88 126.976 274.74 126.378 274.74 125.387C274.74 124.396 273.88 123.779 272.609 123.779ZM292.148 118.899V126.34H284.145V118.899H292.148ZM286.183 120.544V124.658H290.11V120.544H286.183ZM296.897 117.646V121.61H299.253V123.293H296.897V127.5H294.822V117.646H296.897ZM291.4 127.986C294.859 127.986 297.047 129.22 297.066 131.258C297.047 133.334 294.859 134.549 291.4 134.549C287.904 134.549 285.678 133.334 285.678 131.258C285.678 129.22 287.904 127.986 291.4 127.986ZM291.4 129.65C289.082 129.65 287.754 130.211 287.754 131.258C287.754 132.343 289.082 132.885 291.4 132.885C293.719 132.885 295.009 132.343 295.009 131.258C295.009 130.211 293.719 129.65 291.4 129.65ZM313.351 117.646V124.377H315.95V126.097H313.351V134.549H311.295V117.646H313.351ZM309.986 120.245V121.909H300.02V120.245H304.021V117.889H306.097V120.245H309.986ZM305.068 123.012C307.499 123.012 309.313 124.658 309.313 126.995C309.313 129.332 307.499 130.959 305.068 130.959C302.6 130.959 300.786 129.332 300.805 126.995C300.786 124.658 302.6 123.012 305.068 123.012ZM305.068 124.714C303.741 124.714 302.787 125.611 302.787 126.995C302.787 128.379 303.741 129.257 305.068 129.239C306.358 129.257 307.312 128.379 307.331 126.995C307.312 125.611 306.358 124.714 305.068 124.714ZM323.056 121.703C323.037 124.807 324.664 127.911 327.412 129.089L326.178 130.753C324.234 129.856 322.803 128.061 322.027 125.854C321.251 128.238 319.802 130.183 317.745 131.146L316.474 129.407C319.297 128.192 320.943 124.957 320.943 121.703V119.011H323.056V121.703ZM330.722 117.646V134.568H328.628V117.646H330.722ZM346.896 122.433V124.078H335.191V118.263H337.247V122.433H346.896ZM348.634 126.041V127.687H333.19V126.041H348.634ZM347.008 132.473V134.156H335.041V129.183H337.116V132.473H347.008ZM368.417 117.646V134.549H366.323V117.646H368.417ZM363.368 119.441C363.368 124.471 361.424 128.753 355.497 131.557L354.412 129.893C358.834 127.79 360.891 124.929 361.256 121.086H355.272V119.441H363.368ZM375.541 118.394C377.728 118.375 379.449 119.637 379.879 121.498H382.926V117.646H385.002V126.714H382.926V123.181H379.897C379.477 125.078 377.738 126.359 375.541 126.359C372.942 126.359 371.072 124.695 371.072 122.358C371.072 120.058 372.942 118.375 375.541 118.394ZM375.541 120.133C374.082 120.133 373.054 120.993 373.054 122.358C373.054 123.704 374.082 124.602 375.541 124.602C376.962 124.602 377.971 123.704 377.99 122.358C377.971 120.993 376.962 120.133 375.541 120.133ZM375.915 127.5V129.295H382.926V127.5H385.002V134.343H373.858V127.5H375.915ZM375.915 132.66H382.926V130.903H375.915V132.66ZM395.08 117.908C398.932 117.908 401.157 118.936 401.176 120.806C401.157 122.694 398.932 123.704 395.08 123.723C391.228 123.704 388.985 122.694 388.985 120.806C388.985 118.936 391.228 117.908 395.08 117.908ZM395.08 119.441C392.5 119.441 391.154 119.927 391.172 120.806C391.154 121.741 392.5 122.171 395.08 122.171C397.698 122.171 399.025 121.741 399.025 120.806C399.025 119.927 397.698 119.441 395.08 119.441ZM402.802 124.62V126.284H387.395V124.62H402.802ZM400.876 127.425V131.557H391.266V132.81H401.344V134.399H389.228V130.08H398.838V128.958H389.209V127.425H400.876ZM414.638 120.638C414.638 122.881 415.984 125.069 418.602 125.967L417.461 127.593C415.638 126.901 414.33 125.583 413.628 123.928C412.89 125.78 411.516 127.247 409.534 127.986L408.43 126.34C411.142 125.424 412.525 123.087 412.544 120.619V118.693H414.638V120.638ZM422.641 117.665V130.211H420.565V123.087H417.2V121.386H420.565V117.665H422.641ZM423.015 132.53V134.212H411.497V128.846H413.61V132.53H423.015ZM432.308 118.824V120.488H427.671V122.133H432.139V123.723H427.671V125.499C429.737 125.48 431.167 125.396 432.812 125.088L433.037 126.771C431.055 127.145 429.409 127.201 426.792 127.201H425.67V118.824H432.308ZM439.488 117.665V127.949H437.506V123.555H435.748V127.818H433.803V117.983H435.748V121.89H437.506V117.665H439.488ZM439.488 128.696V134.549H437.412V130.379H427.914V128.696H439.488ZM449.828 120.338V122.003H441.544V120.338H444.686V118.132H446.742V120.338H449.828ZM445.714 122.9C447.864 122.9 449.398 124.527 449.398 126.827C449.398 129.164 447.864 130.809 445.714 130.809C443.582 130.809 442.012 129.164 442.031 126.827C442.012 124.527 443.582 122.9 445.714 122.9ZM445.714 124.62C444.611 124.62 443.844 125.499 443.863 126.827C443.844 128.192 444.611 129.052 445.714 129.033C446.799 129.052 447.565 128.192 447.565 126.827C447.565 125.499 446.799 124.62 445.714 124.62ZM456.11 117.646V134.549H454.128V126.284H452.483V133.782H450.538V118.001H452.483V124.602H454.128V117.646H456.11ZM473.537 127.07V128.753H466.824V134.53H464.767V128.753H458.129V127.07H473.537ZM472.116 118.6V120.245H467.048C467.17 122.096 469.395 123.872 472.733 124.302L471.985 125.929C469.105 125.527 466.861 124.209 465.833 122.377C464.805 124.209 462.561 125.527 459.719 125.929L458.933 124.302C462.252 123.872 464.477 122.096 464.636 120.245H459.551V118.6H472.116ZM479.95 122.077C479.95 124.807 480.904 127.649 483.185 129.089L482.044 130.678C480.52 129.762 479.529 128.182 478.978 126.322C478.361 128.369 477.276 130.099 475.687 131.071L474.397 129.519C476.846 128.023 477.949 125.05 477.949 122.171V119.142H479.95V122.077ZM489.262 117.646V134.549H487.261V117.646H489.262ZM485.746 117.945V133.726H483.783V125.181H481.371V123.461H483.783V117.945H485.746ZM506.669 130.791V132.492H491.225V130.791H494.796V126.509C493.45 125.742 492.636 124.536 492.646 123.031C492.627 120.338 495.282 118.562 498.91 118.562C502.556 118.562 505.211 120.338 505.211 123.031C505.211 124.508 504.426 125.695 503.117 126.471V130.791H506.669ZM498.91 120.208C496.385 120.208 494.665 121.273 494.684 123.031C494.665 124.77 496.385 125.854 498.91 125.854C501.434 125.854 503.173 124.77 503.173 123.031C503.173 121.273 501.434 120.208 498.91 120.208ZM496.853 130.791H501.004V127.257C500.359 127.406 499.658 127.481 498.91 127.481C498.18 127.481 497.489 127.406 496.853 127.275V130.791Z" fill="black"/>
<rect x="358.725" y="493.77" width="85.3717" height="33.947" rx="16.8055" fill="#8071FC"/>
<path d="M399.802 505.952V509.835H401.341V511.03H399.802V516.429H398.331V505.952H399.802ZM396.872 506.917V508.101H393.426V512.684C394.942 512.667 396.194 512.598 397.584 512.351L397.745 513.58C396.125 513.856 394.701 513.902 392.851 513.891H391.967V506.917H396.872ZM406.488 506.148C408.808 506.148 410.279 506.917 410.29 508.193C410.279 509.456 408.808 510.226 406.488 510.214C404.179 510.226 402.674 509.456 402.674 508.193C402.674 506.917 404.179 506.148 406.488 506.148ZM406.488 507.285C405.029 507.285 404.19 507.595 404.202 508.193C404.19 508.778 405.029 509.077 406.488 509.077C407.935 509.077 408.774 508.778 408.774 508.193C408.774 507.595 407.935 507.285 406.488 507.285ZM410.118 512.73V516.292H402.823V512.73H410.118ZM404.27 513.891V515.12H408.682V513.891H404.27ZM411.255 510.823V511.995H401.72V510.823H411.255Z" fill="white"/>
<circle cx="148.135" cy="248.61" r="11.2487" fill="#8071FC"/>
<circle cx="148.135" cy="412.28" r="11.2487" fill="#8071FC"/>
<rect x="188.193" y="228.984" width="63.6627" height="16.7533" rx="4.78667" fill="#F3F3F3"/>
<rect x="188.193" y="255.311" width="63.6627" height="16.7533" rx="4.78667" fill="#F3F3F3"/>
<rect x="188.193" y="279.244" width="63.6627" height="16.7533" rx="4.78667" fill="#F3F3F3"/>
<rect x="188.193" y="202.658" width="63.6627" height="16.7533" rx="4.78667" fill="#F3F3F3"/>
<rect x="267.172" y="202.658" width="59.8334" height="16.7533" rx="4.78667" fill="#F3F3F3"/>
<rect x="341.844" y="203.137" width="58.876" height="15.796" rx="4.308" fill="#F3EDFF" stroke="#8071FC" stroke-width="0.957334"/>
<rect x="267.172" y="228.984" width="59.8334" height="16.7533" rx="4.78667" fill="#F3F3F3"/>
<rect x="341.365" y="228.984" width="59.8334" height="16.7533" rx="4.78667" fill="#F3F3F3"/>
<rect x="415.559" y="202.658" width="59.8334" height="16.7533" rx="4.78667" fill="#F3F3F3"/>
<rect x="489.752" y="202.658" width="59.8334" height="16.7533" rx="4.78667" fill="#F3F3F3"/>
<rect x="563.945" y="202.658" width="61.7424" height="16.7533" rx="4.78667" fill="#F3F3F3"/>
<rect x="415.559" y="255.311" width="59.8334" height="16.7533" rx="4.78667" fill="#F3F3F3"/>
<rect x="489.752" y="255.311" width="59.8334" height="16.7533" rx="4.78667" fill="#F3F3F3"/>
<rect x="415.559" y="228.984" width="59.8334" height="16.7533" rx="4.78667" fill="#F3F3F3"/>
<rect x="489.752" y="228.984" width="59.8334" height="16.7533" rx="4.78667" fill="#F3F3F3"/>
<rect x="415.559" y="281.637" width="59.8334" height="16.7533" rx="4.78667" fill="#F3F3F3"/>
<rect x="489.752" y="281.637" width="59.8334" height="16.7533" rx="4.78667" fill="#F3F3F3"/>
<rect x="267.172" y="255.311" width="59.8334" height="16.7533" rx="4.78667" fill="#F3F3F3"/>
<rect x="341.365" y="255.311" width="59.8334" height="16.7533" rx="4.78667" fill="#F3F3F3"/>
<rect x="341.365" y="281.637" width="59.8334" height="16.7533" rx="4.78667" fill="#F3F3F3"/>
<rect x="267.172" y="281.637" width="59.8334" height="16.7533" rx="4.78667" fill="#F3F3F3"/>
<path d="M205.405 237.297C205.349 236.799 204.893 236.512 204.283 236.512C203.61 236.512 203.168 236.863 203.168 237.346C203.168 237.879 203.764 238.076 204.15 238.174L204.655 238.314C205.201 238.454 206.092 238.77 206.092 239.716C206.092 240.544 205.426 241.189 204.248 241.189C203.154 241.189 202.474 240.621 202.418 239.779H203.063C203.119 240.347 203.645 240.614 204.248 240.614C204.949 240.614 205.475 240.256 205.475 239.702C205.475 239.212 205.005 239.022 204.472 238.868L203.848 238.7C203.049 238.468 202.558 238.062 202.558 237.374C202.558 236.519 203.322 235.951 204.304 235.951C205.286 235.951 205.994 236.526 206.022 237.297H205.405ZM206.996 241.098V236.021H207.628V238.531H207.691L209.948 236.021H210.776L208.651 238.314L210.776 241.098H210.004L208.259 238.749L207.628 239.464V241.098H206.996ZM217.773 235.432V238.005H218.818V238.461H217.773V241.666H217.227V235.432H217.773ZM216.624 236.435V236.891H212.914V236.435H214.52V235.509H215.067V236.435H216.624ZM214.8 237.409C215.684 237.409 216.322 237.998 216.329 238.84C216.322 239.681 215.684 240.27 214.8 240.27C213.91 240.27 213.265 239.681 213.272 238.84C213.265 237.998 213.91 237.409 214.8 237.409ZM214.8 237.872C214.219 237.872 213.791 238.279 213.798 238.84C213.791 239.408 214.219 239.807 214.8 239.8C215.375 239.807 215.796 239.408 215.803 238.84C215.796 238.279 215.375 237.872 214.8 237.872ZM224.294 235.432V241.68H223.74V235.432H224.294ZM220.978 235.916C221.903 235.923 222.569 236.764 222.569 238.09C222.569 239.415 221.903 240.256 220.978 240.256C220.045 240.256 219.386 239.415 219.386 238.09C219.386 236.764 220.045 235.923 220.978 235.916ZM220.978 236.407C220.354 236.414 219.919 237.073 219.919 238.09C219.919 239.106 220.354 239.765 220.978 239.765C221.602 239.765 222.037 239.106 222.037 238.09C222.037 237.073 221.602 236.414 220.978 236.407ZM230.507 239.359V241.68H229.96V239.822H226.314V239.359H230.507ZM230.507 235.439V239.043H229.96V235.439H230.507ZM226.307 235.79V238.076C227.246 238.072 228.217 238.002 229.252 237.788L229.336 238.251C228.235 238.461 227.246 238.538 226.258 238.538H225.753V235.79H226.307ZM234.672 236.351C234.672 237.417 235.892 238.37 236.979 238.573L236.726 239.036C235.787 238.819 234.794 238.149 234.391 237.227C233.988 238.146 232.999 238.815 232.056 239.036L231.804 238.573C232.884 238.363 234.097 237.424 234.097 236.351V235.874H234.672V236.351ZM237.273 240.361V240.817H231.566V240.361H237.273Z" fill="black"/>
<path d="M219.025 264.093V264.535H214.839V262.13H218.94V262.586H215.399V264.093H219.025ZM219.754 265.362V265.811H217.152V267.971H216.612V265.811H214.046V265.362H219.754ZM222.355 262.936C222.348 263.792 223 264.584 223.919 264.907L223.638 265.348C222.93 265.092 222.38 264.563 222.103 263.897C221.84 264.644 221.275 265.219 220.539 265.503L220.238 265.061C221.184 264.724 221.808 263.883 221.815 262.915V262.144H222.355V262.936ZM225.132 261.758V263.673H226.071V264.142H225.132V266.365H224.585V261.758H225.132ZM225.419 267.396V267.859H221.24V265.923H221.801V267.396H225.419Z" fill="black"/>
<path d="M209.675 286.637C209.675 287.331 210.144 288.046 210.923 288.361L210.628 288.775C210.036 288.533 209.629 288.07 209.422 287.52C209.198 288.137 208.753 288.68 208.146 288.964L207.838 288.544C208.651 288.179 209.142 287.352 209.142 286.609V285.956H209.675V286.637ZM213.124 285.697V289.028H212.599V285.697H213.124ZM211.897 285.816V288.978H211.364V287.331H210.397V286.875H211.364V285.816H211.897ZM213.124 289.301V290.752H209.548V291.405H213.377V291.853H209.002V290.332H212.584V289.743H208.987V289.301H213.124ZM219.084 289.063V289.511H214.772V286.23H219.014V286.693H215.333V287.618H218.881V288.06H215.333V289.063H219.084ZM219.743 290.654V291.11H214.036V290.654H219.743ZM225.388 285.69V291.937H224.841V285.69H225.388ZM223.495 286.272V288.488H221.167V289.96C222.201 289.96 223.123 289.915 224.238 289.736L224.294 290.199C223.144 290.381 222.198 290.423 221.125 290.423H220.606V288.039H222.941V286.728H220.592V286.272H223.495ZM232.126 289.014V289.469H226.447V289.014H229.013V288.361C227.817 288.302 227.078 287.85 227.078 287.113C227.078 286.349 227.933 285.879 229.286 285.879C230.626 285.879 231.488 286.349 231.488 287.113C231.488 287.85 230.741 288.302 229.56 288.361V289.014H232.126ZM231.495 291.327V291.79H227.183V289.974H227.737V291.327H231.495ZM229.286 286.328C228.284 286.328 227.639 286.637 227.646 287.113C227.639 287.618 228.284 287.913 229.286 287.913C230.282 287.913 230.927 287.618 230.927 287.113C230.927 286.637 230.282 286.328 229.286 286.328Z" fill="black"/>
<path d="M208.932 209.111V213.865H208.378V212.526H207.298V212.077H208.378V211.229H207.298V210.773H208.378V209.111H208.932ZM207.298 209.875V210.324H203.771V209.875H205.286V209.104H205.833V209.875H207.298ZM205.552 210.668C206.387 210.668 206.976 211.144 206.976 211.86C206.976 212.568 206.387 213.052 205.552 213.052C204.718 213.052 204.136 212.568 204.143 211.86C204.136 211.144 204.718 210.668 205.552 210.668ZM205.552 211.102C205.019 211.109 204.655 211.411 204.655 211.86C204.655 212.308 205.019 212.61 205.552 212.61C206.085 212.61 206.45 212.308 206.457 211.86C206.45 211.411 206.085 211.109 205.552 211.102ZM209.072 214.741V215.204H204.9V213.444H205.454V214.741H209.072ZM215.298 209.104V215.337H214.773V212.07H213.854V215.015H213.349V209.244H213.854V211.614H214.773V209.104H215.298ZM212.536 209.868V210.324H210.748V213.325C211.607 213.322 212.203 213.29 212.893 213.15L212.942 213.613C212.192 213.767 211.554 213.795 210.601 213.795H210.201V209.868H212.536ZM220.087 211.018C220.08 212.021 220.803 213.122 221.707 213.549L221.392 213.984C220.69 213.644 220.098 212.901 219.821 212.056C219.534 212.975 218.906 213.781 218.208 214.138L217.872 213.704C218.769 213.269 219.541 212.084 219.548 211.018V210.205H218.096V209.749H221.49V210.205H220.087V211.018ZM222.801 209.104V211.628H223.846V212.098H222.801V215.337H222.254V209.104H222.801ZM229.869 212.189V212.631H224.182V212.189H226.756V211.46H224.904V209.399H229.161V209.84H225.444V211.011H229.203V211.46H227.288V212.189H229.869ZM227.022 213.087C228.361 213.087 229.161 213.493 229.168 214.209C229.161 214.931 228.361 215.33 227.022 215.337C225.676 215.33 224.869 214.931 224.869 214.209C224.869 213.493 225.676 213.087 227.022 213.087ZM227.022 213.521C226.019 213.521 225.423 213.781 225.43 214.209C225.423 214.643 226.019 214.896 227.022 214.896C228.011 214.896 228.614 214.643 228.614 214.209C228.614 213.781 228.011 213.521 227.022 213.521ZM232.463 211.137C232.463 212.133 233.115 213.157 234.02 213.592L233.697 214.019C233.01 213.683 232.467 213.003 232.211 212.196C231.937 213.062 231.359 213.788 230.647 214.131L230.332 213.704C231.243 213.276 231.923 212.21 231.93 211.137V210.64H230.5V210.191H231.923V209.223H232.477V210.191H233.879V210.64H232.463V211.137ZM235.212 209.104V211.663H236.256V212.133H235.212V215.337H234.665V209.104H235.212Z" fill="black"/>
<path d="M286.753 209.318C286.746 210.18 287.391 210.98 288.31 211.288L288.001 211.723C287.321 211.467 286.781 210.952 286.508 210.292C286.245 211.043 285.677 211.621 284.93 211.905L284.636 211.47C285.582 211.12 286.206 210.285 286.213 209.332V208.708H286.753V209.318ZM289.53 208.385V209.942H290.469V210.405H289.53V212.038H288.983V208.385H289.53ZM289.53 212.326V214.535H285.596V212.326H289.53ZM286.136 212.775V214.086H288.983V212.775H286.136ZM293.008 209.367C293.001 210.257 293.632 211.043 294.55 211.351L294.242 211.779C293.555 211.52 293.015 211.015 292.748 210.356C292.478 211.102 291.907 211.684 291.157 211.968L290.855 211.52C291.816 211.183 292.454 210.356 292.461 209.388V208.743H293.008V209.367ZM296.03 208.385V212.08H295.476V210.18H294.087V209.725H295.476V208.385H296.03ZM293.961 212.263C295.258 212.263 296.051 212.691 296.051 213.441C296.051 214.184 295.258 214.605 293.961 214.605C292.664 214.605 291.872 214.184 291.872 213.441C291.872 212.691 292.664 212.263 293.961 212.263ZM293.961 212.698C293.008 212.698 292.412 212.978 292.419 213.441C292.412 213.89 293.008 214.163 293.961 214.163C294.915 214.163 295.504 213.89 295.504 213.441C295.504 212.978 294.915 212.698 293.961 212.698ZM302.235 208.392V212.964H301.681V210.573H300.398V210.117H301.681V208.392H302.235ZM302.41 214.023V214.486H298.231V212.55H298.785V214.023H302.41ZM299.234 209.675C299.234 210.482 299.858 211.267 300.77 211.576L300.482 212.017C299.777 211.765 299.234 211.239 298.968 210.594C298.698 211.313 298.123 211.888 297.383 212.165L297.096 211.716C298.014 211.393 298.68 210.573 298.68 209.675V209.353H297.271V208.897H300.629V209.353H299.234V209.675ZM305.383 210.3C305.376 211.302 306.099 212.403 307.003 212.831L306.688 213.265C305.986 212.925 305.394 212.182 305.117 211.337C304.829 212.256 304.202 213.062 303.504 213.42L303.168 212.985C304.065 212.55 304.836 211.365 304.843 210.3V209.486H303.392V209.03H306.786V209.486H305.383V210.3ZM308.097 208.385V210.91H309.142V211.379H308.097V214.619H307.55V208.385H308.097Z" fill="black"/>
<path d="M364.787 208.925C364.78 210.896 364.304 212.536 361.92 213.728L361.429 213.055C362.495 212.526 363.129 211.933 363.49 211.225L361.604 211.4L361.492 210.636L363.764 210.496C363.827 210.229 363.872 209.942 363.897 209.64H361.829V208.925H364.787ZM366.491 208.315V210.762H367.396V211.499H366.491V214.682H365.594V208.315H366.491ZM370.993 208.925C370.986 210.896 370.509 212.536 368.125 213.728L367.634 213.055C368.7 212.526 369.335 211.933 369.696 211.225L367.81 211.4L367.697 210.636L369.969 210.496C370.032 210.229 370.078 209.942 370.102 209.64H368.034V208.925H370.993ZM372.697 208.315V210.762H373.601V211.499H372.697V214.682H371.799V208.315H372.697ZM376.778 208.645C378.152 208.645 379.176 209.339 379.183 210.391C379.176 211.351 378.366 212 377.219 212.13V213.216H379.708V213.953H373.868V213.216H376.329V212.123C375.186 212 374.379 211.348 374.379 210.391C374.379 209.339 375.403 208.645 376.778 208.645ZM376.778 209.36C375.887 209.36 375.263 209.753 375.263 210.391C375.263 211.064 375.887 211.442 376.778 211.442C377.675 211.442 378.292 211.064 378.299 210.391C378.292 209.753 377.675 209.36 376.778 209.36Z" fill="#8071FC"/>
<path d="M295.754 234.72V236.775H296.694V237.238H295.754V239.39H295.208V234.72H295.754ZM294.612 235.485V235.933H290.895V235.485H292.48V234.72H293.027V235.485H294.612ZM292.753 236.277C293.644 236.277 294.247 236.733 294.254 237.441C294.247 238.142 293.644 238.591 292.753 238.591C291.856 238.591 291.246 238.142 291.253 237.441C291.246 236.733 291.856 236.277 292.753 236.277ZM292.753 236.712C292.164 236.712 291.772 236.999 291.779 237.441C291.772 237.883 292.164 238.163 292.753 238.156C293.335 238.163 293.728 237.883 293.735 237.441C293.728 236.999 293.335 236.712 292.753 236.712ZM296.042 240.351V240.814H291.856V239.019H292.396V240.351H296.042ZM301.925 234.713V237.371H302.92V237.834H301.925V240.947H301.371V234.713H301.925ZM297.01 239.285C297.518 239.285 298.11 239.285 298.727 239.264V238.57C298.002 238.489 297.528 238.065 297.535 237.448C297.528 236.747 298.124 236.291 299.008 236.291C299.877 236.291 300.48 236.747 300.487 237.448C300.48 238.065 300 238.489 299.281 238.577V239.243C299.863 239.215 300.449 239.169 300.992 239.089L301.027 239.509C299.667 239.741 298.195 239.755 297.101 239.755L297.01 239.285ZM300.88 235.478V235.926H297.122V235.478H298.727V234.727H299.281V235.478H300.88ZM299.008 236.719C298.433 236.719 298.047 237.013 298.047 237.448C298.047 237.883 298.433 238.163 299.008 238.156C299.576 238.163 299.962 237.883 299.962 237.448C299.962 237.013 299.576 236.719 299.008 236.719Z" fill="black"/>
<path d="M358.957 240.379V235.302H359.588V237.56H362.274V235.302H362.912V240.379H362.274V238.114H359.588V240.379H358.957ZM365.605 240.379H364.027V235.302H365.668C367.147 235.302 368.024 236.256 368.024 237.834C368.024 239.418 367.147 240.379 365.605 240.379ZM364.658 239.818H365.562C366.811 239.818 367.407 239.068 367.407 237.834C367.407 236.607 366.811 235.863 365.626 235.863H364.658V239.818ZM375.61 234.72V239.474H375.056V238.135H373.977V237.686H375.056V236.838H373.977V236.382H375.056V234.72H375.61ZM373.977 235.485V235.933H370.45V235.485H371.964V234.713H372.511V235.485H373.977ZM372.231 236.277C373.065 236.277 373.654 236.754 373.654 237.469C373.654 238.177 373.065 238.661 372.231 238.661C371.396 238.661 370.814 238.177 370.821 237.469C370.814 236.754 371.396 236.277 372.231 236.277ZM372.231 236.712C371.698 236.719 371.333 237.02 371.333 237.469C371.333 237.918 371.698 238.219 372.231 238.219C372.764 238.219 373.128 237.918 373.135 237.469C373.128 237.02 372.764 236.719 372.231 236.712ZM375.75 240.351V240.814H371.579V239.054H372.132V240.351H375.75ZM381.977 234.713V240.947H381.451V237.679H380.532V240.624H380.028V234.854H380.532V237.224H381.451V234.713H381.977ZM379.214 235.478V235.933H377.426V238.934C378.285 238.931 378.881 238.899 379.572 238.759L379.621 239.222C378.871 239.376 378.233 239.404 377.279 239.404H376.879V235.478H379.214Z" fill="black"/>
<path d="M444.716 237.606C444.499 236.954 444.001 236.54 443.279 236.54C442.381 236.54 441.666 237.248 441.666 238.559C441.666 239.871 442.381 240.579 443.321 240.579C444.18 240.579 444.765 240.004 444.779 239.106H443.454V238.552H445.396V239.099C445.396 240.361 444.527 241.168 443.321 241.168C441.968 241.168 441.056 240.165 441.056 238.559C441.056 236.954 441.975 235.951 443.279 235.951C444.352 235.951 445.179 236.624 445.368 237.606H444.716ZM449.112 237.297C449.056 236.799 448.601 236.512 447.991 236.512C447.317 236.512 446.876 236.863 446.876 237.346C446.876 237.879 447.472 238.076 447.857 238.174L448.362 238.314C448.909 238.454 449.8 238.77 449.8 239.716C449.8 240.544 449.134 241.189 447.956 241.189C446.862 241.189 446.182 240.621 446.125 239.779H446.771C446.827 240.347 447.353 240.614 447.956 240.614C448.657 240.614 449.183 240.256 449.183 239.702C449.183 239.212 448.713 239.022 448.18 238.868L447.556 238.7C446.757 238.468 446.266 238.062 446.266 237.374C446.266 236.519 447.03 235.951 448.012 235.951C448.993 235.951 449.701 236.526 449.73 237.297H449.112Z" fill="black"/>
<path d="M441.489 214.77V209.693H442.12V214.209H444.476V214.77H441.489ZM448.578 211.278C448.36 210.626 447.862 210.212 447.14 210.212C446.243 210.212 445.527 210.92 445.527 212.231C445.527 213.542 446.243 214.251 447.182 214.251C448.041 214.251 448.627 213.676 448.641 212.778H447.315V212.224H449.258V212.771C449.258 214.033 448.388 214.84 447.182 214.84C445.829 214.84 444.917 213.837 444.917 212.231C444.917 210.626 445.836 209.623 447.14 209.623C448.213 209.623 449.04 210.296 449.23 211.278H448.578Z" fill="black"/>
<path d="M516.294 212.899V213.369H510.586V212.899H513.146V211.462H511.105V211.02H512.08V208.973H511.091V208.517H515.747V208.973H514.758V211.02H515.733V211.462H513.686V212.899H516.294ZM512.627 211.02H514.218V208.973H512.627V211.02ZM519.898 208.825C519.898 209.891 521.118 210.845 522.205 211.048L521.952 211.511C521.013 211.293 520.021 210.624 519.618 209.702C519.214 210.62 518.226 211.29 517.283 211.511L517.03 211.048C518.11 210.838 519.323 209.898 519.323 208.825V208.349H519.898V208.825ZM522.499 212.836V213.292H516.792V212.836H522.499ZM527.982 208.517V209.12C527.975 209.877 527.982 210.733 527.723 212.002L527.183 211.939C527.306 211.374 527.369 210.88 527.408 210.438L523.593 210.669L523.502 210.186L527.429 210.024C527.443 209.695 527.443 209.397 527.443 209.12V208.973H523.684V208.517H527.982ZM528.677 212.822V213.292H522.997V212.822H525.227V211.209H525.767V212.822H528.677Z" fill="black"/>
<path d="M594.545 211.751V212.207H588.837V211.751H591.418V211.127H589.58V209.64H593.255V209.016H589.559V208.582H593.809V210.054H590.127V210.692H593.942V211.127H591.957V211.751H594.545ZM591.971 212.662C591.971 213.448 592.946 214.023 594.089 214.17L593.886 214.591C592.936 214.454 592.066 214.044 591.691 213.392C591.316 214.044 590.446 214.454 589.496 214.591L589.293 214.17C590.429 214.023 591.411 213.448 591.411 212.662V212.536H591.971V212.662ZM600.386 208.385V214.619H599.853V208.385H600.386ZM599.109 208.54V214.296H598.584V211.232H597.223V210.769H598.584V208.54H599.109ZM597.644 209.157V209.612H595.828V212.655C596.725 212.652 597.293 212.613 597.966 212.466L598.023 212.936C597.3 213.083 596.69 213.111 595.688 213.118H595.295V209.157H597.644Z" fill="black"/>
<path d="M444.952 263.946C444.805 263.245 444.202 262.866 443.536 262.866C442.618 262.866 441.902 263.574 441.902 264.886C441.902 266.197 442.618 266.905 443.536 266.905C444.202 266.905 444.798 266.526 444.952 265.832H445.584C445.401 266.87 444.567 267.494 443.536 267.494C442.232 267.494 441.292 266.491 441.292 264.886C441.292 263.28 442.232 262.277 443.536 262.277C444.56 262.277 445.394 262.894 445.584 263.946H444.952ZM448.409 262.347H449.047V265.972C449.047 266.947 448.472 267.494 447.589 267.494C446.747 267.494 446.137 267.01 446.137 266.225H446.761C446.761 266.653 447.112 266.933 447.589 266.933C448.115 266.933 448.409 266.603 448.409 265.972V262.347Z" fill="black"/>
<path d="M515.733 260.568V265.14H515.186V260.568H515.733ZM515.929 266.199V266.661H511.708V264.719H512.255V266.199H515.929ZM512.795 261.543C512.788 262.489 513.44 263.345 514.366 263.681L514.078 264.123C513.356 263.846 512.795 263.285 512.522 262.566C512.245 263.331 511.677 263.944 510.951 264.235L510.65 263.808C511.596 263.443 512.234 262.524 512.234 261.543V260.919H512.795V261.543ZM518.643 262.335C518.643 263.324 519.127 264.397 519.954 264.887L519.639 265.315C519.039 264.95 518.608 264.284 518.39 263.527C518.159 264.354 517.696 265.066 517.072 265.448L516.722 265.035C517.584 264.53 518.11 263.422 518.11 262.356V261.15H518.643V262.335ZM522.135 260.561V266.795H521.602V260.561H522.135ZM520.845 260.694V266.479H520.326V263.268H519.267V262.798H520.326V260.694H520.845ZM528.333 260.561V266.795H527.807V260.561H528.333ZM527.071 260.729V266.479H526.545V264.319H525.388V263.864H526.545V262.756H525.493C525.188 263.811 524.505 264.744 523.327 265.448L522.99 265.049C524.347 264.246 525.027 263.12 525.136 261.816H523.271V261.36H525.683C525.683 261.679 525.655 261.995 525.599 262.3H526.545V260.729H527.071Z" fill="black"/>
<path d="M518.734 235.979V236.435H516.813V237.255H519.386V237.718H513.7V237.255H516.273V236.435H514.478V234.359H515.025V235.979H518.734ZM516.539 238.188C517.879 238.188 518.678 238.601 518.685 239.323C518.678 240.046 517.879 240.452 516.539 240.452C515.193 240.452 514.387 240.046 514.387 239.323C514.387 238.601 515.193 238.188 516.539 238.188ZM516.539 238.622C515.537 238.622 514.941 238.875 514.948 239.323C514.941 239.751 515.537 240.018 516.539 240.018C517.528 240.018 518.131 239.751 518.131 239.323C518.131 238.875 517.528 238.622 516.539 238.622ZM523.439 234.864V235.32H519.912V234.864H521.427V234.177H521.974V234.864H523.439ZM521.693 235.621C522.527 235.621 523.116 236.07 523.116 236.75C523.116 237.423 522.527 237.865 521.693 237.865C520.852 237.865 520.277 237.423 520.284 236.75C520.277 236.07 520.852 235.621 521.693 235.621ZM521.693 236.049C521.153 236.049 520.796 236.329 520.796 236.75C520.796 237.164 521.153 237.451 521.693 237.451C522.233 237.451 522.598 237.164 522.605 236.75C522.598 236.329 522.233 236.049 521.693 236.049ZM525.073 234.233V237.921H524.519V237.367H523.432V236.911H524.519V236.147H523.439V235.691H524.519V234.233H525.073ZM521.56 238.181V238.84H524.526V238.181H525.073V240.382H521.013V238.181H521.56ZM521.56 239.941H524.526V239.267H521.56V239.941Z" fill="black"/>
<path d="M444.33 288.081V290.654H445.375V291.11H444.33V294.314H443.783V288.081H444.33ZM443.18 289.083V289.539H439.471V289.083H441.077V288.158H441.624V289.083H443.18ZM441.357 290.058C442.241 290.058 442.879 290.647 442.886 291.488C442.879 292.33 442.241 292.919 441.357 292.919C440.467 292.919 439.822 292.33 439.829 291.488C439.822 290.647 440.467 290.058 441.357 290.058ZM441.357 290.521C440.775 290.521 440.348 290.927 440.355 291.488C440.348 292.056 440.775 292.456 441.357 292.449C441.932 292.456 442.353 292.056 442.36 291.488C442.353 290.927 441.932 290.521 441.357 290.521ZM450.858 288.088V291.783H450.311V288.088H450.858ZM448.874 288.466V290.156H446.574V291.019C447.689 291.026 448.523 290.99 449.533 290.822L449.596 291.285C448.551 291.446 447.696 291.481 446.546 291.481H446.041V289.721H448.327V288.908H446.027V288.466H448.874ZM450.858 292.119V294.23H446.806V292.119H450.858ZM447.345 292.568V293.781H450.318V292.568H447.345Z" fill="black"/>
<path d="M517.735 288.752C517.679 288.255 517.223 287.967 516.613 287.967C515.94 287.967 515.498 288.318 515.498 288.801C515.498 289.334 516.094 289.531 516.48 289.629L516.985 289.769C517.532 289.909 518.422 290.225 518.422 291.171C518.422 291.999 517.756 292.644 516.578 292.644C515.484 292.644 514.804 292.076 514.748 291.235H515.393C515.449 291.802 515.975 292.069 516.578 292.069C517.279 292.069 517.805 291.711 517.805 291.157C517.805 290.667 517.335 290.477 516.802 290.323L516.178 290.155C515.379 289.923 514.888 289.517 514.888 288.83C514.888 287.974 515.652 287.406 516.634 287.406C517.616 287.406 518.324 287.981 518.352 288.752H517.735ZM519.327 287.476H520.084L521.795 291.655H521.858L523.569 287.476H524.326V292.553H523.73V288.717H523.681L522.103 292.553H521.542L519.965 288.717H519.923V292.553H519.327V287.476Z" fill="black"/>
<path d="M293.1 266.705V261.629H293.731V266.144H296.087V266.705H293.1ZM299.698 262.905C299.642 262.407 299.186 262.119 298.576 262.119C297.903 262.119 297.461 262.47 297.461 262.954C297.461 263.487 298.057 263.683 298.443 263.781L298.948 263.921C299.495 264.062 300.385 264.377 300.385 265.324C300.385 266.151 299.719 266.796 298.541 266.796C297.447 266.796 296.767 266.228 296.711 265.387H297.356C297.412 265.955 297.938 266.221 298.541 266.221C299.242 266.221 299.768 265.864 299.768 265.31C299.768 264.819 299.298 264.63 298.765 264.475L298.141 264.307C297.342 264.076 296.851 263.669 296.851 262.982C296.851 262.126 297.616 261.558 298.597 261.558C299.579 261.558 300.287 262.133 300.315 262.905H299.698Z" fill="black"/>
<path d="M369.508 261.047V263.101H370.448V263.564H369.508V265.716H368.961V261.047H369.508ZM368.365 261.811V262.26H364.649V261.811H366.234V261.047H366.781V261.811H368.365ZM366.507 262.603C367.398 262.603 368.001 263.059 368.008 263.767C368.001 264.468 367.398 264.917 366.507 264.917C365.61 264.917 365 264.468 365.007 263.767C365 263.059 365.61 262.603 366.507 262.603ZM366.507 263.038C365.918 263.038 365.526 263.325 365.533 263.767C365.526 264.209 365.918 264.489 366.507 264.482C367.089 264.489 367.482 264.209 367.489 263.767C367.482 263.325 367.089 263.038 366.507 263.038ZM369.796 266.677V267.14H365.61V265.345H366.15V266.677H369.796ZM373.084 262.379C373.084 263.22 373.75 263.978 374.683 264.272L374.403 264.714C373.677 264.468 373.098 263.956 372.818 263.297C372.544 264.009 371.959 264.57 371.219 264.84L370.932 264.398C371.864 264.069 372.53 263.262 372.53 262.379V262.014H371.072V261.565H374.522V262.014H373.084V262.379ZM375.987 261.047V265.618H375.44V261.047H375.987ZM376.184 266.677V267.14H371.962V265.184H372.509V266.677H376.184Z" fill="black"/>
<path d="M357.145 287.702V288.165C357.145 288.649 357.145 289.217 356.984 289.995H357.896V290.451H352.188V289.995H356.43C356.598 289.213 356.598 288.649 356.598 288.165V288.158H352.91V287.702H357.145ZM357.173 291.313V293.515H352.889V291.313H357.173ZM353.436 291.748V293.066H356.626V291.748H353.436ZM363.778 288.291V288.747H358.674V288.291H360.96V287.471H361.5V288.291H363.778ZM364.101 292.414V292.87H358.393V292.414H360.96V291.538C359.852 291.478 359.179 291.047 359.186 290.346C359.179 289.603 359.964 289.168 361.233 289.175C362.488 289.168 363.281 289.603 363.281 290.346C363.281 291.047 362.6 291.478 361.5 291.538V292.414H364.101ZM361.233 289.61C360.301 289.61 359.733 289.883 359.74 290.346C359.733 290.823 360.301 291.089 361.233 291.096C362.152 291.089 362.72 290.823 362.72 290.346C362.72 289.883 362.152 289.61 361.233 289.61ZM366.268 287.85C367.186 287.857 367.838 288.698 367.845 290.023C367.838 291.348 367.186 292.19 366.268 292.19C365.342 292.19 364.697 291.348 364.697 290.023C364.697 288.698 365.342 287.857 366.268 287.85ZM366.268 288.34C365.65 288.347 365.216 289.007 365.216 290.023C365.216 291.04 365.65 291.699 366.268 291.699C366.892 291.699 367.312 291.04 367.312 290.023C367.312 289.007 366.892 288.347 366.268 288.34ZM369.423 287.366V289.855H370.468V290.332H369.423V293.599H368.876V287.366H369.423ZM373.02 289.042C373.013 290.177 373.791 291.327 374.71 291.741L374.373 292.176C373.665 291.829 373.051 291.096 372.753 290.206C372.462 291.149 371.849 291.934 371.12 292.302L370.769 291.839C371.695 291.412 372.466 290.227 372.473 289.042V287.906H373.02V289.042ZM375.944 287.366V293.613H375.39V287.366H375.944ZM378.678 287.85C379.597 287.857 380.249 288.698 380.256 290.023C380.249 291.348 379.597 292.19 378.678 292.19C377.753 292.19 377.108 291.348 377.108 290.023C377.108 288.698 377.753 287.857 378.678 287.85ZM378.678 288.34C378.061 288.347 377.626 289.007 377.626 290.023C377.626 291.04 378.061 291.699 378.678 291.699C379.302 291.699 379.723 291.04 379.723 290.023C379.723 289.007 379.302 288.347 378.678 288.34ZM381.834 287.366V289.855H382.878V290.332H381.834V293.599H381.287V287.366H381.834ZM389.049 289.855V290.318H388.039V293.599H387.492V287.366H388.039V289.855H389.049ZM384.021 287.983V291.552C384.933 291.548 385.862 291.478 386.889 291.264L386.959 291.734C385.886 291.951 384.919 292.015 383.972 292.015H383.474V287.983H384.021Z" fill="black"/>
<path d="M295.832 287.758V288.333C295.832 288.975 295.832 289.701 295.614 290.717H296.561V291.18H294.009V293.599H293.455V291.18H290.881V290.717H295.06C295.169 290.272 295.229 289.883 295.264 289.525L291.498 289.722L291.428 289.238L295.299 289.105C295.309 288.831 295.309 288.575 295.313 288.333V288.214H291.604V287.758H295.832ZM300.649 287.906V288.368H300.011V290.184C300.33 290.163 300.645 290.135 300.943 290.093L300.985 290.5C299.702 290.717 298.237 290.738 297.171 290.738L297.108 290.276L297.914 290.269V288.368H297.283V287.906H300.649ZM299.962 291.327C301.231 291.32 302.016 291.734 302.016 292.449C302.016 293.178 301.231 293.585 299.962 293.585C298.671 293.585 297.893 293.178 297.893 292.449C297.893 291.734 298.671 291.32 299.962 291.327ZM299.962 291.769C299.008 291.769 298.433 292.022 298.433 292.449C298.433 292.891 299.008 293.143 299.962 293.143C300.908 293.143 301.469 292.891 301.469 292.449C301.469 292.022 300.908 291.769 299.962 291.769ZM301.96 287.366V288.992H302.899V289.448H301.96V291.194H301.413V287.366H301.96ZM298.454 290.262C298.787 290.255 299.127 290.244 299.471 290.22V288.368H298.454V290.262Z" fill="black"/>
<path d="M308.358 150.203H307.881L307.923 149.116L306.998 149.698L306.759 149.285L307.727 148.78L306.759 148.268L306.998 147.854L307.923 148.436L307.881 147.349H308.358L308.316 148.436L309.241 147.854L309.48 148.268L308.519 148.78L309.48 149.285L309.241 149.698L308.316 149.116L308.358 150.203ZM316.73 146.767V148.653H317.662V149.116H316.73V150.946H316.176V146.767H316.73ZM311.836 150.308C312.334 150.308 312.916 150.308 313.526 150.287V149.831C312.8 149.768 312.334 149.428 312.334 148.913C312.334 148.345 312.916 147.994 313.792 147.994C314.675 147.994 315.25 148.345 315.257 148.913C315.25 149.425 314.795 149.765 314.072 149.831V150.266C314.654 150.238 315.243 150.193 315.79 150.112L315.839 150.512C314.486 150.75 312.993 150.757 311.899 150.757L311.836 150.308ZM316.73 151.255V152.994H316.176V151.697H312.6V151.255H316.73ZM315.601 147.335V147.756H311.99V147.335H313.526V146.711H314.072V147.335H315.601ZM313.792 148.387C313.217 148.38 312.859 148.583 312.859 148.913C312.859 149.235 313.217 149.46 313.792 149.453C314.367 149.46 314.732 149.235 314.732 148.913C314.732 148.583 314.367 148.38 313.792 148.387ZM323.209 146.76V149.993H322.669V146.76H323.209ZM323.216 150.308V151.802H319.717V152.475H323.44V152.924H319.177V151.374H322.669V150.75H319.163V150.308H323.216ZM320.278 147.419C320.271 148.303 320.944 149.081 321.87 149.383L321.596 149.81C320.867 149.561 320.285 149.039 320.004 148.366C319.724 149.092 319.138 149.663 318.399 149.93L318.111 149.495C319.051 149.165 319.717 148.338 319.717 147.419V146.943H320.278V147.419ZM329.148 146.767V148.822H330.087V149.285H329.148V151.437H328.601V146.767H329.148ZM328.005 147.532V147.98H324.289V147.532H325.873V146.767H326.42V147.532H328.005ZM326.147 148.324C327.037 148.324 327.64 148.78 327.647 149.488C327.64 150.189 327.037 150.638 326.147 150.638C325.249 150.638 324.639 150.189 324.646 149.488C324.639 148.78 325.249 148.324 326.147 148.324ZM326.147 148.759C325.558 148.759 325.165 149.046 325.172 149.488C325.165 149.93 325.558 150.21 326.147 150.203C326.729 150.21 327.121 149.93 327.128 149.488C327.121 149.046 326.729 148.759 326.147 148.759ZM329.435 152.398V152.861H325.249V151.066H325.789V152.398H329.435ZM335.437 147.307V147.861H336.896V146.767H337.45V151.318H336.896V149.656H335.437V150.217H332.576V147.307H335.437ZM333.123 147.763V149.775H334.897V147.763H333.123ZM337.59 152.398V152.861H333.418V150.911H333.972V152.398H337.59ZM335.437 149.2H336.896V148.324H335.437V149.2ZM343.648 146.76V150.147H343.101V148.738H341.839V148.275H343.101V146.76H343.648ZM340.191 150.448V151.227H343.101V150.448H343.648V152.91H339.637V150.448H340.191ZM340.191 152.461H343.101V151.669H340.191V152.461ZM340.654 147.777C340.654 148.576 341.278 149.362 342.189 149.677L341.902 150.105C341.197 149.849 340.654 149.327 340.387 148.682C340.118 149.404 339.543 149.982 338.803 150.252L338.515 149.817C339.434 149.488 340.1 148.66 340.1 147.777V147.595H338.691V147.139H342.049V147.595H340.654V147.777ZM349.692 147.539C349.685 148.303 350.737 148.927 351.838 149.081L351.62 149.516C350.614 149.372 349.674 148.867 349.334 148.135C348.998 148.867 348.062 149.372 347.049 149.516L346.845 149.081C347.946 148.927 348.977 148.303 348.977 147.539V147.525H347.014V147.076H351.669V147.525H349.692V147.539ZM352.195 149.972V150.427H349.657V151.704H349.11V150.427H346.488V149.972H352.195ZM351.557 152.398V152.861H347.217V151.08H347.771V152.398H351.557ZM357.84 146.76V153.008H357.286V146.76H357.84ZM353.612 147.293V148.941H355.47V147.293H356.01V151.5H353.065V147.293H353.612ZM353.612 151.037H355.47V149.383H353.612V151.037ZM364.606 149.656V150.091H358.898V149.656H364.606ZM363.891 150.589V151.914H360.146V152.51H364.094V152.91H359.593V151.535H363.344V151.002H359.586V150.589H363.891ZM363.87 146.95V148.24H360.189V148.787H363.982V149.186H359.642V147.861H363.316V147.349H359.621V146.95H363.87ZM368.967 147.069C369.9 147.062 370.566 147.574 370.566 148.338C370.566 149.095 369.9 149.621 368.967 149.614C368.035 149.621 367.369 149.095 367.369 148.338C367.369 147.574 368.035 147.062 368.967 147.069ZM368.967 147.518C368.343 147.511 367.901 147.854 367.908 148.338C367.901 148.829 368.343 149.165 368.967 149.158C369.598 149.165 370.04 148.829 370.04 148.338C370.04 147.854 369.598 147.511 368.967 147.518ZM372.052 146.767V153.001H371.512V146.767H372.052ZM366.899 150.147C368.07 150.147 369.668 150.126 371.057 149.923L371.092 150.336C370.496 150.445 369.875 150.512 369.276 150.547V152.804H368.729V150.582C368.094 150.61 367.495 150.613 366.976 150.617L366.899 150.147ZM376.231 147.84V148.289H373.104V147.84H374.401V146.95H374.948V147.84H376.231ZM374.668 148.71C375.453 148.71 376.014 149.299 376.021 150.126C376.014 150.96 375.453 151.556 374.668 151.556C373.889 151.556 373.329 150.96 373.329 150.126C373.329 149.299 373.889 148.71 374.668 148.71ZM374.668 149.172C374.177 149.179 373.819 149.579 373.819 150.126C373.819 150.68 374.177 151.08 374.668 151.073C375.166 151.08 375.53 150.68 375.53 150.126C375.53 149.579 375.166 149.179 374.668 149.172ZM378.426 146.76V152.994H377.9V149.845H377.073V152.685H376.554V146.915H377.073V149.39H377.9V146.76H378.426ZM385.999 146.76V148.345H386.938V148.815H385.999V150.42H385.452V146.76H385.999ZM384.288 147.16C384.288 148.738 383.187 149.859 381.343 150.35L381.119 149.923C382.647 149.509 383.59 148.675 383.706 147.616H381.399V147.16H384.288ZM385.999 150.708V152.994H385.452V151.157H381.918V150.708H385.999ZM392.204 146.76V148.345H393.144V148.815H392.204V150.42H391.657V146.76H392.204ZM390.493 147.16C390.493 148.738 389.392 149.859 387.548 150.35L387.324 149.923C388.852 149.509 389.796 148.675 389.911 147.616H387.604V147.16H390.493ZM392.204 150.708V152.994H391.657V151.157H388.123V150.708H392.204ZM400.211 146.767V148.822H401.151V149.285H400.211V151.437H399.665V146.767H400.211ZM399.069 147.532V147.98H395.352V147.532H396.937V146.767H397.484V147.532H399.069ZM397.21 148.324C398.101 148.324 398.704 148.78 398.711 149.488C398.704 150.189 398.101 150.638 397.21 150.638C396.313 150.638 395.703 150.189 395.71 149.488C395.703 148.78 396.313 148.324 397.21 148.324ZM397.21 148.759C396.621 148.759 396.229 149.046 396.236 149.488C396.229 149.93 396.621 150.21 397.21 150.203C397.792 150.21 398.185 149.93 398.192 149.488C398.185 149.046 397.792 148.759 397.21 148.759ZM400.499 152.398V152.861H396.313V151.066H396.853V152.398H400.499ZM406.368 146.76V149.299H407.377V149.761H406.368V152.994H405.821V146.76H406.368ZM404.755 147.433C404.755 149.2 403.928 150.806 401.894 151.809L401.586 151.374C403.198 150.571 404.075 149.372 404.201 147.896H401.873V147.433H404.755ZM409.979 148.675C409.979 149.733 410.75 150.806 411.669 151.206L411.36 151.64C410.631 151.307 410 150.589 409.712 149.726C409.418 150.641 408.79 151.437 408.079 151.795L407.749 151.36C408.64 150.932 409.418 149.754 409.425 148.675V147.861H407.952V147.405H411.465V147.861H409.979V148.675ZM412.889 146.76V152.994H412.335V146.76H412.889ZM417.103 147.328V150.196H414.221V147.328H417.103ZM414.761 147.777V149.754H416.57V147.777H414.761ZM418.828 146.76V148.66H419.767V149.123H418.828V151.332H418.281V146.76H418.828ZM419.115 152.398V152.861H414.929V150.897H415.469V152.398H419.115ZM424.093 147.938C424.093 148.808 424.724 149.628 425.636 149.958L425.327 150.385C424.644 150.112 424.1 149.569 423.834 148.892C423.568 149.646 423 150.245 422.263 150.54L421.969 150.091C422.901 149.747 423.546 148.878 423.553 147.917V147.146H424.093V147.938ZM427.129 146.767V151.437H426.576V148.696H425.187V148.233H426.576V146.767H427.129ZM427.27 152.398V152.861H423.098V150.904H423.652V152.398H427.27ZM430.867 147.216V147.679H428.974V148.457H430.797V148.892H428.974V149.754C429.882 149.751 430.45 149.719 431.119 149.586L431.175 150.042C430.446 150.182 429.857 150.217 428.84 150.217H428.448V147.216H430.867ZM433.461 146.767V150.547H432.935V148.843H432.059V150.505H431.547V146.887H432.059V148.394H432.935V146.767H433.461ZM433.461 150.869V152.994H432.921V151.318H429.261V150.869H433.461ZM439.197 146.76V149.299H440.206V149.761H439.197V152.994H438.65V146.76H439.197ZM437.584 147.433C437.584 149.2 436.757 150.806 434.723 151.809L434.415 151.374C436.027 150.571 436.904 149.372 437.03 147.896H434.702V147.433H437.584ZM445.612 148.506V148.962H441.356V146.887H441.903V148.506H445.612ZM446.264 149.691V150.147H440.578V149.691H446.264ZM443.418 150.708C444.757 150.708 445.556 151.115 445.563 151.837C445.556 152.559 444.757 152.966 443.418 152.966C442.071 152.966 441.265 152.559 441.265 151.837C441.265 151.115 442.071 150.708 443.418 150.708ZM443.418 151.143C442.415 151.15 441.819 151.395 441.826 151.837C441.819 152.272 442.415 152.538 443.418 152.538C444.406 152.538 445.009 152.272 445.009 151.837C445.009 151.395 444.406 151.15 443.418 151.143ZM451.656 146.76V148.359H452.596V148.829H451.656V150.385H451.11V146.76H451.656ZM448.263 150.659V151.325H451.11V150.659H451.656V152.91H447.716V150.659H448.263ZM448.263 152.468H451.11V151.76H448.263V152.468ZM450.514 147.405V147.861H446.797V147.405H448.382V146.704H448.929V147.405H450.514ZM448.655 148.149C449.553 148.149 450.149 148.576 450.156 149.242C450.149 149.909 449.553 150.336 448.655 150.336C447.751 150.336 447.148 149.909 447.155 149.242C447.148 148.576 447.751 148.149 448.655 148.149ZM448.655 148.576C448.066 148.569 447.674 148.843 447.681 149.242C447.674 149.649 448.066 149.916 448.655 149.916C449.237 149.916 449.63 149.649 449.637 149.242C449.63 148.843 449.237 148.569 448.655 148.576ZM458.128 146.76V152.994H457.581V146.76H458.128ZM453.935 147.377V150.911C454.885 150.908 455.871 150.831 456.915 150.61L456.992 151.08C455.885 151.311 454.896 151.388 453.9 151.388H453.395V147.377H453.935ZM464.018 146.76V149.228H465.063V149.691H464.018V153.008H463.471V146.76H464.018ZM462.377 147.37V147.826H460.014V150.981C461.143 150.981 461.943 150.929 462.868 150.757L462.938 151.234C461.964 151.409 461.143 151.444 459.958 151.444H459.468V147.37H462.377ZM466.059 152.468C465.813 152.468 465.603 152.265 465.61 152.012C465.603 151.767 465.813 151.563 466.059 151.563C466.304 151.563 466.507 151.767 466.507 152.012C466.507 152.265 466.304 152.468 466.059 152.468Z" fill="#64748B"/>
<path d="M329.928 360.184V363.949H329.15V362.4H328.07V361.762H329.15V360.184H329.928ZM327.783 364.11C329.129 364.11 329.949 364.552 329.949 365.316C329.949 366.081 329.129 366.522 327.783 366.522C326.444 366.522 325.623 366.081 325.63 365.316C325.623 364.552 326.444 364.11 327.783 364.11ZM327.783 364.706C326.899 364.706 326.401 364.917 326.401 365.316C326.401 365.709 326.899 365.919 327.783 365.919C328.666 365.919 329.171 365.709 329.171 365.316C329.171 364.917 328.666 364.706 327.783 364.706ZM326.948 361.271C326.948 362.042 327.46 362.82 328.442 363.15L328.049 363.767C327.345 363.528 326.843 363.045 326.57 362.449C326.289 363.125 325.76 363.665 325.006 363.935L324.599 363.318C325.616 362.968 326.156 362.112 326.156 361.278V361.229H324.838V360.598H328.26V361.229H326.948V361.271ZM335.846 360.191V362.035H336.702V362.68H335.846V364.475H335.068V360.191H335.846ZM330.77 363.718C331.247 363.718 331.797 363.714 332.368 363.697V363.311C331.664 363.223 331.219 362.883 331.219 362.386C331.219 361.804 331.829 361.439 332.747 361.446C333.673 361.439 334.276 361.804 334.276 362.386C334.276 362.88 333.841 363.216 333.147 363.304V363.669C333.687 363.644 334.23 363.602 334.738 363.535L334.802 364.075C333.448 364.314 331.969 364.328 330.854 364.328L330.77 363.718ZM335.846 364.749V366.522H335.068V365.359H331.569V364.749H335.846ZM334.57 360.689V361.264H330.931V360.689H332.368V360.135H333.147V360.689H334.57ZM332.747 361.972C332.256 361.965 331.962 362.112 331.969 362.386C331.962 362.645 332.256 362.813 332.747 362.806C333.238 362.813 333.532 362.645 333.532 362.386C333.532 362.112 333.238 361.965 332.747 361.972ZM342.031 360.191V362.182H342.914V362.827H342.031V364.924H341.252V360.191H342.031ZM340.797 360.892V361.516H337.038V360.892H338.532V360.184H339.31V360.892H340.797ZM338.917 361.776C339.829 361.776 340.46 362.259 340.467 362.989C340.46 363.711 339.829 364.188 338.917 364.188C337.999 364.188 337.361 363.711 337.361 362.989C337.361 362.259 337.999 361.776 338.917 361.776ZM338.917 362.379C338.434 362.379 338.118 362.603 338.118 362.989C338.118 363.367 338.434 363.592 338.917 363.585C339.401 363.592 339.724 363.367 339.724 362.989C339.724 362.603 339.401 362.379 338.917 362.379ZM342.283 365.765V366.396H337.971V364.552H338.749V365.765H342.283ZM347.822 360.31C349.225 360.31 350.101 360.773 350.108 361.544C350.101 362.301 349.225 362.757 347.822 362.75C346.434 362.757 345.536 362.301 345.536 361.544C345.536 360.773 346.434 360.31 347.822 360.31ZM347.822 360.92C346.897 360.92 346.343 361.137 346.35 361.544C346.343 361.93 346.897 362.14 347.822 362.147C348.748 362.14 349.302 361.93 349.302 361.544C349.302 361.137 348.748 360.92 347.822 360.92ZM350.017 364.314V366.445H345.621V364.314H350.017ZM346.392 364.931V365.814H349.26V364.931H346.392ZM350.718 363.178V363.809H344.94V363.178H350.718ZM353.467 361.095C353.46 361.958 353.965 362.743 354.96 363.059L354.54 363.669C353.849 363.427 353.365 362.968 353.095 362.365C352.815 363.055 352.285 363.599 351.517 363.865L351.104 363.234C352.156 362.89 352.681 362.042 352.681 361.13V360.527H353.467V361.095ZM356.454 360.184V363.914H355.675V362.049H354.413V361.411H355.675V360.184H356.454ZM354.308 364.082C355.654 364.082 356.475 364.531 356.475 365.302C356.475 366.074 355.654 366.515 354.308 366.515C352.969 366.515 352.149 366.074 352.156 365.302C352.149 364.531 352.969 364.082 354.308 364.082ZM354.308 364.685C353.425 364.685 352.927 364.903 352.927 365.302C352.927 365.688 353.425 365.905 354.308 365.905C355.192 365.905 355.696 365.688 355.696 365.302C355.696 364.903 355.192 364.685 354.308 364.685ZM363.136 363.465V364.089H360.689V365.183H359.918V364.089H357.344V363.465H363.136ZM362.498 365.765V366.396H358.045V364.65H358.817V365.765H362.498ZM358.873 360.387V361.102H361.607V360.387H362.379V362.968H358.101V360.387H358.873ZM358.873 362.351H361.607V361.684H358.873V362.351ZM365.856 361.187C365.856 362 366.368 362.778 367.343 363.094L366.922 363.718C366.235 363.476 365.744 362.996 365.478 362.386C365.194 363.052 364.678 363.574 363.949 363.837L363.529 363.213C364.559 362.869 365.071 362.042 365.071 361.137V360.513H365.856V361.187ZM368.864 364.258V366.522H368.086V364.875H364.545V364.258H368.864ZM368.864 360.184V363.949H368.086V362.056H366.824V361.418H368.086V360.184H368.864ZM372.644 360.282C374.088 360.282 374.923 360.668 374.93 361.369C374.923 362.077 374.088 362.456 372.644 362.463C371.199 362.456 370.358 362.077 370.358 361.369C370.358 360.668 371.199 360.282 372.644 360.282ZM372.644 360.857C371.676 360.857 371.171 361.039 371.178 361.369C371.171 361.719 371.676 361.881 372.644 361.881C373.625 361.881 374.123 361.719 374.123 361.369C374.123 361.039 373.625 360.857 372.644 360.857ZM375.54 362.799V363.423H369.762V362.799H375.54ZM374.817 363.851V365.401H371.213V365.87H374.993V366.466H370.449V364.847H374.053V364.426H370.442V363.851H374.817ZM379.74 360.464C380.7 360.457 381.401 361.004 381.401 361.797C381.401 362.575 380.7 363.129 379.74 363.122C378.786 363.129 378.092 362.575 378.092 361.797C378.092 361.004 378.786 360.457 379.74 360.464ZM379.74 361.095C379.221 361.088 378.842 361.362 378.849 361.797C378.842 362.224 379.221 362.484 379.74 362.484C380.28 362.484 380.658 362.224 380.658 361.797C380.658 361.362 380.28 361.088 379.74 361.095ZM382.972 360.191V366.515H382.201V360.191H382.972ZM377.678 363.557C378.821 363.557 380.42 363.535 381.787 363.332L381.843 363.907C381.296 364.012 380.728 364.079 380.174 364.117V366.326H379.389V364.167C378.804 364.191 378.253 364.195 377.776 364.202L377.678 363.557ZM386.969 361.194V361.818H383.863V361.194H385.041V360.366H385.812V361.194H386.969ZM385.426 362.154C386.233 362.154 386.807 362.764 386.807 363.627C386.807 364.503 386.233 365.12 385.426 365.12C384.627 365.12 384.038 364.503 384.045 363.627C384.038 362.764 384.627 362.154 385.426 362.154ZM385.426 362.799C385.012 362.799 384.725 363.129 384.732 363.627C384.725 364.138 385.012 364.461 385.426 364.454C385.833 364.461 386.12 364.138 386.12 363.627C386.12 363.129 385.833 362.799 385.426 362.799ZM389.325 360.184V366.522H388.581V363.423H387.964V366.235H387.235V360.317H387.964V362.792H388.581V360.184H389.325ZM392.424 361.705C392.424 362.883 392.985 364.04 393.994 364.482L393.525 365.106C392.806 364.756 392.301 364.082 392.031 363.255C391.754 364.128 391.239 364.854 390.51 365.225L390.019 364.594C391.05 364.11 391.625 362.89 391.632 361.705V360.696H392.424V361.705ZM395.397 360.184V366.529H394.626V362.862H393.293V362.231H394.626V360.184H395.397ZM399.513 360.422V361.109H402.247V360.422H403.019V362.996H401.266V363.578H403.769V364.209H397.991V363.578H400.48V362.996H398.741V360.422H399.513ZM399.513 362.372H402.247V361.712H399.513V362.372ZM403.117 365.765V366.396H398.706V364.615H399.485V365.765H403.117ZM409.476 360.191V364.77H408.691V360.191H409.476ZM409.652 365.765V366.396H405.283V364.307H406.069V365.765H409.652ZM406.02 360.605C406.98 360.605 407.723 361.271 407.723 362.189C407.723 363.129 406.98 363.781 406.02 363.781C405.052 363.781 404.309 363.129 404.309 362.189C404.309 361.271 405.052 360.605 406.02 360.605ZM406.02 361.285C405.48 361.285 405.066 361.642 405.073 362.189C405.066 362.75 405.48 363.101 406.02 363.101C406.545 363.101 406.959 362.75 406.959 362.189C406.959 361.642 406.545 361.285 406.02 361.285ZM412.456 360.626C413.459 360.619 414.195 361.257 414.202 362.154C414.195 363.059 413.459 363.69 412.456 363.69C411.461 363.69 410.717 363.059 410.717 362.154C410.717 361.257 411.461 360.619 412.456 360.626ZM412.456 361.299C411.902 361.299 411.489 361.628 411.489 362.154C411.489 362.687 411.902 363.01 412.456 363.01C413.017 363.01 413.438 362.687 413.438 362.154C413.438 361.628 413.017 361.299 412.456 361.299ZM415.682 360.184V366.529H414.903V360.184H415.682ZM410.43 364.566C411.573 364.566 413.158 364.552 414.525 364.356L414.588 364.924C413.165 365.197 411.643 365.204 410.528 365.204L410.43 364.566ZM420.632 361.095C420.625 361.958 421.13 362.743 422.126 363.059L421.705 363.669C421.014 363.427 420.53 362.968 420.26 362.365C419.98 363.055 419.451 363.599 418.683 363.865L418.269 363.234C419.321 362.89 419.847 362.042 419.847 361.13V360.527H420.632V361.095ZM423.619 360.184V363.914H422.841V362.049H421.579V361.411H422.841V360.184H423.619ZM421.473 364.082C422.82 364.082 423.64 364.531 423.64 365.302C423.64 366.074 422.82 366.515 421.473 366.515C420.134 366.515 419.314 366.074 419.321 365.302C419.314 364.531 420.134 364.082 421.473 364.082ZM421.473 364.685C420.59 364.685 420.092 364.903 420.092 365.302C420.092 365.688 420.59 365.905 421.473 365.905C422.357 365.905 422.862 365.688 422.862 365.302C422.862 364.903 422.357 364.685 421.473 364.685ZM429.824 360.184V363.458H429.046V362.771H427.77V363.255H424.804V360.464H425.582V361.264H426.999V360.464H427.77V361.025H429.046V360.184H429.824ZM429.824 363.718V365.345H426.431V365.828H430.028V366.445H425.652V364.77H429.046V364.328H425.645V363.718H429.824ZM425.582 362.638H426.999V361.86H425.582V362.638ZM427.77 362.175H429.046V361.614H427.77V362.175ZM433.604 360.282C435.048 360.282 435.883 360.668 435.89 361.369C435.883 362.077 435.048 362.456 433.604 362.463C432.159 362.456 431.318 362.077 431.318 361.369C431.318 360.668 432.159 360.282 433.604 360.282ZM433.604 360.857C432.636 360.857 432.131 361.039 432.138 361.369C432.131 361.719 432.636 361.881 433.604 361.881C434.585 361.881 435.083 361.719 435.083 361.369C435.083 361.039 434.585 360.857 433.604 360.857ZM436.5 362.799V363.423H430.722V362.799H436.5ZM435.777 363.851V365.401H432.173V365.87H435.953V366.466H431.409V364.847H435.013V364.426H431.402V363.851H435.777ZM440.938 361.306C440.938 362.147 441.443 362.968 442.424 363.304L441.997 363.914C441.313 363.655 440.822 363.16 440.559 362.54C440.282 363.234 439.767 363.784 439.024 364.061L438.61 363.444C439.627 363.101 440.146 362.224 440.153 361.299V360.577H440.938V361.306ZM443.939 360.191V364.896H443.161V362.224H441.899V361.586H443.161V360.191H443.939ZM444.079 365.765V366.396H439.76V364.384H440.552V365.765H444.079ZM447.564 360.626V361.25H445.825V361.867H447.501V362.463H445.825V363.129C446.6 363.122 447.136 363.09 447.753 362.975L447.838 363.606C447.094 363.746 446.477 363.767 445.496 363.767H445.075V360.626H447.564ZM450.257 360.191V364.047H449.513V362.4H448.854V363.998H448.125V360.31H448.854V361.776H449.513V360.191H450.257ZM450.257 364.328V366.522H449.478V364.959H445.916V364.328H450.257ZM454.134 361.194V361.818H451.028V361.194H452.206V360.366H452.977V361.194H454.134ZM452.591 362.154C453.398 362.154 453.973 362.764 453.973 363.627C453.973 364.503 453.398 365.12 452.591 365.12C451.792 365.12 451.203 364.503 451.21 363.627C451.203 362.764 451.792 362.154 452.591 362.154ZM452.591 362.799C452.178 362.799 451.89 363.129 451.897 363.627C451.89 364.138 452.178 364.461 452.591 364.454C452.998 364.461 453.286 364.138 453.286 363.627C453.286 363.129 452.998 362.799 452.591 362.799ZM456.49 360.184V366.522H455.747V363.423H455.13V366.235H454.4V360.317H455.13V362.792H455.747V360.184H456.49ZM463.025 363.718V364.349H460.508V366.515H459.736V364.349H457.247V363.718H463.025ZM462.492 360.541V361.159H460.592C460.637 361.853 461.472 362.519 462.723 362.68L462.443 363.29C461.363 363.139 460.522 362.645 460.136 361.958C459.75 362.645 458.909 363.139 457.843 363.29L457.549 362.68C458.793 362.519 459.628 361.853 459.687 361.159H457.78V360.541H462.492ZM465.43 361.846C465.43 362.869 465.788 363.935 466.643 364.475L466.215 365.071C465.644 364.727 465.272 364.135 465.065 363.437C464.834 364.205 464.427 364.854 463.831 365.218L463.347 364.636C464.266 364.075 464.68 362.961 464.68 361.881V360.745H465.43V361.846ZM468.922 360.184V366.522H468.172V360.184H468.922ZM467.604 360.296V366.214H466.867V363.01H465.963V362.365H466.867V360.296H467.604ZM475.45 365.113V365.751H469.658V365.113H470.997V363.507C470.492 363.22 470.187 362.768 470.191 362.203C470.184 361.194 471.18 360.527 472.54 360.527C473.907 360.527 474.903 361.194 474.903 362.203C474.903 362.757 474.608 363.202 474.117 363.493V365.113H475.45ZM472.54 361.144C471.593 361.144 470.948 361.544 470.955 362.203C470.948 362.855 471.593 363.262 472.54 363.262C473.486 363.262 474.138 362.855 474.138 362.203C474.138 361.544 473.486 361.144 472.54 361.144ZM471.769 365.113H473.325V363.788C473.083 363.844 472.82 363.872 472.54 363.872C472.266 363.872 472.007 363.844 471.769 363.795V365.113ZM476.635 365.955C476.333 365.955 476.088 365.709 476.088 365.408C476.088 365.113 476.333 364.868 476.635 364.868C476.922 364.868 477.175 365.113 477.175 365.408C477.175 365.709 476.922 365.955 476.635 365.955Z" fill="#8071FC"/>
<path d="M149.718 243.474V253.627H147.6V245.479H147.544L145.216 246.938V245.073L147.726 243.474H149.718Z" fill="white"/>
<path d="M144.385 417.297L144.371 415.768L148.017 412.417C148.971 411.505 149.476 410.944 149.476 410.145C149.476 409.247 148.789 408.686 147.863 408.686C146.909 408.686 146.292 409.289 146.292 410.257H144.287C144.273 408.266 145.746 407.004 147.891 407.004C150.065 407.004 151.509 408.238 151.509 410.005C151.509 411.155 150.948 412.108 148.859 414.001L147.316 415.502V415.558H151.649V417.297H144.385Z" fill="white"/>
<g filter="url(#filter3_d_931_672)">
<rect x="309.602" y="380.748" width="84.668" height="84.668" rx="9.57334" fill="#F3EDFF"/>
<rect x="310.08" y="381.227" width="83.7106" height="83.7106" rx="9.09467" stroke="#8071FC" stroke-width="0.957334"/>
</g>
<g filter="url(#filter4_d_931_672)">
<rect x="408.205" y="380.748" width="84.668" height="84.668" rx="9.57334" fill="white"/>
<rect x="408.325" y="380.868" width="84.4286" height="84.4286" rx="9.45367" stroke="#CBD5E1" stroke-width="0.239333"/>
</g>
<path d="M350.731 442.745V444.578H351.918V445.438H350.731V447.504H349.693V442.745H350.731ZM350.731 447.915V451.075H345.262V447.915H350.731ZM346.281 448.729V450.253H349.712V448.729H346.281ZM345.477 443.157V446.13C346.561 446.12 347.702 446.022 348.936 445.784L349.058 446.635C347.655 446.915 346.356 446.99 345.131 446.99H344.43V443.157H345.477ZM355.434 443.951C355.424 445.101 356.097 446.148 357.425 446.569L356.864 447.382C355.943 447.06 355.298 446.448 354.938 445.644C354.564 446.564 353.858 447.289 352.835 447.644L352.283 446.803C353.685 446.345 354.386 445.214 354.386 443.998V443.194H355.434V443.951ZM359.416 442.736V447.71H358.378V445.223H356.696V444.372H358.378V442.736H359.416ZM356.555 447.934C358.35 447.934 359.444 448.532 359.444 449.561C359.444 450.589 358.35 451.178 356.555 451.178C354.77 451.178 353.676 450.589 353.685 449.561C353.676 448.532 354.77 447.934 356.555 447.934ZM356.555 448.738C355.377 448.738 354.714 449.028 354.714 449.561C354.714 450.075 355.377 450.365 356.555 450.365C357.733 450.365 358.407 450.075 358.407 449.561C358.407 449.028 357.733 448.738 356.555 448.738Z" fill="#8071FC"/>
<path d="M444.982 443.353C445.748 443.353 446.38 443.778 446.758 444.522H448.731V442.736H449.759V451.197H448.731V448H446.833C446.468 448.841 445.8 449.327 444.982 449.327C443.71 449.327 442.813 448.177 442.813 446.335C442.813 444.512 443.71 443.353 444.982 443.353ZM444.982 444.288C444.281 444.288 443.804 445.045 443.813 446.335C443.804 447.635 444.281 448.392 444.982 448.392C445.683 448.392 446.15 447.635 446.16 446.335C446.15 445.045 445.683 444.288 444.982 444.288ZM447.048 445.372C447.109 445.667 447.141 445.99 447.141 446.335C447.141 446.63 447.118 446.901 447.076 447.158H448.731V445.372H447.048ZM454.041 443.951C454.032 445.101 454.705 446.148 456.032 446.569L455.471 447.382C454.551 447.06 453.905 446.448 453.545 445.644C453.172 446.564 452.466 447.289 451.442 447.644L450.89 446.803C452.293 446.345 452.994 445.214 452.994 443.998V443.194H454.041V443.951ZM458.024 442.736V447.71H456.986V445.223H455.303V444.372H456.986V442.736H458.024ZM455.163 447.934C456.958 447.934 458.052 448.532 458.052 449.561C458.052 450.589 456.958 451.178 455.163 451.178C453.377 451.178 452.283 450.589 452.293 449.561C452.283 448.532 453.377 447.934 455.163 447.934ZM455.163 448.738C453.985 448.738 453.321 449.028 453.321 449.561C453.321 450.075 453.985 450.365 455.163 450.365C456.341 450.365 457.014 450.075 457.014 449.561C457.014 449.028 456.341 448.738 455.163 448.738Z" fill="black"/>
</g>
<defs>
<filter id="filter0_f_931_672" x="-178.478" y="331.512" width="685.802" height="578.814" filterUnits="userSpaceOnUse" color-interpolation-filters="sRGB">
<feFlood flood-opacity="0" result="BackgroundImageFix"/>
<feBlend mode="normal" in="SourceGraphic" in2="BackgroundImageFix" result="shape"/>
<feGaussianBlur stdDeviation="63.2" result="effect1_foregroundBlur_931_672"/>
</filter>
<filter id="filter1_d_931_672" x="-3.80469" y="38.5781" width="893" height="612" filterUnits="userSpaceOnUse" color-interpolation-filters="sRGB">
<feFlood flood-opacity="0" result="BackgroundImageFix"/>
<feColorMatrix in="SourceAlpha" type="matrix" values="0 0 0 0 0 0 0 0 0 0 0 0 0 0 0 0 0 0 127 0" result="hardAlpha"/>
<feOffset dx="20" dy="24"/>
<feGaussianBlur stdDeviation="42"/>
<feComposite in2="hardAlpha" operator="out"/>
<feColorMatrix type="matrix" values="0 0 0 0 0 0 0 0 0 0 0 0 0 0 0 0 0 0 0.15 0"/>
<feBlend mode="multiply" in2="BackgroundImageFix" result="effect1_dropShadow_931_672"/>
<feBlend mode="normal" in="SourceGraphic" in2="effect1_dropShadow_931_672" result="shape"/>
</filter>
<filter id="filter2_d_931_672" x="-3.80469" y="38.5781" width="893" height="612" filterUnits="userSpaceOnUse" color-interpolation-filters="sRGB">
<feFlood flood-opacity="0" result="BackgroundImageFix"/>
<feColorMatrix in="SourceAlpha" type="matrix" values="0 0 0 0 0 0 0 0 0 0 0 0 0 0 0 0 0 0 127 0" result="hardAlpha"/>
<feOffset dx="20" dy="24"/>
<feGaussianBlur stdDeviation="42"/>
<feComposite in2="hardAlpha" operator="out"/>
<feColorMatrix type="matrix" values="0 0 0 0 0 0 0 0 0 0 0 0 0 0 0 0 0 0 0.15 0"/>
<feBlend mode="multiply" in2="BackgroundImageFix" result="effect1_dropShadow_931_672"/>
<feBlend mode="normal" in="SourceGraphic" in2="effect1_dropShadow_931_672" result="shape"/>
</filter>
<filter id="filter3_d_931_672" x="300.028" y="371.175" width="108.601" height="108.601" filterUnits="userSpaceOnUse" color-interpolation-filters="sRGB">
<feFlood flood-opacity="0" result="BackgroundImageFix"/>
<feColorMatrix in="SourceAlpha" type="matrix" values="0 0 0 0 0 0 0 0 0 0 0 0 0 0 0 0 0 0 127 0" result="hardAlpha"/>
<feMorphology radius="2.39333" operator="dilate" in="SourceAlpha" result="effect1_dropShadow_931_672"/>
<feOffset dx="2.39333" dy="2.39333"/>
<feGaussianBlur stdDeviation="4.78667"/>
<feComposite in2="hardAlpha" operator="out"/>
<feColorMatrix type="matrix" values="0 0 0 0 0 0 0 0 0 0 0 0 0 0 0 0 0 0 0.05 0"/>
<feBlend mode="normal" in2="BackgroundImageFix" result="effect1_dropShadow_931_672"/>
<feBlend mode="normal" in="SourceGraphic" in2="effect1_dropShadow_931_672" result="shape"/>
</filter>
<filter id="filter4_d_931_672" x="398.632" y="371.175" width="108.601" height="108.601" filterUnits="userSpaceOnUse" color-interpolation-filters="sRGB">
<feFlood flood-opacity="0" result="BackgroundImageFix"/>
<feColorMatrix in="SourceAlpha" type="matrix" values="0 0 0 0 0 0 0 0 0 0 0 0 0 0 0 0 0 0 127 0" result="hardAlpha"/>
<feMorphology radius="2.39333" operator="dilate" in="SourceAlpha" result="effect1_dropShadow_931_672"/>
<feOffset dx="2.39333" dy="2.39333"/>
<feGaussianBlur stdDeviation="4.78667"/>
<feComposite in2="hardAlpha" operator="out"/>
<feColorMatrix type="matrix" values="0 0 0 0 0 0 0 0 0 0 0 0 0 0 0 0 0 0 0.05 0"/>
<feBlend mode="normal" in2="BackgroundImageFix" result="effect1_dropShadow_931_672"/>
<feBlend mode="normal" in="SourceGraphic" in2="effect1_dropShadow_931_672" result="shape"/>
</filter>
<linearGradient id="paint0_linear_931_672" x1="72.4871" y1="552.778" x2="264.234" y2="678.855" gradientUnits="userSpaceOnUse">
<stop stop-color="#B31AEF"/>
<stop offset="0.313324" stop-color="#F6048D"/>
<stop offset="0.780691" stop-color="#F88C54"/>
<stop offset="1" stop-color="#FF7670"/>
</linearGradient>
</defs>
</svg>
